<svg xmlns="http://www.w3.org/2000/svg" viewBox="0 0 49 60"><defs><style>.cls-1{fill:#333;}</style></defs><title>cake_undeco資產 30</title><g id="圖層_2" data-name="圖層 2"><g id="圖層_1-2" data-name="圖層 1"><path class="cls-1" d="M43.71,6H38.12V0h-5V6H15.88V0h-5V6H5.29A5.29,5.29,0,0,0,0,11.29V54.71A5.29,5.29,0,0,0,5.29,60H43.71A5.29,5.29,0,0,0,49,54.71V11.29A5.29,5.29,0,0,0,43.71,6Zm0,51H5.29A2.3,2.3,0,0,1,3,54.71V20.5H46V54.71A2.3,2.3,0,0,1,43.71,57Z"/><path class="cls-1" d="M38.57,32.12l-17.09,17a1.44,1.44,0,0,1-2,0l-9-9.09a1.44,1.44,0,0,1,0-2l2.73-2.71a1.44,1.44,0,0,1,2,0l5.3,5.34L33.84,27.35a1.44,1.44,0,0,1,2,0l2.71,2.73a1.44,1.44,0,0,1,0,2Z"/></g></g></svg>