<svg xmlns="http://www.w3.org/2000/svg" viewBox="0 0 51.87 61.68"><defs><style>.cls-1{fill:#333;}</style></defs><title>cake_undeco資產 33</title><g id="圖層_2" data-name="圖層 2"><g id="圖層_1-2" data-name="圖層 1"><path class="cls-1" d="M51.85,40.94,49.31,27a1.52,1.52,0,0,0-1.49-1.24H42a17.63,17.63,0,0,0,1.89-7.94,17.85,17.85,0,1,0-33.82,7.94h-6A1.52,1.52,0,0,0,2.56,27L0,40.94a2.45,2.45,0,0,0,0,.27V60.16a1.52,1.52,0,0,0,1.51,1.52H50.36a1.52,1.52,0,0,0,1.51-1.52V41.21A2.45,2.45,0,0,0,51.85,40.94ZM17,33.23a17.69,17.69,0,0,0,18.13-.06,1.4,1.4,0,0,0,.41.06H41.3a1.37,1.37,0,1,1,0,2.74H10.84a1.37,1.37,0,0,1,0-2.74ZM26,3A14.83,14.83,0,1,1,11.2,17.85,14.85,14.85,0,0,1,26,3ZM5.31,28.82H12c.38.48.78.95,1.2,1.39H10.84a4.39,4.39,0,1,0,0,8.78H41.3a4.39,4.39,0,1,0,0-8.78H38.88c.42-.44.82-.91,1.2-1.39h6.48l2.26,12.37H3.05ZM3,58.65V43.2H48.85V58.65Z"/><path class="cls-1" d="M20.45,22.29a4.14,4.14,0,0,1-2.15-.65,1.11,1.11,0,0,0-.59-.16.67.67,0,0,0-.24,0,.91.91,0,0,0-.67.44l-.3.44a1.18,1.18,0,0,0-.2.65,1.65,1.65,0,0,0,0,.21,1,1,0,0,0,.46.7,7.21,7.21,0,0,0,2.84,1c.1,0,.14.07.14.17V26a1.09,1.09,0,0,0,1.1,1.09h0a1.06,1.06,0,0,0,.77-.32A1,1,0,0,0,22,26V25c0-.1,0-.16.13-.17a4.11,4.11,0,0,0,2.42-1.5,4.39,4.39,0,0,0,.82-2.69,3.68,3.68,0,0,0-.24-1.35,3.07,3.07,0,0,0-.65-1,6.83,6.83,0,0,0-1.95-1.38c-.36-.16-.7-.33-1.05-.5s-.65-.33-.92-.48a2.24,2.24,0,0,1-.64-.52,1,1,0,0,1-.24-.65,1.2,1.2,0,0,1,.38-1,1.87,1.87,0,0,1,1.16-.31,2.88,2.88,0,0,1,1.46.41,1.26,1.26,0,0,0,.71.21l.13,0a1.06,1.06,0,0,0,.74-.37l.24-.28a1.06,1.06,0,0,0,.3-.76,1,1,0,0,0-.39-.8,5.12,5.12,0,0,0-2.28-1,.15.15,0,0,1-.13-.16v-1a1,1,0,0,0-.33-.77,1.06,1.06,0,0,0-.77-.32h0a1.06,1.06,0,0,0-.78.32,1,1,0,0,0-.32.77v1a.16.16,0,0,1-.12.17,4,4,0,0,0-2.34,1.41,4.12,4.12,0,0,0-.83,2.65,3.29,3.29,0,0,0,1.11,2.52,7.16,7.16,0,0,0,1.11.8c.41.25.81.46,1.21.66s.77.39,1.11.59a3.14,3.14,0,0,1,.81.64,1.18,1.18,0,0,1,.32.77A1.31,1.31,0,0,1,21.73,22,2,2,0,0,1,20.45,22.29Z"/><path class="cls-1" d="M28,23.78A6.89,6.89,0,0,0,32.07,25a5.49,5.49,0,0,0,2.52-.58,4.6,4.6,0,0,0,1.86-1.73,5,5,0,0,0,.71-2.7,4.28,4.28,0,0,0-1.24-3.32,4.48,4.48,0,0,0-3.15-1.14,3.69,3.69,0,0,0-1.33.24s-.07,0-.09,0a.05.05,0,0,1,0-.08l.16-2.12a.16.16,0,0,1,.17-.13h3.8a1,1,0,0,0,.77-.32,1.07,1.07,0,0,0,.32-.77v-.63a1.09,1.09,0,0,0-.32-.77,1.07,1.07,0,0,0-.77-.32H29.7a1.09,1.09,0,0,0-.78.31,1.15,1.15,0,0,0-.37.78l-.26,5v.12a1.43,1.43,0,0,0,.7,1.26,1.34,1.34,0,0,0,.76.24,1.77,1.77,0,0,0,.74-.19,2.85,2.85,0,0,1,1.23-.26,2,2,0,0,1,1.51.58,2.22,2.22,0,0,1,.56,1.61,2.19,2.19,0,0,1-.58,1.64,2.3,2.3,0,0,1-1.64.56,3.68,3.68,0,0,1-2-.66,1.18,1.18,0,0,0-.67-.21h-.15a.93.93,0,0,0-.68.41l-.26.35a1.15,1.15,0,0,0-.24.71.32.32,0,0,0,0,.14A1,1,0,0,0,28,23.78Z"/></g></g></svg>