<svg xmlns="http://www.w3.org/2000/svg" viewBox="0 0 51.48 59.55"><defs><style>.cls-1{fill:#333;}</style></defs><title>cake_undeco資產 31</title><g id="圖層_2" data-name="圖層 2"><g id="圖層_1-2" data-name="圖層 1"><path class="cls-1" d="M51.46,48.6,48.68,27.07A1.71,1.71,0,0,0,47,25.58H27.44v-5H40.51a5.38,5.38,0,0,0,5.37-5.38V5.37A5.38,5.38,0,0,0,40.51,0H11A5.38,5.38,0,0,0,5.6,5.37v9.78A5.38,5.38,0,0,0,11,20.53H24v5H4.48a1.71,1.71,0,0,0-1.69,1.49L0,48.6a1.7,1.7,0,0,0,0,.22v9a1.7,1.7,0,0,0,1.7,1.7H49.77a1.71,1.71,0,0,0,1.71-1.7v-9A1.8,1.8,0,0,0,51.46,48.6ZM9,15.15V5.37a2,2,0,0,1,2-2H40.51a2,2,0,0,1,2,2v9.78a2,2,0,0,1-2,2H11A2,2,0,0,1,9,15.15ZM6,29H45.5l2.33,18.13H3.64ZM3.41,56.15V50.53H48.07v5.62Z"/><circle class="cls-1" cx="34.91" cy="41.85" r="2.65"/><circle class="cls-1" cx="16.57" cy="41.85" r="2.65"/><path class="cls-1" d="M25.74,44.5a2.65,2.65,0,1,0-2.65-2.65A2.65,2.65,0,0,0,25.74,44.5Z"/><path class="cls-1" d="M11.85,36.68A2.66,2.66,0,1,0,9.19,34,2.65,2.65,0,0,0,11.85,36.68Z"/><circle class="cls-1" cx="21.11" cy="34.03" r="2.65"/><circle class="cls-1" cx="30.37" cy="34.03" r="2.65"/><circle class="cls-1" cx="39.63" cy="34.03" r="2.65"/><path class="cls-1" d="M17.29,10.52a3.64,3.64,0,0,0-.56-.48,4,4,0,0,0-.63-.37l-.64-.3-.56-.3a1.22,1.22,0,0,1-.39-.32.58.58,0,0,1-.15-.39.74.74,0,0,1,.23-.61,1.12,1.12,0,0,1,.71-.19,1.87,1.87,0,0,1,.9.25.71.71,0,0,0,.43.13h.08a.62.62,0,0,0,.45-.23l.15-.17a.65.65,0,0,0,.18-.46.58.58,0,0,0-.24-.49A3.09,3.09,0,0,0,15.86,6a.09.09,0,0,1-.08-.1V5.26a.68.68,0,0,0-.67-.67h0a.66.66,0,0,0-.65.67v.62a.11.11,0,0,1-.08.1,2.48,2.48,0,0,0-1.43.86,2.54,2.54,0,0,0-.51,1.62,2,2,0,0,0,.19.87,2,2,0,0,0,.49.67,4.76,4.76,0,0,0,.68.5l.74.4c.25.12.47.24.68.36a1.88,1.88,0,0,1,.5.39.7.7,0,0,1,.19.47.77.77,0,0,1-.25.64,1.14,1.14,0,0,1-.78.21,2.57,2.57,0,0,1-1.32-.39.66.66,0,0,0-.36-.11l-.15,0a.56.56,0,0,0-.41.27l-.18.28a.67.67,0,0,0-.12.39.53.53,0,0,0,0,.13.56.56,0,0,0,.28.43,4.48,4.48,0,0,0,1.73.61h0a.09.09,0,0,1,.08.1v.57a.66.66,0,0,0,.67.65h0a.7.7,0,0,0,.47-.19.67.67,0,0,0,.2-.48v-.62c0-.06,0-.1.08-.1a2.5,2.5,0,0,0,1.47-.92A2.65,2.65,0,0,0,17.84,12a2.29,2.29,0,0,0-.15-.82A1.74,1.74,0,0,0,17.29,10.52Z"/><path class="cls-1" d="M23.75,10s0,0,0,0a.05.05,0,0,1,0,0,2.62,2.62,0,0,0,.76-.83A1.93,1.93,0,0,0,24.81,8a2.14,2.14,0,0,0-.7-1.68,2.77,2.77,0,0,0-1.89-.63,2.94,2.94,0,0,0-2,.64A2.05,2.05,0,0,0,19.49,8a2.46,2.46,0,0,0,1.1,2.05.08.08,0,0,1,0,.05.05.05,0,0,1,0,0,2.37,2.37,0,0,0-1.4,2.18A2,2,0,0,0,20,14a3.35,3.35,0,0,0,2.12.65A3.45,3.45,0,0,0,24.34,14a2.12,2.12,0,0,0,.84-1.69A2.49,2.49,0,0,0,23.75,10ZM22.17,7.11a1,1,0,0,1,.72.28,1,1,0,0,1,.25.74,2,2,0,0,1-.41,1.22.11.11,0,0,1-.14,0h0a3.67,3.67,0,0,1-1-.58A1.09,1.09,0,0,1,21.29,8V7.88A.83.83,0,0,1,22.17,7.11ZM23,13a1.21,1.21,0,0,1-.78.24h0a1.32,1.32,0,0,1-.87-.3,1,1,0,0,1-.36-.81,1.9,1.9,0,0,1,.52-1.34.12.12,0,0,1,.08,0h.06a5.09,5.09,0,0,1,1.25.69,1,1,0,0,1,.39.81A.93.93,0,0,1,23,13Z"/><path class="cls-1" d="M30.81,10s0,0,0,0a.08.08,0,0,1,0,0,2.62,2.62,0,0,0,.76-.83A2,2,0,0,0,31.88,8a2.18,2.18,0,0,0-.71-1.68,2.76,2.76,0,0,0-1.89-.63,2.94,2.94,0,0,0-2,.64A2.05,2.05,0,0,0,26.55,8a2.46,2.46,0,0,0,1.1,2.05.08.08,0,0,1,0,.05.05.05,0,0,1,0,0,2.38,2.38,0,0,0-1.4,2.18A2,2,0,0,0,27.09,14a3.35,3.35,0,0,0,2.12.65A3.43,3.43,0,0,0,31.4,14a2.09,2.09,0,0,0,.84-1.69A2.48,2.48,0,0,0,30.81,10ZM29.23,7.11a1,1,0,0,1,.72.28,1,1,0,0,1,.25.74,2,2,0,0,1-.41,1.22.11.11,0,0,1-.14,0h0a3.67,3.67,0,0,1-1-.58A1.09,1.09,0,0,1,28.35,8V7.88A.83.83,0,0,1,29.23,7.11ZM30,13a1.2,1.2,0,0,1-.77.24h0a1.34,1.34,0,0,1-.88-.3,1,1,0,0,1-.36-.81,1.9,1.9,0,0,1,.52-1.34.12.12,0,0,1,.08,0h.06a5.16,5.16,0,0,1,1.26.69,1,1,0,0,1,.38.81A.93.93,0,0,1,30,13Z"/><path class="cls-1" d="M37.87,10a.05.05,0,0,1,0,0,.08.08,0,0,1,0,0,2.78,2.78,0,0,0,.77-.83A2,2,0,0,0,38.94,8a2.18,2.18,0,0,0-.71-1.68,2.76,2.76,0,0,0-1.89-.63,2.94,2.94,0,0,0-2,.64A2.08,2.08,0,0,0,33.61,8a2.46,2.46,0,0,0,1.1,2.05.08.08,0,0,1,0,.05.05.05,0,0,1,0,0,2.4,2.4,0,0,0-1.4,2.18A2,2,0,0,0,34.15,14a3.37,3.37,0,0,0,2.12.65A3.41,3.41,0,0,0,38.46,14a2.07,2.07,0,0,0,.84-1.69A2.46,2.46,0,0,0,37.87,10ZM36.29,7.11a1,1,0,0,1,.72.28,1.05,1.05,0,0,1,.26.74,2,2,0,0,1-.42,1.22.1.1,0,0,1-.13,0h0a3.67,3.67,0,0,1-1-.58A1,1,0,0,1,35.42,8a.66.66,0,0,1,0-.14A.83.83,0,0,1,36.29,7.11Zm.8,5.85a1.18,1.18,0,0,1-.77.24h0a1.34,1.34,0,0,1-.88-.3,1,1,0,0,1-.36-.81,1.9,1.9,0,0,1,.52-1.34.12.12,0,0,1,.08,0h.06a5.16,5.16,0,0,1,1.26.69,1,1,0,0,1,.38.81A.87.87,0,0,1,37.09,13Z"/></g></g></svg>