<?xml version="1.0" encoding="utf-8"?>
<!-- Generator: Adobe Illustrator 24.1.2, SVG Export Plug-In . SVG Version: 6.00 Build 0)  -->
<svg version="1.1" id="Layer_1" xmlns="http://www.w3.org/2000/svg" xmlns:xlink="http://www.w3.org/1999/xlink" x="0px" y="0px"
	 viewBox="0 0 233.5 233.5" style="enable-background:new 0 0 233.5 233.5;" xml:space="preserve">
<style type="text/css">
	.st0{display:none;fill:#3300FF;}
	.st1{fill:#EEEEEE;}
</style>
<g id="圖層_2">
	<g id="圖層_1-2">
		<circle class="st0" cx="116.8" cy="116.8" r="116.8"/>
		<path class="st1" d="M209.1,146.7l-0.8,2l-13-2.8l-4.9-1v0.1l3.7,4.2l9.6,11.6l-0.8,1.9l-19.3-12.4l0.5-1.3l12.7,8.2
			c1.6,1.1,3.6,2.4,5.1,3.5v-0.1l-3.6-4.2l-9.8-11.8l0.5-1.2l13.4,2.7l4.8,1l0.1-0.1c-1.6-1-3.6-2.1-5.2-3.1l-12.7-8.2l0.5-1.3
			L209.1,146.7z"/>
		<path class="st1" d="M186.2,158.2c5,3.6,6.2,9.6,3.6,13.2c-2,2.7-5.1,3.1-8.5,0.7c-4.9-3.6-6.2-9.6-3.6-13.3
			C179.7,156.2,182.9,155.8,186.2,158.2z M185.5,159.5c-2.9-2.1-5.3-1.9-6.9,0.3c-2,2.8-0.7,8.2,3.4,11.2c2.9,2.1,5.3,1.9,6.9-0.3
			C190.9,167.8,189.6,162.4,185.5,159.5z"/>
		<path class="st1" d="M163.3,175.1l0.9-0.8l1.5,2.2l0.1-0.1c0.3-2.6,0.8-4.8,2.3-6.1c2.1-1.9,4-1.4,5.6,0.4
			c0.5,0.6,0.9,1.2,1.3,1.8l5.4,9.3l-1,0.9l-5.3-9.1c-0.3-0.6-0.7-1.2-1.2-1.8c-1.3-1.5-2.6-1.7-4.2-0.3c-1.1,0.9-1.8,3-2,6.4
			l6.2,10.6l-1,0.9L163.3,175.1z"/>
		<path class="st1" d="M164.6,194.1l-1,0.6l-0.9-2.4l-0.1,0.1c-0.9,2.5-1.9,4.5-3.6,5.5c-2.4,1.4-4.2,0.5-5.3-1.6
			c-0.4-0.6-0.7-1.3-0.8-2.1l-3.3-10.2l1.2-0.7l3.2,10c0.2,0.7,0.5,1.4,0.8,2c1,1.8,2.2,2.2,4,1.2c1.2-0.7,2.4-2.5,3.4-5.8
			l-3.8-11.7l1.2-0.7L164.6,194.1z"/>
		<path class="st1" d="M146.7,201.2l2.4-0.9l0.2,1.1l-2.4,1l0.5,4.8l-1.1,0.4l-0.6-4.7l-4.2,1.5l-0.1-1.2l4.2-1.5l-1.5-10.8
			c-0.1-0.4-0.2-0.9-0.3-1.3c-0.5-1.4-1.3-2-2.9-1.4c-0.6,0.3-1.2,0.7-1.7,1.2l-0.7-0.9c0.6-0.7,1.4-1.2,2.2-1.6
			c2.4-0.9,3.7,0.3,4.3,1.9c0.2,0.5,0.3,1.1,0.4,1.6L146.7,201.2z"/>
		<path class="st1" d="M130.5,207c-1.8,0.3-3.6-0.4-4.6-1.9h-0.1l-0.3,2.3l-1.1,0.2l0.5-16.6l1.2-0.2l0.1,2.6h0.1
			c1.2-2,3.2-3.5,5.4-4c2.8-0.5,5,1.3,5.7,5C138.4,200.6,135,206.2,130.5,207z M126.2,195.2l-0.3,8.4c1.5,1.9,3,2.5,4.5,2.2
			c3.8-0.6,6.5-6,5.7-10.9c-0.6-3.3-2.2-4.6-4.4-4.3S127.7,192.6,126.2,195.2L126.2,195.2z"/>
		<path class="st1" d="M116.2,212.7c0,0.8-0.6,1.5-1.4,1.5c0,0,0,0,0,0c-0.6,0-1.1-0.5-1.1-1.1c0,0,0-0.1,0-0.1
			c0-0.8,0.6-1.5,1.4-1.5C115.7,211.5,116.2,212,116.2,212.7C116.2,212.6,116.2,212.7,116.2,212.7z M116.6,207.6h-1.4l3.1-16.3h1.4
			L116.6,207.6z"/>
		<path class="st1" d="M107.4,207.2l-1.1-0.2l0.7-2.5h-0.1c-2.2,1.4-4.2,2.4-6.2,2.1c-2.8-0.4-3.6-2.1-3.3-4.5
			c0.1-0.7,0.3-1.4,0.6-2.1l3.6-10.1l1.4,0.2l-3.6,9.9c-0.3,0.7-0.4,1.4-0.6,2.1c-0.3,2,0.4,3.1,2.4,3.4c1.4,0.2,3.4-0.5,6.2-2.6
			l4.2-11.6l1.4,0.2L107.4,207.2z"/>
		<path class="st1" d="M70.7,202.6c-2-1-3.2-2.9-3.3-5.1l1.3-0.2c0,1.8,1,3.5,2.7,4.3c5.6,2.7,12-2.3,14.4-7.4
			c1.9-4,1.7-7.8-2.3-9.7c-1.8-0.8-3.8-0.9-5.7-0.3l-0.3-1.2c2.2-0.7,4.6-0.5,6.7,0.5c4.5,2.2,5.2,6.7,3,11.3
			C84.3,200.6,77.1,205.7,70.7,202.6z"/>
		<path class="st1" d="M57,195.7l-1.1-0.9l7.1-5.9l1.4-1.1l-0.1-0.1c-2.8,0.1-5-0.1-6.5-1.3c-2.2-1.7-2-3.7-0.6-5.5
			c0.5-0.6,1-1.1,1.6-1.6l8.2-6.9l1.1,0.9L60,180c-0.6,0.4-1.1,0.9-1.5,1.5c-1.3,1.6-1.2,2.9,0.4,4.2c1.1,0.9,3.2,1.3,6.7,0.9
			l9.4-7.9l1.1,0.9L57,195.7z"/>
		<path class="st1" d="M45,173.1c-1.1-1.4-1.4-3.4-0.6-5l-0.1-0.1l-2.2,0.9l-0.7-0.9l14.8-7.7l0.8,0.9l-2.3,1.3l0.1,0.1
			c2.3,0.1,4.5,1.1,6.1,2.8c1.8,2.2,1.4,5-1.6,7.4C54.4,176.9,47.8,176.6,45,173.1z M53.2,163.5l-7.4,3.8c-0.9,2.3-0.7,3.8,0.3,5
			c2.4,3,8.4,2.7,12.3-0.4c2.6-2.1,3-4.2,1.5-5.9S56.1,163.6,53.2,163.5L53.2,163.5z"/>
		<path class="st1" d="M37.2,160.7l-0.5-1l2.5-0.8l-0.1-0.1c-2.4-1-4.4-2.1-5.3-3.9c-1.2-2.5-0.3-4.2,1.8-5.2
			c0.7-0.3,1.4-0.6,2.1-0.8l10.4-2.8l0.6,1.3L38.5,150c-0.7,0.2-1.4,0.4-2,0.7c-1.8,0.9-2.3,2.1-1.4,4c0.6,1.3,2.4,2.5,5.7,3.6
			l11.9-3.2l0.6,1.3L37.2,160.7z"/>
		<path class="st1" d="M26.8,131.3l18.1-0.8c4.1-0.2,7,1.6,8,5.3c0.4,2,0.1,4.1-0.8,5.9l-1.2-0.5c0.9-1.6,1.2-3.4,0.8-5.2
			c-0.8-3.1-3.4-4.3-7-4.2l-3.8,0.1v0.1c2,1.1,3.5,2.9,4.2,5.1c0.7,2.7-0.8,5.1-4.5,6c-5.9,1.5-11.7-1.6-12.8-5.8
			c-0.4-1.7,0.2-3.6,1.6-4.7v-0.1l-2.3-0.1L26.8,131.3z M39.2,132.2l-8.2,0.3c-1.7,1.7-2.3,3.2-1.9,4.6c0.9,3.6,6.4,5.8,11,4.7
			c3.1-0.8,4.3-2.5,3.8-4.6C43.4,135.4,41.6,133.5,39.2,132.2z"/>
		<path class="st1" d="M25.7,83.1l0.9-1.9l12.9,3.3l4.9,1.2v-0.1l-3.5-4.3l-9-11.9l0.8-1.9l18.7,13.1l-0.6,1.3l-12.4-8.7
			c-1.5-1.1-3.5-2.5-5-3.7l-0.1,0.1l3.4,4.4L46,86.1l-0.5,1.2L32.3,84l-4.8-1.2l0,0.1c1.6,1.1,3.5,2.3,5.1,3.3L45,94.9l-0.6,1.3
			L25.7,83.1z"/>
		<path class="st1" d="M49.1,72.5c-4.8-3.8-5.8-9.9-3.1-13.4c2.1-2.6,5.3-2.9,8.5-0.4c4.8,3.8,5.8,9.9,3,13.4
			C55.5,74.8,52.3,75,49.1,72.5z M49.8,71.3c2.8,2.2,5.2,2.2,6.9,0c2.2-2.8,1-8.2-2.9-11.3c-2.8-2.2-5.2-2.1-6.9,0
			C44.7,62.7,45.8,68.2,49.8,71.3z"/>
		<path class="st1" d="M72.7,56.6l-0.9,0.7L70.3,55l-0.1,0.1c-0.4,2.6-1,4.8-2.5,6c-2.2,1.8-4.1,1.2-5.5-0.6
			c-0.5-0.6-0.9-1.2-1.2-1.8l-5-9.5l1-0.9l5,9.3c0.3,0.6,0.7,1.2,1.1,1.8c1.3,1.5,2.6,1.8,4.1,0.5c1.1-0.9,1.9-3,2.3-6.3l-5.8-10.8
			l1.1-0.9L72.7,56.6z"/>
		<path class="st1" d="M72.1,37.6l1-0.5l0.9,2.5l0.1-0.1c1-2.4,2-4.4,3.9-5.3c2.5-1.3,4.2-0.3,5.3,1.8c0.3,0.7,0.6,1.4,0.7,2.1
			l2.9,10.3L85.6,49l-2.8-10.2c-0.2-0.7-0.4-1.4-0.7-2c-0.9-1.8-2.1-2.3-4-1.4c-1.3,0.7-2.5,2.4-3.6,5.7L77.8,53l-1.3,0.6L72.1,37.6
			z"/>
		<path class="st1" d="M90.3,31.1l-2.4,0.8l-0.1-1.1l2.5-0.9l-0.3-4.8l1.1-0.3l0.5,4.7l4.2-1.3l0.1,1.3l-4.2,1.3l1,10.9
			c0,0.4,0.1,0.9,0.3,1.3c0.4,1.4,1.2,2,2.9,1.5c0.7-0.2,1.2-0.6,1.7-1.1l0.7,0.9c-0.6,0.7-1.4,1.2-2.3,1.5
			c-2.4,0.8-3.7-0.4-4.2-2.1c-0.1-0.5-0.3-1.1-0.3-1.6L90.3,31.1z"/>
		<path class="st1" d="M106.7,26c1.8-0.2,3.5,0.6,4.5,2.1h0.1l0.3-2.3l1.2-0.1l-1.2,16.6l-1.2,0.2v-2.6h-0.1
			c-1.3,1.9-3.3,3.3-5.6,3.7c-2.8,0.4-5-1.5-5.5-5.2C98.5,32.1,102.2,26.6,106.7,26z M110.5,38l0.7-8.3c-1.4-1.9-2.9-2.6-4.4-2.4
			c-3.8,0.5-6.7,5.8-6.1,10.6c0.4,3.3,2,4.7,4.2,4.4S108.9,40.5,110.5,38L110.5,38z"/>
		<path class="st1" d="M120.6,26h1.4l-3.8,16.2h-1.4L120.6,26z M121.2,21c0-0.8,0.7-1.5,1.5-1.5c0.6,0,1.1,0.5,1.1,1.1
			c0,0,0,0,0,0.1c0,0.8-0.7,1.5-1.5,1.5C121.7,22.1,121.2,21.6,121.2,21L121.2,21z"/>
		<path class="st1" d="M129.7,26.8l1.1,0.2l-0.9,2.5h0.1c2.3-1.3,4.3-2.2,6.3-1.9c2.7,0.5,3.5,2.3,3.1,4.6c-0.1,0.7-0.4,1.4-0.7,2.1
			l-4,10l-1.4-0.3l4-9.8c0.3-0.6,0.5-1.3,0.7-2c0.4-2-0.3-3.1-2.3-3.5c-1.4-0.3-3.5,0.4-6.3,2.3l-4.6,11.4l-1.4-0.3L129.7,26.8z"/>
		<path class="st1" d="M166.2,32.8c1.9,1,3.1,3.1,3.1,5.3l-1.3,0.2c0.1-1.8-0.9-3.5-2.5-4.4c-5.5-2.9-12.1,1.8-14.7,6.8
			c-2.1,3.9-2,7.8,1.9,9.8c1.8,0.9,3.8,1.1,5.7,0.6l0.2,1.2c-2.2,0.6-4.6,0.3-6.7-0.8c-4.4-2.4-4.9-6.9-2.5-11.4
			C152.6,34.3,160,29.5,166.2,32.8z"/>
		<path class="st1" d="M179.6,40.3l1.1,0.9l-7.3,5.7l-1.4,1l0.1,0.1c2.8,0,5,0.3,6.5,1.6c2.1,1.8,1.9,3.7,0.3,5.5
			c-0.5,0.6-1,1.1-1.6,1.5l-8.5,6.6l-1.1-0.9l8.3-6.5c0.6-0.4,1.1-0.9,1.6-1.4c1.3-1.5,1.3-2.8-0.2-4.2c-1.1-0.9-3.2-1.4-6.6-1.2
			l-9.7,7.5l-1-0.9L179.6,40.3z"/>
		<path class="st1" d="M190.8,63.4c1.1,1.5,1.2,3.4,0.4,5l0.1,0.1l2.2-0.8l0.7,0.9l-15,7.1l-0.7-1l2.3-1.2l-0.1-0.1
			c-2.3-0.2-4.5-1.2-6-3c-1.7-2.3-1.2-5.1,1.9-7.3C181.5,59.2,188.1,59.8,190.8,63.4z M182.2,72.6l7.6-3.5c1-2.2,0.9-3.8,0-5
			c-2.3-3.1-8.3-3-12.3-0.1c-2.6,2-3.1,4.1-1.8,5.9S179.3,72.4,182.2,72.6z"/>
		<path class="st1" d="M198,76l0.5,1.1l-2.5,0.7l0.1,0.1c2.4,1.1,4.3,2.3,5.1,4.1c1.1,2.5,0.1,4.2-2,5.2c-0.7,0.3-1.4,0.5-2.1,0.7
			l-10.5,2.4l-0.6-1.2l10.3-2.3c0.7-0.1,1.4-0.4,2-0.6c1.8-0.8,2.4-2,1.6-3.9c-0.6-1.3-2.3-2.6-5.5-3.9l-12,2.7l-0.6-1.3L198,76z"/>
		<path class="st1" d="M207.2,105.8l-18.1,0.1c-4.1,0-7-1.9-7.7-5.6c-0.4-2,0-4.1,1.1-5.9l1.2,0.6c-1,1.5-1.3,3.4-1,5.1
			c0.6,3.1,3.2,4.4,6.8,4.4l3.8,0.1v-0.1c-2-1.2-3.4-3-4-5.2c-0.6-2.7,1-5,4.7-5.8c5.9-1.2,11.6,2.1,12.5,6.3
			c0.3,1.8-0.3,3.5-1.8,4.6v0.1l2.3,0.2L207.2,105.8z M194.9,104.5h8.2c1.8-1.7,2.4-3.1,2.1-4.6c-0.7-3.6-6.2-6.1-10.8-5.2
			c-3.1,0.6-4.4,2.3-4,4.5C190.8,101.1,192.5,103.1,194.9,104.5z"/>
		<path class="st1" d="M143.8,100.2v46.4h-1.9v-5.1H93.4v-41.3h2v39.4h22.2V87.8h1.9v51.8h22.2v-39.3H143.8z"/>
	</g>
</g>
</svg>
