<?xml version="1.0" encoding="utf-8"?>
<!-- Generator: Adobe Illustrator 24.1.1, SVG Export Plug-In . SVG Version: 6.00 Build 0)  -->
<svg version="1.1" id="Layer_1" xmlns="http://www.w3.org/2000/svg" xmlns:xlink="http://www.w3.org/1999/xlink" x="0px" y="0px"
	 viewBox="0 0 241.6 213.5" style="enable-background:new 0 0 241.6 213.5;" xml:space="preserve">
<style type="text/css">
	.st0{fill:#C2AC8E;}
	.st1{display:none;fill:#C2AC8E;}
	.st2{fill:none;stroke:#C2AC8E;stroke-width:4;stroke-miterlimit:10;}
</style>
<path class="st0" d="M70.8,20.9c0-1.4-0.4-2.8-1-4.1c-1-2-1.2-4.4-0.6-6.6c0.3-1,0.3-2,0.2-3c-0.5-4.4-4.5-7.6-8.9-7.1
	c-4.1,0.5-7.1,3.9-7.2,8c0,0.8,0.1,1.6,0.3,2.4c0.6,2.1,0.3,4.4-0.7,6.4c-1.8,3.7-1,8,1.9,10.9c2.1,2,3.9,4.4,5.2,7l1.3,2.9l1.3-2.9
	c1.3-2.6,3-5,5.2-7C69.7,25.9,70.8,23.4,70.8,20.9z"/>
<path class="st0" d="M98.3,93c0.5,1.8,0,3.7-1.2,5.1c-2.4,2.8-6.6,3.2-9.4,0.8c-0.3-0.2-0.6-0.5-0.8-0.8c-1.2-1.4-1.7-3.3-1.2-5.1
	c0.2-0.8,1-1.2,1.7-1c0,0,0,0,0,0c0.4,0.1,0.7,0.4,0.9,0.7l0.1,0.3c0.4,0.8,0.9,1.4,1.7,1.9c1.2,0.7,2.7,0.7,3.8,0
	c0.7-0.5,1.3-1.1,1.7-1.9l0.1-0.3c0.4-0.7,1.2-1,1.9-0.6C97.9,92.3,98.2,92.6,98.3,93z"/>
<path class="st0" d="M122.3,93c0.5,1.8,0,3.7-1.2,5.1c-2.4,2.8-6.6,3.2-9.4,0.8c-0.3-0.2-0.6-0.5-0.8-0.8c-1.2-1.4-1.7-3.3-1.2-5.1
	c0.2-0.8,1-1.2,1.8-1c0.4,0.1,0.7,0.4,0.9,0.7l0.1,0.3c0.4,0.8,0.9,1.4,1.7,1.9c1.2,0.7,2.7,0.7,3.8,0c0.7-0.5,1.3-1.1,1.6-1.9
	l0.1-0.3c0.4-0.7,1.2-1,1.9-0.6C121.9,92.3,122.2,92.6,122.3,93z"/>
<path class="st0" d="M109,122.7c0.4,1.7,0,3.5-1.2,4.8c-2.2,2.6-6.2,3-8.8,0.7c-0.3-0.2-0.5-0.5-0.7-0.7c-1.1-1.3-1.6-3.1-1.1-4.8
	c0.2-0.5,0.8-0.8,1.3-0.6c0.2,0.1,0.4,0.3,0.5,0.5v0.1c0.7,2.2,3.1,3.5,5.3,2.8c1.3-0.4,2.4-1.5,2.8-2.8v-0.1
	c0.2-0.5,0.8-0.7,1.3-0.5C108.6,122.2,108.8,122.4,109,122.7z"/>
<path class="st0" d="M109.8,110.8c0.3,1.9-0.3,3.8-1.6,5.2c-2.6,2.9-7,3.1-9.9,0.5c-0.2-0.1-0.3-0.3-0.5-0.5
	c-1.3-1.4-1.9-3.3-1.6-5.2c0.2-1,1.1-1.7,2.1-1.5c0.7,0.1,1.2,0.6,1.4,1.2l0.1,0.3c0.2,0.7,0.7,1.4,1.3,1.9c1.1,0.8,2.6,0.8,3.7,0
	c0.6-0.5,1.1-1.1,1.3-1.9l0.1-0.3c0.3-1,1.4-1.5,2.3-1.1C109.3,109.6,109.7,110.1,109.8,110.8z"/>
<path class="st0" d="M105,117.8l-0.6,9.9c0,0.8-0.6,1.4-1.4,1.4c-0.8,0-1.4-0.6-1.4-1.4l-0.6-9.9c-0.1-1.1,0.8-2.1,1.9-2.1
	c1.1-0.1,2.1,0.8,2.1,1.9C105.1,117.6,105.1,117.7,105,117.8z"/>
<path class="st0" d="M172.9,111.3c-5.9-8-10.5-16.8-13.7-26.2c-3.7-10.5-10.3-19.8-19.1-26.8c-0.7,1.1-1.5,2.1-2.5,3
	c-1,0.8-2.1,1.4-3.3,1.9c-1.2,0.4-2.5,0.7-3.7,0.7c-2,0-3.9-0.5-5.6-1.4l-0.9-0.5c-0.6-0.3-1.3-0.6-1.9-0.9c-2.6-1.1-5.2-2-7.9-2.7
	c-5.4-1.3-11-1.6-16.6-0.9c-5.5,0.7-10.9,2.3-15.8,4.9c-0.3,0.2-0.6,0.3-1,0.5c-0.4,0.2-0.8,0.3-1.3,0.4L79,63.4c-0.2,0-0.4,0-0.7,0
	c-0.4,0-0.9,0-1.3-0.1c-1.8-0.3-3.4-1.4-4.4-2.9c-0.9-1.6-1.1-3.5-0.4-5.1c0.3-0.7,0.7-1.3,1.1-1.8c-0.2,0-0.4,0.1-0.6,0.1
	c-12.5,7.4-21.8,19-26.3,32.8c-3.1,9.1-7.6,17.6-13.5,25.2c-11.5,15.1-17.6,33.6-17.6,52.6c0,38.9,70.4,53.1,122,42.7
	c-8.1-0.9-16.2-2.4-24.1-4.6c-9.5-2.5-18.6-6.4-27.1-11.3c-8.6-5-16.2-11.6-22.4-19.4c-3.1-3.9-5.9-8.2-8.1-12.6
	c-1.1-2.3-2.1-4.6-3-7c-0.4-1.2-0.8-2.4-1.2-3.6c-0.2-0.6-0.3-1.2-0.5-1.9s-0.3-1.2-0.4-2c-0.2-1.5,0.8-2.9,2.3-3.1s2.9,0.8,3.1,2.3
	c0,0,0,0.1,0,0.1v0.1c0,0.4,0.2,1,0.3,1.6s0.2,1.1,0.4,1.7c0.3,1.1,0.6,2.2,0.9,3.3c0.7,2.2,1.5,4.4,2.5,6.5
	c1.9,4.3,4.3,8.4,7.2,12.1c5.7,7.6,12.7,14.1,20.7,19.2c4.5,2.9,9.2,5.5,14.1,7.6c5.8-1.2,11.4-3.3,16.6-6.1c2.8-1.6,5.5-3.4,8-5.4
	c2.5-2,4.8-4.2,7-6.6c4.2-4.8,7.8-10.2,10.5-16c1.4-2.9,2.6-5.8,3.6-8.9c0.5-1.5,1-3,1.4-4.6s0.8-3.1,1-4.6v-0.1
	c0.1-1.2,1.2-2,2.4-1.9s2,1.2,1.9,2.4c0,0.1,0,0.1,0,0.2c0,0,0,0.1,0,0.1c-0.4,1.8-0.8,3.3-1.3,5s-1.1,3.2-1.6,4.8
	c-1.2,3.1-2.6,6.2-4.1,9.1c-3.1,5.9-7,11.4-11.7,16.2c-2.3,2.4-4.9,4.6-7.5,6.6c-7.2,5.3-15.5,8.8-24.2,10.4
	c3.3,1.4,6.7,2.6,10.1,3.7c8.8,2.8,17.8,4.7,26.9,5.9c28.1-6.4,49.8-20.3,49.8-41.9C190.7,145.2,184.5,126.6,172.9,111.3z
	 M133.8,107c-6.4,5-10.2,12.6-10.3,20.8v0.8c0,11.3-9.2,20.5-20.6,20.5c-0.6,0-1.3,0-1.9-0.1c-10.6-1-18.5-10.2-18.5-20.9v-0.4
	c-0.1-8.1-3.9-15.8-10.3-20.8c-9.5-7.5-11.2-21.3-3.7-30.9c5.9-7.6,16.1-10.4,25.1-7c6,2.3,12.7,2.3,18.8,0
	c11.4-4.3,24.1,1.5,28.3,12.9c0.7,1.8,1.1,3.7,1.3,5.6C142.8,95.1,139.7,102.4,133.8,107z"/>
<path class="st0" d="M135.3,43.5c-8.2-4.4-17.3-7.1-26.6-7.8c-4.6-0.4-9.3-0.2-13.9,0.4c-4.6,0.6-9.1,1.7-13.5,3.2
	c-2.2,0.8-4.3,1.6-6.4,2.6c-1,0.5-2.1,1-3.1,1.5c-0.2,0.1-0.5,0.3-0.7,0.4l-0.6,0.4L70,44.7c-0.1,0.2-0.3,0.4-0.4,0.6
	c-1,1.7-0.9,3.8,0.3,5.4c0.6,0.6,1.3,1,2.1,1.2c1.2,0.2,2.3,0,3.4-0.5c3.9-1.9,7.9-3.4,12.1-4.5c4.8-1.3,9.8-2.1,14.8-2.2
	c10-0.1,19.9,2.4,28.6,7.2c0.2,0.1,0.3,0.4,0.2,0.7c-0.1,0.2-0.4,0.3-0.7,0.2c-8.6-4.6-18.3-7-28.1-6.8c-4.9,0.2-9.7,0.9-14.4,2.3
	c-3.6,1-7.1,2.3-10.5,3.9c-1.2,0.6-2.2,1.5-2.7,2.8c-0.1,0.3-0.2,0.7-0.3,1c-0.2,1.1,0,2.2,0.5,3.1c0.6,0.9,1.5,1.5,2.6,1.7
	c0.3,0.1,0.5,0.1,0.8,0.1h0.4l0.4-0.1c0.3-0.1,0.5-0.1,0.8-0.3c0.3-0.1,0.6-0.2,0.8-0.4c5.2-2.7,10.9-4.5,16.8-5.1
	c5.8-0.6,11.7-0.2,17.4,1.3c2.8,0.7,5.6,1.8,8.2,3c0.7,0.3,1.3,0.6,2,1l1,0.5c0.3,0.2,0.6,0.3,0.9,0.5c1.2,0.5,2.5,0.8,3.7,0.8
	c2.2,0,4.3-0.6,6.1-1.9c4.3-3.2,5.3-9.3,2.1-13.6C137.9,45.2,136.7,44.2,135.3,43.5L135.3,43.5z"/>
<path class="st1" d="M161.2,46.8c0.1,0.8-0.6,1.6-1.4,1.6c-0.1,0-0.2,0-0.3,0h-7.4c-1,0-2,0-2-2c0-3.7,1.3-8,5.3-8
	C160.7,38.4,161.2,45.6,161.2,46.8z M155.1,30.3c-1.5,0-1.8-3.2-1.8-4.1s-0.5-7.4,6.2-7.4c7.3,0,5.6,8.6,5.4,9.9s-1.8,1.5-3.2,1.5
	H155.1z M169.8,39c0.7,0,1.4,0.1,1,1.6s-1.1,10-1.1,13.1s-0.3,7.4-3.6,10.7c-3.3,3.3-6.5,4.1-7,4.1c-0.7,0-1.7,0.1-2.2-0.5
	s-0.5-3.7-0.5-4.7s0.1-1.2,1.1-1.5c2.1-1,4-2.5,5.3-4.4c2.2-2.8,1.6-10.6,1.6-14.1s0.9-4.3,1.6-4.3L169.8,39z M176,62.8
	c2.5,0,4,2.3,5.3,3.6s-0.2,2.4-1.5,2.4s-2.6,0.8-4.5,0.8s-2.9-0.7-2.9-2.4C172.5,64.6,173.5,62.8,176,62.8L176,62.8z M205.5,50.4
	c6.1,0.7,10.7,4.3,10.7,10.4c0,4.8-4.7,9-6.7,10.5c0,0-2.3,2.5-2.8,3s-1.8,0.3-2.2,0c0,0-7.8-5.4-8.3-5.9c-0.4-0.4-0.5-1-0.1-1.4
	c0.1-0.1,0.2-0.2,0.2-0.2c0,0,0.6-0.6,1.4-1.5c0.7-0.7,1.9-0.7,2.6-0.1l3.2,2.4c1.5-1,5.3-3.9,4.9-7.1c-0.5-3.9-3.8-7.1-10.5-7.1
	s-9.3,2.1-9.3,2.6s-1.1,1.1-2,0.1c-3.8,3.7-10.4,5.1-11.4,5.1c-0.6,0.1-1.1-0.4-1.2-0.9c0-0.3,0.1-0.7,0.3-0.9
	c0.5-0.8,0.5-1.8-0.1-2.6c-0.5-0.5-0.7-2.1,0.3-2.1c2.4,0,4.7-0.5,6.8-1.6c1.4-0.7,2.7-2.7,3.2-4.7c-3.6-0.1-6.3-0.3-6.3-0.3
	c-0.4,0.4-1.7,1.2-2.3,0.4s-2.2-3.7-1.7-4.6s1.8-0.6,2.8-0.6h33.1c2.1,0,2.8,0.4,2.8,2.2v2.4c0,0.7-0.5,1.5-3,1.5
	c-1.2,0-11.1-0.5-19.5-0.8c-0.2,1.2-0.6,2.3-1.1,3.3C194.3,49.7,200.1,49.8,205.5,50.4L205.5,50.4z M177.9,35.8
	c-2.1,0-2-2.7-1.6-5.7c0.3-4.7,0.2-18.8,14.6-18.8s16.8,11.8,16.8,16.2c0,8.4-1.4,9.5-2.6,9.5c-0.6,0.1-1.2-0.3-1.3-1
	c0-0.1,0-0.2,0-0.3H177.9z M187.3,61.3c3.6,0.7,3.2,5,1.6,6c-1.3,0.7-4.7,1.3-5.7-2S184.6,60.8,187.3,61.3z M187.5,27.6v2l6.6-0.1
	c1,0,1.9-0.5,2.5-1.3C197.3,27.5,194.2,27.6,187.5,27.6z M192,18.2c-2-0.1-3.8,1.4-4.1,3.4h7.9C195.5,19.7,193.9,18.3,192,18.2
	L192,18.2z M197.9,60.6c0,1.8-1.5,3.2-3.2,3.2c-2.2,0-3.1-1.4-3.1-2.8s0.3-3.4,3.3-3.4c1.6-0.1,2.9,1.1,3.1,2.6
	C197.9,60.4,197.9,60.5,197.9,60.6L197.9,60.6z M205.2,62.9c-2,0.9-3.4,0-4.3-1.5c-0.9-1.5-0.4-3.4,1.1-4.2c0.5-0.3,1.1-0.5,1.8-0.4
	c2.1,0,2.9,1.5,3.5,2.8S207.2,62.2,205.2,62.9z"/>
<path class="st1" d="M224.5,73.7c-1.8,2.4-3.9,3.9-9.2,3.9l-0.2-3.2c4.5-1,6.4-5.2,6.6-8.6l4.9-0.4
	C226.6,68.3,225.9,71.1,224.5,73.7z M251.3,96.2c0.3-2.8,2.9-5.4,7.9-4.6l-0.9,12.6c-2.9,0-10.8,0.7-15.6-3.3s-7-9.6-7-16.8h-0.5
	c-2,10.5-15.2,17.2-16,17.4s-1.9,0.5-1.4,0l8.5-17.4h-3.5v-7.6h26.5V84h-6.4C242.9,91.8,246.6,95.6,251.3,96.2z M232.7,75.1v-3.9
	h-4.1v-2.8h4.1c0-1.8,0.2-6.3,3.3-6.3c1.8,0,3.4,1.1,3.4,6.3h4.7v2.8h-4.7v3.9L232.7,75.1z"/>
<path class="st1" d="M211.2,127.8c-0.4,0.4-0.9,0.5-1.2,0.1c-1.6-2.3-2.7-4.9-3.4-7.6c-0.8-3.5-0.6-11-0.6-11.9s0.5-0.9,0.9-0.9
	l6.8,0.2c0.6,0,0.9,0.1,0.9,1s-0.2,7.9,2.7,10.8c0.4,0.4,1.4,0.1,1,0.5L211.2,127.8z M249.9,138.9c0.2,1.3-1,2.9-3.8,2.9h-34
	c-1.7,0-3.1-0.6-3.1-2.4c-0.2-1.4,0.9-2.7,2.3-2.8c0.2,0,0.4,0,0.6,0h12.4l0.9-10.9c-1.1,0-1.9,0.1-2.2,0.1c-1.4,0-2-0.8-2-1.6v-3.1
	c0-0.4,0.1-0.6,0.6-0.6c0.2,0,1.8,0,3.9,0l0.1-2.3c-3.4,0.1-5.9,0.1-6.1,0.1c-0.6,0-0.7-0.3-0.7-0.7v-1.8c0-0.6,0.4-0.6,0.8-0.6
	l6.3-0.2l0.9-11.8c1.4-0.9,3.2-0.9,4.8-0.2c2.2,1.1,3.6,3.4,3.5,5.9l-0.4,5.8c3.8-0.1,6.9-0.2,7.1-0.2c0.7,0,0.6,0.4,0.6,0.6v1.9
	c0.5,0,0.5,0.2,0.5,0.5s-0.4,0.4-0.6,0.4c0,0-3.5,0-7.9,0.1l-0.2,2.4c2.1-0.1,3.4-0.1,3.4-0.1c0.7,0,1,0.1,0.9,0.8
	c0,0-0.3,2.9-0.4,3.4s-0.4,0.6-1.2,0.7c0,0-1.3,0-3.1,0.2l-0.8,11.3H246C248.3,136.6,249.8,137.4,249.9,138.9L249.9,138.9z"/>
<path class="st0" d="M42.2,56c5-5.4,5.1-13.7,0.3-19.3c-1.3-1.6-1.6-3.8-0.7-5.7c2.4-5.6-0.2-12.1-5.8-14.5s-12.1,0.2-14.5,5.8
	c-1.2,2.9-1.2,6.1,0.1,8.9c0.8,1.9,0.5,4.1-0.9,5.7C15.8,42.4,16,50.6,20.9,56c1.5,1.7,1.8,4.2,0.7,6.2c-2.1,4.1-1.4,9.1,1.8,12.5
	c1.2,1.2,1.8,2.9,1.5,4.6c-0.1,0.7-0.1,1.5,0,2.2c0.2,0.9,0.5,1.7,1,2.5c2,3.1,5.9,5.3,5.5,10.7l0,0c-0.1-5.1,3-7.3,5.3-10.2
	c0.9-1.1,1.4-2.6,1.4-4c0-0.3,0-0.5,0-0.8c-0.3-1.7,0.2-3.5,1.4-4.8c3.3-3.4,4-8.4,1.9-12.6C40.4,60.3,40.7,57.7,42.2,56z"/>
<path class="st0" d="M91.9,1.6L91.9,1.6c0.7,5.1,4.7,9,9.7,9.7l0,0c-5.1,0.7-9.1,4.6-9.7,9.7l0,0c-0.7-5.1-4.7-9-9.7-9.7l0,0
	C87.3,10.6,91.3,6.6,91.9,1.6L91.9,1.6z"/>
<path class="st0" d="M15.4,93.7L15.4,93.7c0.7,5.1,4.6,9,9.7,9.7l0,0c-5.1,0.7-9,4.7-9.7,9.7l0,0c-0.7-5.1-4.7-9-9.7-9.7l0,0
	C10.7,102.7,14.7,98.7,15.4,93.7z"/>
<path class="st0" d="M173.4,50.1l-7.3,18.4l-2.5,0.1c-2.6,0.2-3.9-0.4-3.9-1.8c0-1.2,7.7-13.6,9.8-15.8c1.2-1.1,2.2-1.6,3.4-1.6
	C173.4,49.4,173.7,49.6,173.4,50.1z M193.7,65.8c0-0.1,1-1.2,3-3.1c4-3.9,7.7-11.8,6.8-12.7c-0.1-0.1-0.4-0.2-0.9-0.2
	c-0.9,0-1.5,0.4-2,2.3c-1.8,5.8-8.5,11.5-13.6,11.4c-1.7,0-2.5-0.2-2.5-0.5c0-0.4,0.9-1.1,2.9-2.2c3.1-1.9,5.4-4.3,6.9-7.5
	c0.7-1.6,1-2.6,0.9-3c-0.1-0.4-0.5-0.7-1.5-0.7c-1.8,0-2.1,0.3-3,1.7c-0.8,1.5-2.6,3-4.6,4.4c-2,1.5-3.3,2-5.7,2.4
	c-1.3,0.2-2.4,0.2-3.4,0.1c-0.9-0.1-1.5-0.2-1.4-0.5c0.1-0.4,0.7-0.9,2-1.8c2.6-1.6,6.2-7.5,7-11.5l0.4-1.6l-3.5-0.4
	c-3-0.3-4.4-0.8-4.1-1.4c0.1-0.1,0.3-0.3,0.7-0.5c0.9-0.3,23.9,0.2,32.3,0.8l4.9,0.3l0.7-1.4c0.3-0.7,0.6-1.1,0.9-1.2
	c2.9-2.2,4.9,0.1,5.6,0.3c0.8,0.4,1.2,2-0.3,3c-1.6,0.9-13.2,1.3-21.6,0.3c-4.2-0.4-6.4-0.5-6.7-0.1c-0.3,0.3-0.6,1.3-0.8,3
	l-0.3,2.6H207l14,0.3v5.5c-0.1,4.7-0.3,5.6-1.8,8.5c-1.6,2.9-4.9,5.8-7.9,6.7c-1.5,0.3-3,0.7-4.5,0.7c-1.6,0-2.4-0.2-2.6-0.6
	c-0.2-0.3,0.1-0.7,0.4-0.6c1.5,0,3.9-2.6,5.3-5.7c1.4-3,1.6-4.4,1.8-8.7c0.1-2,0.2-3.4,0.1-3.9c-0.1-0.5-0.4-0.7-1.1-0.7
	c-0.7,0-1,0.3-1.3,1c-2,6.5-7.5,14.2-10.9,15.2c-1.2,0.3-3,0.6-4.1,0.5C194,66.1,193.7,65.9,193.7,65.8z M183.1,19.3
	c0.3-0.9,32.3-0.7,32.7,0.2c0.3,0.9-1.1,14.2-1.6,15.5c-0.4,1-1.6,1.8-3.7,2.1c-4.2,0.9-16.9,1.4-21.4,0.9c-2.2-0.2-3.7-0.6-4.5-1.2
	c-0.8-0.6-1.2-1.4-1.3-2.2c-0.1-0.9-0.3-3.5-0.3-8C183,22.2,183,19.7,183.1,19.3z M206.8,26.9v-6.4H192l0.4,6.4H206.8z M192.7,28.6
	L193,36h13.1l0.3-1.6c0.3-1.2,0.3-2.2,0.3-3c0-0.9-0.1-1.4-0.2-1.6c-0.1-0.3-0.2-0.4-0.4-0.5c-0.2-0.1-0.9-0.3-2-0.5
	c-1-0.1-3.2-0.2-6.4-0.2H192.7z"/>
<path class="st0" d="M219,83.4v-8.5c0-0.7,0.6-1.3,1.3-1.3l0,0c0.8,0,1.8,0.6,3.7,0.6h1c0.7,0,1.3,0.6,1.3,1.4l-0.3,8.6
	c0,0.6,0.5,1.1,1.1,1l1.2-0.2c2.2-0.3,2.6-0.3,3.4-1.9c0.5-1,4.1-1,4.6,1.7c0.1,0.7-0.4,1.3-1.6,1.8c-1.2,0.5-3,0.7-5.3,0.7h-2.8
	c-0.5,0-1,0.4-1,1v0.6c0,1-0.1,2.9-0.2,4.7c0,0.7,0.3,1.3,0.9,1.3c2,0,5,0,6.5,0c0.4,0,0.7-0.2,0.9-0.5l0.5-1
	c0.5-0.8,1.6-1.4,3.6-1.6c1.5-0.2,2.3,1.4,2.4,3c0,0.7-0.4,1.4-1.2,1.7c-0.8,0.3-2.5,0.5-4.9,0.5c-13.4,0.3-22.2,0.2-26.3,0
	c-4.2-0.2-6.3-0.6-6.3-1.4c0-0.3,2.5-0.4,7.6-0.4c5.1,0,7.9-0.2,8.4-0.4c0.5-0.3,0.8-1.7,0.9-4.3l0.1-2.7c0-0.6-0.4-1-1-1h-2
	c-2.5,0-3.3,0.3-5.3,1.4c0,0,0,0-0.1,0c-2.4,1.5-4.7,1.8-6.7,0.7l-0.2-0.1c-0.6-0.3-0.7-1.1-0.2-1.6l0.9-0.9
	c1.9-1.8,3.1-4.7,3.4-8.3c0.2-1.9,1.9-2.1,5.3-0.5c2.5,1.2,2.5,1.2,2.2,3c0,0,0,0.1,0,0.1c-0.2,0.9-0.5,1.8-0.8,2.5l0,0
	c-0.3,0.7,0.2,1.4,0.9,1.4h3.1C218.5,84.4,219,84,219,83.4z"/>
<path class="st0" d="M205.6,111.4c0-0.1,0.7-0.8,2-2.1c2.6-2.5,4.2-5.8,4.1-8.5c-0.1-2.7,0-3.2,3.1-2c3.1,1.2,3.5,1.6,3.1,4.6
	c-0.5,3.1-1.6,5.1-2.7,6.1c-1.1,1.1-2.2,1.9-4.2,2.7c-1.9,0.7-2.6,0.8-3.7,0.3c-0.5-0.3-0.9-0.5-1.3-0.6
	C205.7,111.6,205.6,111.4,205.6,111.4z"/>
<path class="st0" d="M223.6,105.6c0-1.3,0.8-6.1,1.4-7.3v-0.1c0.2-0.5,0.5-0.7,0.7-0.6c0.5,0.1,2.8,1.3,3,1.4c4,2.1,4,2.2,2.5,6.1
	c-2.8,7.1,9.1,6.9,9,8.3c-0.2,2-8.9,0.5-12.3-1.5c-1.7-1-2.8-2.5-3.8-4.4C223.7,107,223.6,106.3,223.6,105.6z"/>
<path class="st0" d="M200.1,136.7c4.1-3.3,4.6-8.1,5.2-12.8c0.2-1.3,0.6-1.9,1.9-1.8c1.5,0.1,3.8,0.2,5.6,0.3l-0.8,6.5
	c2.6,0,5.1,0,8,0v-7.1c0-2.5,0.8-3.2,3.4-2.7l1.6,0.3c1.9,0.1,2.9,0.9,2.8,3c-0.1,2.1,0,4,0,6c2.4,0.1,5.1,0.7,6.4-2
	c0.3-0.4,1.4-1.3,3-1.5c0.8-0.1,3.7-0.1,3.6,3.1c-0.1,1.6-1.2,1.7-2.4,1.8c-3.4,0.2-6.7,0.6-10.2,0.8v11.1c1.6,0.3,3,0.5,4.4,0.6
	c0.4,0,0.9-0.2,1.1-0.6c1.3-1.8,1.8-2.3,3.3-2.5c1.1-0.2,3,0.3,3.3,1.8c0.2,1.4-0.5,2.3-1.7,2.6c-2.6,0.5-5,0.5-7.6,0.4
	c-0.7,0-1.5-0.2-2.6-0.3l-0.6,11.3c1.4,0.2,2.8,0.4,4.2,0.5c1.3,0.2,2.5,0,3.1-1.5c0.5-1,3.1-2.8,5.9-1.2c1.4,1,0.8,2.7,0.6,3
	c-0.6,0.9-1.3,1-2.3,1.3c-1.6,0.5-3.4,0.4-5.2,0.3c-5-0.2-10-0.8-15-0.9c-3.2,0-6.5,0.5-9.9,0.7c-0.9,0.1-1.8-0.2-2.7-0.3v-0.7
	c4.3-0.5,8.6-0.9,13.2-1.4v-11.3c-3.3,0-6.7,0-10.1,0v-0.9c3.3-0.2,6.6-0.3,10.4-0.4V131c-2.6-0.2-5.3-0.3-8.3-0.5
	c-1.1,2.8-2.7,5.6-5.9,6.7c-1.6,0.5-3.5,0.1-5.3,0.1C200.2,137.1,200.2,136.9,200.1,136.7z"/>
<path class="st0" d="M175.4,32.8c0-1-0.2-2-0.7-2.9c-0.7-1.4-0.9-3.1-0.4-4.6c0.2-0.6,0.2-1.3,0.2-2.1c-0.3-2.6-2.4-4.7-5-5
	c-3.4-0.4-6.3,2.3-6.3,5.6c0,0.6,0.1,1.1,0.2,1.6c0.5,1.5,0.2,3.1-0.5,4.4c-0.4,0.9-0.7,1.8-0.7,2.9c0,1.9,0.8,3.5,2,4.7
	c1.5,1.4,2.7,3,3.6,4.9l0.9,2l0.9-2c0.9-1.8,2.1-3.5,3.6-4.9C174.6,36.3,175.4,34.6,175.4,32.8z"/>
<path class="st0" d="M47.4,210.9c-5.4-0.7-10.6-2.3-15.6-4.5c-5-2.2-9.7-5.2-13.9-8.9c-4.2-3.7-7.7-8.3-10-13.5
	c-2.3-5.2-3.3-10.9-2.5-16.3l1-0.1c1.6,5.1,3.6,9.7,6.3,13.8c2.7,4.1,5.9,7.8,9.6,11.2c3.7,3.3,7.7,6.3,12,9.1
	c4.3,2.8,8.8,5.4,13.4,8.2L47.4,210.9z"/>
<path class="st0" d="M29.1,213.5c-3.8-0.2-7.4-1.1-10.9-2.5c-3.5-1.4-6.8-3.4-9.8-6c-2.9-2.6-5.4-5.8-6.9-9.5
	c-1.5-3.7-2-7.8-1.1-11.5l1-0.1c1.4,3.4,3,6.4,4.9,9c1.9,2.6,4,5,6.4,7.2c2.4,2.2,5.1,4.3,7.9,6.2c2.8,2,5.8,3.9,8.8,6.1L29.1,213.5
	z"/>
<path class="st2" d="M133.8,107c-6.4,5-10.2,12.6-10.3,20.8v0.8c0,11.3-9.2,20.5-20.6,20.5c-0.6,0-1.3,0-1.9-0.1
	c-10.6-1-18.5-10.2-18.5-20.8v-0.4c-0.1-8.1-3.9-15.8-10.3-20.8c-9.5-7.5-11.2-21.3-3.7-30.9c5.9-7.6,16.1-10.4,25.1-7
	c6,2.3,12.7,2.3,18.8,0c11.4-4.3,24.1,1.5,28.3,12.9c0.7,1.8,1.1,3.7,1.3,5.6C142.8,95.1,139.7,102.4,133.8,107z"/>
<path class="st0" d="M200.1,166.9c1,4.9,0.4,10.1-1.3,14.9c-1.7,4.8-4.6,9.3-8.1,13c-3.5,3.7-7.7,6.8-12.1,9
	c-4.5,2.3-9.2,3.9-14.2,4.5c3.9-3.1,7.8-5.8,11.5-8.7c3.7-2.9,7.2-5.8,10.4-9c3.2-3.2,6-6.8,8.3-10.7
	C197,176,198.7,171.7,200.1,166.9z"/>
<path class="st0" d="M204.4,183.9c1,3.2,0.9,6.8-0.2,10.1c-1,3.3-2.9,6.4-5.3,8.9c-2.4,2.5-5.2,4.6-8.3,5.9
	c-3.1,1.4-6.3,2.3-9.8,2.2c2.4-2.5,4.8-4.4,7.1-6.4c2.3-2,4.5-3.9,6.6-5.9c2-2,3.9-4.2,5.5-6.6C201.7,189.7,203.1,187,204.4,183.9z"
	/>
<path class="st2" d="M190.6,165.6"/>
</svg>
