<?xml version="1.0" encoding="utf-8"?>
<!-- Generator: Adobe Illustrator 24.1.2, SVG Export Plug-In . SVG Version: 6.00 Build 0)  -->
<svg version="1.1" id="Layer_1" xmlns="http://www.w3.org/2000/svg" xmlns:xlink="http://www.w3.org/1999/xlink" x="0px" y="0px"
	 viewBox="0 0 237.5 75.5" style="enable-background:new 0 0 237.5 75.5;" xml:space="preserve">
<style type="text/css">
	.st0{fill:#FFFFFF;}
</style>
<g id="Layer_2_1_">
	<g id="Layer_1-2">
		<g>
			<path class="st0" d="M232.5,5.6v62.4l-15,1.8V51.3v-5.5l-5.5,0.6L5,67.5v-60l15.5-1.9v44.7v5.5l5.5-0.6l81-8.3l4.5-0.5v-4.5V7.4
				l15-1.8v33.9v5.5l5.5-0.6l81-8.3l4.5-0.5v-4.5V7.4L232.5,5.6 M237.5,0l-25,3v28.2l-81,8.3V0l-25,3v39.1l-81,8.3V0l-25,3H0v70.1
				l212.5-21.8v24.2l25-3V0L237.5,0z"/>
		</g>
	</g>
</g>
</svg>
