<svg xmlns="http://www.w3.org/2000/svg" viewBox="0 0 183.4 194.73"><defs><style>.cls-1{fill:#eee;}</style></defs><g id="Layer_2" data-name="Layer 2"><g id="Layer_1-2" data-name="Layer 1"><g id="圖層_2" data-name="圖層 2"><g id="圖層_1-2" data-name="圖層 1-2"><path class="cls-1" d="M183.4,127.26l-.76,2-13-2.76-4.93-1v.13l3.69,4.18L178,141.38l-.76,1.93-19.3-12.41.52-1.33,12.72,8.19c1.59,1.06,3.59,2.39,5.11,3.46v-.13l-3.56-4.24-9.84-11.78.46-1.17,13.39,2.72,4.81,1,0-.13c-1.61-1-3.62-2.11-5.23-3.14l-12.73-8.16.51-1.3Z"/><path class="cls-1" d="M160.5,138.76c5,3.59,6.2,9.65,3.6,13.23-2,2.73-5.15,3.12-8.48.71-4.93-3.57-6.2-9.65-3.59-13.26C154,136.74,157.19,136.37,160.5,138.76Zm-.66,1.25c-2.86-2.07-5.3-1.95-6.9.26-2,2.83-.7,8.22,3.38,11.17,2.87,2.07,5.28,1.93,6.85-.25C165.23,148.36,163.89,142.94,159.84,140Z"/><path class="cls-1" d="M137.58,155.62l.87-.77,1.5,2.21.11-.09c.34-2.59.81-4.82,2.28-6.13,2.08-1.86,4-1.38,5.57.37a9.16,9.16,0,0,1,1.26,1.83l5.43,9.28-1,.92-5.32-9.1a8.76,8.76,0,0,0-1.2-1.75c-1.33-1.5-2.64-1.7-4.17-.34-1.06.95-1.81,3-2,6.41l6.19,10.59-1,.93Z"/><path class="cls-1" d="M138.87,174.6l-1,.57-.93-2.44-.12.07c-.92,2.46-1.9,4.48-3.65,5.46-2.43,1.36-4.16.5-5.32-1.58a8.58,8.58,0,0,1-.84-2.06l-3.31-10.23,1.22-.68,3.2,10a12.84,12.84,0,0,0,.8,2c1,1.75,2.21,2.22,4,1.21,1.24-.7,2.41-2.52,3.36-5.82l-3.76-11.68,1.24-.7Z"/><path class="cls-1" d="M121,181.73l2.4-.85.17,1.09-2.45,1,.49,4.77-1.13.4-.65-4.71-4.16,1.46-.15-1.24,4.16-1.47-1.47-10.83a6.9,6.9,0,0,0-.3-1.27c-.5-1.41-1.27-2-2.94-1.38a4.33,4.33,0,0,0-1.67,1.2l-.7-.87a5.81,5.81,0,0,1,2.22-1.57c2.41-.85,3.74.27,4.31,1.9a11,11,0,0,1,.42,1.59Z"/><path class="cls-1" d="M104.84,187.53a4.72,4.72,0,0,1-4.6-1.91h-.1l-.26,2.32-1.14.19.5-16.63,1.17-.2.06,2.61h.14a8.69,8.69,0,0,1,5.43-4c2.81-.47,5,1.25,5.67,5C112.76,181.12,109.31,186.74,104.84,187.53Zm-4.34-11.81-.31,8.36c1.52,1.88,3,2.49,4.48,2.24,3.82-.65,6.5-6,5.68-10.86-.55-3.25-2.2-4.62-4.41-4.25s-3.91,1.93-5.44,4.47Z"/><path class="cls-1" d="M90.49,193.19a1.47,1.47,0,0,1-1.4,1.54h0a1.1,1.1,0,0,1-1.14-1.06v-.08a1.5,1.5,0,0,1,1.42-1.51,1.11,1.11,0,0,1,1.13,1.09Zm.4-5.07H89.5l3.14-16.34h1.43Z"/><path class="cls-1" d="M81.76,187.72l-1.14-.17.74-2.5h-.13C79,186.44,77,187.44,75,187.15c-2.76-.41-3.6-2.15-3.25-4.51a9.11,9.11,0,0,1,.55-2.11l3.63-10.12,1.38.21-3.56,9.91a13.29,13.29,0,0,0-.58,2.05c-.29,2,.4,3.12,2.45,3.42,1.41.21,3.44-.52,6.22-2.55L86,171.9l1.41.21Z"/><path class="cls-1" d="M45,183.14A6,6,0,0,1,41.69,178l1.32-.23a4.78,4.78,0,0,0,2.66,4.26c5.57,2.69,12-2.27,14.43-7.39,1.91-4,1.66-7.84-2.29-9.74a8,8,0,0,0-5.73-.34l-.29-1.2a9.32,9.32,0,0,1,6.71.48c4.54,2.18,5.2,6.69,3,11.25C58.61,181.11,51.43,186.22,45,183.14Z"/><path class="cls-1" d="M31.31,176.2l-1.09-.86,7.09-5.94,1.41-1.05-.11-.09c-2.75.07-5-.09-6.51-1.31-2.18-1.74-2-3.67-.56-5.53a9,9,0,0,1,1.59-1.56l8.18-6.94,1.09.87-8.09,6.74A11.89,11.89,0,0,0,32.78,162c-1.25,1.57-1.22,2.9.41,4.19,1.11.89,3.24,1.27,6.66.91l9.38-7.92,1.12.89Z"/><path class="cls-1" d="M19.31,153.61a4.69,4.69,0,0,1-.59-5l-.07-.08-2.15.91-.73-.9,14.75-7.73.75.93L29,143.07l.09.11a8.63,8.63,0,0,1,6.11,2.8c1.8,2.22,1.38,5-1.58,7.4C28.72,157.38,22.12,157.12,19.31,153.61ZM27.47,144,20,147.86c-.89,2.25-.71,3.82.25,5,2.44,3,8.44,2.71,12.25-.37,2.56-2.08,3-4.19,1.55-5.93s-3.67-2.44-6.64-2.54Z"/><path class="cls-1" d="M11.5,141.27l-.52-1,2.48-.82-.06-.12c-2.41-1-4.39-2.11-5.28-3.9-1.24-2.5-.29-4.19,1.84-5.24a8.77,8.77,0,0,1,2.1-.75l10.38-2.8.62,1.25-10.2,2.64a11.56,11.56,0,0,0-2,.7c-1.79.89-2.33,2.11-1.41,4,.64,1.28,2.4,2.53,5.65,3.65L27,135.69l.63,1.27Z"/><path class="cls-1" d="M1.08,111.86l18.06-.8c4.09-.17,7.05,1.61,8,5.28a8.47,8.47,0,0,1-.84,5.92l-1.18-.52a7.14,7.14,0,0,0,.82-5.17c-.77-3.11-3.41-4.28-7-4.17l-3.76.09v.14a8.77,8.77,0,0,1,4.19,5.05c.68,2.71-.84,5.08-4.5,6C9,125.14,3.16,122.1,2.12,117.91a4.67,4.67,0,0,1,1.57-4.7v-.13L1.35,113Zm12.41.84L5.25,113c-1.74,1.73-2.26,3.16-1.89,4.64.88,3.57,6.42,5.84,11,4.71,3.11-.77,4.33-2.47,3.8-4.62C17.69,116,15.91,114,13.49,112.7Z"/><path class="cls-1" d="M0,63.6l.85-1.93L13.74,65l4.89,1.22v-.12l-3.52-4.34-9-11.93.83-1.9L25.61,61,25,62.3,12.67,53.6c-1.55-1.12-3.49-2.53-5-3.66l-.06.12L11,54.45l9.36,12.16-.51,1.16L6.62,64.53,1.85,63.29l-.05.13c1.58,1.06,3.54,2.26,5.1,3.35l12.41,8.64-.56,1.28Z"/><path class="cls-1" d="M23.37,53c-4.81-3.79-5.8-9.89-3.06-13.36,2.08-2.64,5.27-2.9,8.5-.36,4.78,3.77,5.8,9.9,3,13.39C29.79,55.3,26.57,55.53,23.37,53Zm.7-1.22c2.78,2.19,5.22,2.16,6.9,0,2.17-2.75,1-8.19-2.91-11.3-2.75-2.16-5.19-2.11-6.85,0C19,43.24,20.15,48.7,24.07,51.79Z"/><path class="cls-1" d="M47,37.09l-.9.73-1.42-2.29-.1.09c-.45,2.56-1,4.78-2.53,6-2.16,1.77-4.06,1.22-5.55-.6a8.72,8.72,0,0,1-1.16-1.83l-5-9.49,1-.88,5,9.31a9,9,0,0,0,1.12,1.8c1.27,1.55,2.58,1.8,4.15.51,1.11-.91,1.94-2.95,2.3-6.32L38.07,23.28l1.08-.88Z"/><path class="cls-1" d="M46.42,18.09l1-.53L48.31,20l.12-.06c1-2.45,2-4.45,3.88-5.32,2.49-1.26,4.18-.33,5.26,1.79a9.54,9.54,0,0,1,.74,2.08L61.2,28.88l-1.27.65-2.8-10.17a11.59,11.59,0,0,0-.71-2c-.91-1.79-2.13-2.32-4-1.38-1.27.65-2.51,2.42-3.6,5.68l3.32,11.87-1.28.64Z"/><path class="cls-1" d="M64.56,11.68l-2.44.75L62,11.33l2.49-.91-.3-4.78,1.12-.35L65.77,10,70,8.72,70.09,10l-4.22,1.3,1,10.89a6.08,6.08,0,0,0,.25,1.27c.43,1.43,1.18,2,2.87,1.5a4.24,4.24,0,0,0,1.72-1.13l.67.9a5.7,5.7,0,0,1-2.29,1.48c-2.43.75-3.72-.42-4.23-2.08a12.69,12.69,0,0,1-.35-1.6Z"/><path class="cls-1" d="M81,6.58a4.7,4.7,0,0,1,4.52,2.1h.1L86,6.38l1.15-.15-1.18,16.6L84.74,23V20.37H84.6A8.69,8.69,0,0,1,79,24.1c-2.84.36-5-1.46-5.47-5.24C72.8,12.62,76.49,7.15,81,6.58Zm3.85,12,.66-8.34C84,8.3,82.62,7.62,81.1,7.81c-3.85.49-6.74,5.76-6.12,10.62.41,3.27,2,4.72,4.23,4.43s4-1.83,5.62-4.33Z"/><path class="cls-1" d="M94.94,6.53h1.37L92.5,22.73H91.07Zm.61-5.05A1.49,1.49,0,0,1,97,0a1.1,1.1,0,0,1,1.08,1.12v.07a1.48,1.48,0,0,1-1.48,1.45,1.11,1.11,0,0,1-1.08-1.11Z"/><path class="cls-1" d="M104,7.3l1.13.22L104.31,10h.14c2.29-1.29,4.33-2.22,6.3-1.85,2.74.53,3.51,2.3,3.06,4.64a8.26,8.26,0,0,1-.68,2.11l-4,10-1.37-.26,4-9.75a12,12,0,0,0,.66-2c.37-2-.27-3.14-2.31-3.52-1.4-.27-3.46.38-6.32,2.29L99.17,23l-1.4-.26Z"/><path class="cls-1" d="M140.55,13.37a6,6,0,0,1,3.13,5.25l-1.33.18a4.77,4.77,0,0,0-2.48-4.37c-5.46-2.91-12.05,1.78-14.72,6.79-2.08,3.9-2,7.77,1.89,9.83a7.93,7.93,0,0,0,5.7.58l.24,1.2a9.33,9.33,0,0,1-6.68-.75c-4.45-2.37-4.92-6.9-2.54-11.37C126.9,14.83,134.31,10,140.55,13.37Z"/><path class="cls-1" d="M154,20.84l1.06.91-7.3,5.65-1.45,1,.1.09c2.75,0,5,.29,6.46,1.58,2.11,1.82,1.89,3.74.33,5.54a8.71,8.71,0,0,1-1.65,1.5L143,43.71,142,42.8l8.34-6.46a12.52,12.52,0,0,0,1.59-1.41c1.31-1.52,1.33-2.85-.24-4.21-1.08-.93-3.19-1.4-6.62-1.18l-9.69,7.54-1-.94Z"/><path class="cls-1" d="M165.06,43.91a4.67,4.67,0,0,1,.39,5l.06.09,2.19-.83.69.93-15,7.13-.71-1L155,54l-.08-.11a8.64,8.64,0,0,1-6-3c-1.71-2.29-1.18-5.06,1.87-7.33C155.78,39.75,162.36,40.28,165.06,43.91Zm-8.55,9.24,7.59-3.53c1-2.21.87-3.78,0-5-2.31-3.11-8.33-3-12.26-.12-2.64,2-3.12,4.06-1.78,5.86S153.56,52.94,156.51,53.15Z"/><path class="cls-1" d="M172.31,56.53l.47,1.06-2.51.71.06.13c2.37,1.13,4.3,2.28,5.12,4.11,1.14,2.54.12,4.19-2,5.16a8.91,8.91,0,0,1-2.13.66l-10.47,2.38-.6-1.21,10.29-2.3a11,11,0,0,0,2-.62c1.83-.82,2.42-2,1.57-3.9-.58-1.3-2.29-2.62-5.5-3.87l-12,2.71-.59-1.3Z"/><path class="cls-1" d="M181.55,86.36l-18.07.06c-4.09,0-7-1.89-7.74-5.59A8.52,8.52,0,0,1,156.82,75l1.16.56a7.14,7.14,0,0,0-1,5.14c.64,3.13,3.23,4.4,6.78,4.44l3.76.06V85a8.81,8.81,0,0,1-4-5.22c-.56-2.73,1-5,4.74-5.8,5.93-1.22,11.63,2.06,12.5,6.29A4.68,4.68,0,0,1,179,84.92v.13l2.33.18ZM169.19,85h8.24c1.81-1.66,2.39-3.06,2.08-4.56-.74-3.6-6.17-6.09-10.77-5.15-3.13.64-4.42,2.3-4,4.46C165.12,81.58,166.83,83.62,169.19,85Z"/><path class="cls-1" d="M118.09,80.75v46.37h-1.94V122H67.71V80.69h2v39.39H92V68.29h2v51.79h22.24V80.75Z"/></g></g></g></g></svg>