<?xml version="1.0" encoding="utf-8"?>
<!-- Generator: Adobe Illustrator 26.0.2, SVG Export Plug-In . SVG Version: 6.00 Build 0)  -->
<svg version="1.1" id="圖層_1" xmlns="http://www.w3.org/2000/svg" xmlns:xlink="http://www.w3.org/1999/xlink" x="0px" y="0px"
	 viewBox="0 0 183.4 194.7" style="enable-background:new 0 0 183.4 194.7;" xml:space="preserve">
<style type="text/css">
	.st0{fill:#EEEEEE;}
</style>
<g id="Layer_2">
	<g id="Layer_1-2">
		<g id="圖層_1-2">
			<path class="st0" d="M183.4,127.3l-0.8,2l-13-2.8l-4.9-1v0.1l3.7,4.2l9.6,11.6l-0.8,1.9l-19.3-12.4l0.5-1.3l12.7,8.2
				c1.6,1.1,3.6,2.4,5.1,3.5v-0.1l-3.6-4.2l-9.8-11.8l0.5-1.2l13.4,2.7l4.8,1v-0.1c-1.6-1-3.6-2.1-5.2-3.1l-12.7-8.2l0.5-1.3
				L183.4,127.3z"/>
			<path class="st0" d="M160.5,138.8c5,3.6,6.2,9.6,3.6,13.2c-2,2.7-5.1,3.1-8.5,0.7c-4.9-3.6-6.2-9.6-3.6-13.3
				C154,136.7,157.2,136.4,160.5,138.8z M159.8,140c-2.9-2.1-5.3-1.9-6.9,0.3c-2,2.8-0.7,8.2,3.4,11.2c2.9,2.1,5.3,1.9,6.9-0.2
				C165.2,148.4,163.9,142.9,159.8,140L159.8,140z"/>
			<path class="st0" d="M137.6,155.6l0.9-0.8l1.5,2.2l0.1-0.1c0.3-2.6,0.8-4.8,2.3-6.1c2.1-1.9,4-1.4,5.6,0.4
				c0.5,0.6,0.9,1.2,1.3,1.8l5.4,9.3l-1,0.9l-5.3-9.1c-0.3-0.6-0.7-1.2-1.2-1.8c-1.3-1.5-2.6-1.7-4.2-0.3c-1.1,0.9-1.8,3-2,6.4
				l6.2,10.6l-1,0.9L137.6,155.6z"/>
			<path class="st0" d="M138.9,174.6l-1,0.6l-0.9-2.4l-0.1,0.1c-0.9,2.5-1.9,4.5-3.6,5.5c-2.4,1.4-4.2,0.5-5.3-1.6
				c-0.4-0.6-0.7-1.3-0.8-2.1l-3.3-10.2l1.2-0.7l3.2,10c0.2,0.7,0.5,1.4,0.8,2c1,1.8,2.2,2.2,4,1.2c1.2-0.7,2.4-2.5,3.4-5.8
				l-3.8-11.7l1.2-0.7L138.9,174.6z"/>
			<path class="st0" d="M121,181.7l2.4-0.9l0.2,1.1l-2.4,1l0.5,4.8l-1.1,0.4l-0.7-4.7l-4.2,1.5l-0.2-1.2l4.2-1.5l-1.5-10.8
				c-0.1-0.4-0.2-0.9-0.3-1.3c-0.5-1.4-1.3-2-2.9-1.4c-0.6,0.3-1.2,0.7-1.7,1.2l-0.7-0.9c0.6-0.7,1.4-1.2,2.2-1.6
				c2.4-0.9,3.7,0.3,4.3,1.9c0.2,0.5,0.3,1.1,0.4,1.6L121,181.7z"/>
			<path class="st0" d="M104.8,187.5c-1.8,0.3-3.6-0.5-4.6-1.9h-0.1l-0.3,2.3l-1.1,0.2l0.5-16.6l1.2-0.2l0.1,2.6h0.1
				c1.2-2,3.2-3.5,5.4-4c2.8-0.5,5,1.2,5.7,5C112.8,181.1,109.3,186.7,104.8,187.5z M100.5,175.7l-0.3,8.4c1.5,1.9,3,2.5,4.5,2.2
				c3.8-0.6,6.5-6,5.7-10.9c-0.6-3.2-2.2-4.6-4.4-4.2S102,173.1,100.5,175.7L100.5,175.7z"/>
			<path class="st0" d="M90.5,193.2c0,0.8-0.6,1.5-1.4,1.5c0,0,0,0,0,0l0,0c-0.6,0-1.1-0.5-1.1-1.1c0,0,0,0,0,0v-0.1
				c0-0.8,0.6-1.5,1.4-1.5C90,192.1,90.5,192.6,90.5,193.2C90.5,193.2,90.5,193.2,90.5,193.2L90.5,193.2z M90.9,188.1h-1.4l3.1-16.3
				h1.4L90.9,188.1z"/>
			<path class="st0" d="M81.8,187.7l-1.1-0.2l0.7-2.5h-0.1c-2.2,1.4-4.2,2.4-6.2,2.1c-2.8-0.4-3.6-2.1-3.2-4.5
				c0.1-0.7,0.3-1.4,0.6-2.1l3.6-10.1l1.4,0.2l-3.6,9.9c-0.2,0.7-0.4,1.4-0.6,2.1c-0.3,2,0.4,3.1,2.4,3.4c1.4,0.2,3.4-0.5,6.2-2.6
				l4.2-11.6l1.4,0.2L81.8,187.7z"/>
			<path class="st0" d="M45,183.1c-2-1-3.2-3-3.3-5.1l1.3-0.2c0,1.8,1,3.5,2.7,4.3c5.6,2.7,12-2.3,14.4-7.4c1.9-4,1.7-7.8-2.3-9.7
				c-1.8-0.8-3.8-0.9-5.7-0.3l-0.3-1.2c2.2-0.7,4.6-0.5,6.7,0.5c4.5,2.2,5.2,6.7,3,11.2C58.6,181.1,51.4,186.2,45,183.1z"/>
			<path class="st0" d="M31.3,176.2l-1.1-0.9l7.1-5.9l1.4-1.1l-0.1-0.1c-2.8,0.1-5-0.1-6.5-1.3c-2.2-1.7-2-3.7-0.6-5.5
				c0.5-0.6,1-1.1,1.6-1.6l8.2-6.9l1.1,0.9l-8.1,6.7c-0.6,0.4-1.1,0.9-1.5,1.5c-1.2,1.6-1.2,2.9,0.4,4.2c1.1,0.9,3.2,1.3,6.7,0.9
				l9.4-7.9l1.1,0.9L31.3,176.2z"/>
			<path class="st0" d="M19.3,153.6c-1.2-1.4-1.4-3.4-0.6-5l-0.1-0.1l-2.1,0.9l-0.7-0.9l14.8-7.7l0.8,0.9l-2.3,1.3l0.1,0.1
				c2.3,0.1,4.5,1.1,6.1,2.8c1.8,2.2,1.4,5-1.6,7.4C28.7,157.4,22.1,157.1,19.3,153.6z M27.5,144l-7.5,3.9c-0.9,2.2-0.7,3.8,0.2,5
				c2.4,3,8.4,2.7,12.2-0.4c2.6-2.1,3-4.2,1.5-5.9S30.4,144.1,27.5,144L27.5,144z"/>
			<path class="st0" d="M11.5,141.3l-0.5-1l2.5-0.8l-0.1-0.1c-2.4-1-4.4-2.1-5.3-3.9c-1.2-2.5-0.3-4.2,1.8-5.2
				c0.7-0.3,1.4-0.6,2.1-0.8l10.4-2.8l0.6,1.2l-10.2,2.6c-0.7,0.2-1.4,0.4-2,0.7c-1.8,0.9-2.3,2.1-1.4,4c0.6,1.3,2.4,2.5,5.7,3.6
				l11.9-3.2l0.6,1.3L11.5,141.3z"/>
			<path class="st0" d="M1.1,111.9l18.1-0.8c4.1-0.2,7,1.6,8,5.3c0.4,2,0.2,4.1-0.8,5.9l-1.2-0.5c0.9-1.6,1.2-3.4,0.8-5.2
				c-0.8-3.1-3.4-4.3-7-4.2l-3.8,0.1v0.1c2,1.1,3.5,2.9,4.2,5.1c0.7,2.7-0.8,5.1-4.5,6c-5.9,1.5-11.7-1.6-12.7-5.8
				c-0.4-1.7,0.2-3.6,1.6-4.7v-0.1L1.4,113L1.1,111.9z M13.5,112.7L5.2,113c-1.7,1.7-2.3,3.2-1.9,4.6c0.9,3.6,6.4,5.8,11,4.7
				c3.1-0.8,4.3-2.5,3.8-4.6C17.7,116,15.9,114,13.5,112.7z"/>
			<path class="st0" d="M0,63.6l0.9-1.9L13.7,65l4.9,1.2v-0.1l-3.5-4.3l-9-11.9l0.8-1.9L25.6,61L25,62.3l-12.3-8.7
				c-1.6-1.1-3.5-2.5-5-3.7l-0.1,0.1l3.4,4.4l9.4,12.2l-0.5,1.2L6.6,64.5l-4.8-1.2l0,0.1c1.6,1.1,3.5,2.3,5.1,3.4l12.4,8.6l-0.6,1.3
				L0,63.6z"/>
			<path class="st0" d="M23.4,53c-4.8-3.8-5.8-9.9-3.1-13.4c2.1-2.6,5.3-2.9,8.5-0.4c4.8,3.8,5.8,9.9,3,13.4
				C29.8,55.3,26.6,55.5,23.4,53z M24.1,51.8c2.8,2.2,5.2,2.2,6.9,0c2.2-2.8,1-8.2-2.9-11.3c-2.8-2.2-5.2-2.1-6.9,0
				C19,43.2,20.1,48.7,24.1,51.8L24.1,51.8z"/>
			<path class="st0" d="M47,37.1l-0.9,0.7l-1.4-2.3l-0.1,0.1c-0.5,2.6-1,4.8-2.5,6c-2.2,1.8-4.1,1.2-5.5-0.6
				c-0.5-0.6-0.9-1.2-1.2-1.8l-5-9.5l1-0.9l5,9.3c0.3,0.6,0.7,1.2,1.1,1.8c1.3,1.5,2.6,1.8,4.2,0.5c1.1-0.9,1.9-3,2.3-6.3l-5.8-10.8
				l1.1-0.9L47,37.1z"/>
			<path class="st0" d="M46.4,18.1l1-0.5l0.9,2.4l0.1-0.1c1-2.5,2-4.4,3.9-5.3c2.5-1.3,4.2-0.3,5.3,1.8c0.3,0.7,0.6,1.4,0.7,2.1
				l2.9,10.4l-1.3,0.6l-2.8-10.2c-0.2-0.7-0.4-1.4-0.7-2c-0.9-1.8-2.1-2.3-4-1.4c-1.3,0.7-2.5,2.4-3.6,5.7l3.3,11.9l-1.3,0.6
				L46.4,18.1z"/>
			<path class="st0" d="M64.6,11.7l-2.4,0.8L62,11.3l2.5-0.9l-0.3-4.8l1.1-0.3l0.5,4.7L70,8.7l0.1,1.3l-4.2,1.3l1,10.9
				c0,0.4,0.1,0.9,0.2,1.3c0.4,1.4,1.2,2,2.9,1.5c0.7-0.2,1.2-0.6,1.7-1.1l0.7,0.9c-0.6,0.7-1.4,1.2-2.3,1.5
				c-2.4,0.8-3.7-0.4-4.2-2.1c-0.2-0.5-0.3-1.1-0.3-1.6L64.6,11.7z"/>
			<path class="st0" d="M81,6.6c1.8-0.2,3.5,0.6,4.5,2.1h0.1L86,6.4l1.2-0.2L86,22.8L84.7,23v-2.6h-0.1c-1.3,1.9-3.3,3.3-5.6,3.7
				c-2.8,0.4-5-1.5-5.5-5.2C72.8,12.6,76.5,7.2,81,6.6z M84.8,18.6l0.7-8.3c-1.5-1.9-2.9-2.6-4.4-2.4c-3.8,0.5-6.7,5.8-6.1,10.6
				c0.4,3.3,2,4.7,4.2,4.4S83.2,21,84.8,18.6L84.8,18.6z"/>
			<path class="st0" d="M94.9,6.5h1.4l-3.8,16.2h-1.4L94.9,6.5z M95.6,1.5C95.6,0.7,96.2,0,97,0c0.6,0,1.1,0.5,1.1,1.1c0,0,0,0,0,0
				v0.1c0,0.8-0.7,1.5-1.5,1.5C96,2.6,95.5,2.1,95.6,1.5L95.6,1.5z"/>
			<path class="st0" d="M104,7.3l1.1,0.2l-0.8,2.5h0.1c2.3-1.3,4.3-2.2,6.3-1.9c2.7,0.5,3.5,2.3,3.1,4.6c-0.1,0.7-0.4,1.4-0.7,2.1
				l-4,10l-1.4-0.3l4-9.8c0.3-0.6,0.5-1.3,0.7-2c0.4-2-0.3-3.1-2.3-3.5c-1.4-0.3-3.5,0.4-6.3,2.3L99.2,23l-1.4-0.3L104,7.3z"/>
			<path class="st0" d="M140.6,13.4c1.9,1,3.1,3.1,3.1,5.2l-1.3,0.2c0.1-1.8-0.9-3.5-2.5-4.4c-5.5-2.9-12.1,1.8-14.7,6.8
				c-2.1,3.9-2,7.8,1.9,9.8c1.8,0.9,3.8,1.1,5.7,0.6l0.2,1.2c-2.2,0.6-4.6,0.3-6.7-0.8c-4.4-2.4-4.9-6.9-2.5-11.4
				C126.9,14.8,134.3,10,140.6,13.4z"/>
			<path class="st0" d="M154,20.8l1.1,0.9l-7.3,5.6l-1.4,1l0.1,0.1c2.8,0,5,0.3,6.5,1.6c2.1,1.8,1.9,3.7,0.3,5.5
				c-0.5,0.6-1,1.1-1.6,1.5l-8.6,6.6l-1-0.9l8.3-6.5c0.6-0.4,1.1-0.9,1.6-1.4c1.3-1.5,1.3-2.8-0.2-4.2c-1.1-0.9-3.2-1.4-6.6-1.2
				l-9.7,7.5l-1-0.9L154,20.8z"/>
			<path class="st0" d="M165.1,43.9c1.1,1.4,1.2,3.4,0.4,5l0.1,0.1l2.2-0.8l0.7,0.9l-15,7.1l-0.7-1L155,54l-0.1-0.1
				c-2.3-0.2-4.5-1.2-6-3c-1.7-2.3-1.2-5.1,1.9-7.3C155.8,39.8,162.4,40.3,165.1,43.9z M156.5,53.2l7.6-3.5c1-2.2,0.9-3.8,0-5
				c-2.3-3.1-8.3-3-12.3-0.1c-2.6,2-3.1,4.1-1.8,5.9S153.6,52.9,156.5,53.2z"/>
			<path class="st0" d="M172.3,56.5l0.5,1.1l-2.5,0.7l0.1,0.1c2.4,1.1,4.3,2.3,5.1,4.1c1.1,2.5,0.1,4.2-2,5.2
				c-0.7,0.3-1.4,0.5-2.1,0.7l-10.5,2.4l-0.6-1.2l10.3-2.3c0.7-0.1,1.4-0.4,2-0.6c1.8-0.8,2.4-2,1.6-3.9c-0.6-1.3-2.3-2.6-5.5-3.9
				l-12,2.7l-0.6-1.3L172.3,56.5z"/>
			<path class="st0" d="M181.6,86.4l-18.1,0.1c-4.1,0-7-1.9-7.7-5.6c-0.3-2,0-4.1,1.1-5.8l1.2,0.6c-1,1.5-1.3,3.4-1,5.1
				c0.6,3.1,3.2,4.4,6.8,4.4l3.8,0.1V85c-2-1.2-3.4-3-4-5.2c-0.6-2.7,1-5,4.7-5.8c5.9-1.2,11.6,2.1,12.5,6.3
				c0.4,1.8-0.3,3.6-1.8,4.7V85l2.3,0.2L181.6,86.4z M169.2,85h8.2c1.8-1.7,2.4-3.1,2.1-4.6c-0.7-3.6-6.2-6.1-10.8-5.2
				c-3.1,0.6-4.4,2.3-4,4.5C165.1,81.6,166.8,83.6,169.2,85z"/>
		</g>
	</g>
</g>
</svg>
