<?xml version="1.0" encoding="utf-8"?>
<!-- Generator: Adobe Illustrator 24.1.1, SVG Export Plug-In . SVG Version: 6.00 Build 0)  -->
<svg version="1.1" id="Layer_1" xmlns="http://www.w3.org/2000/svg" xmlns:xlink="http://www.w3.org/1999/xlink" x="0px" y="0px"
	 viewBox="0 0 433 451" style="enable-background:new 0 0 433 451;" xml:space="preserve">
<style type="text/css">
	.st0{fill:#333333;}
</style>
<g>
	<path class="st0" d="M40.8,420.7c0,4.6-0.6,8.7-1.7,12.5c-1.1,3.7-2.9,6.9-5.2,9.6c-2.3,2.6-5.2,4.7-8.6,6.1
		c-3.4,1.4-7.5,2.1-12,2.1h-4c-2.6,0-4.7-0.8-6.2-2.5c-1.5-1.7-2.2-3.6-2.2-5.9c0-2.3,0.7-4.3,2.2-5.9c1.5-1.6,3.6-2.5,6.2-2.5h2.5
		c2,0,3.8-0.2,5.3-0.6c1.5-0.4,2.9-1.1,3.9-2c1.1-0.9,1.9-2.2,2.4-3.8c0.5-1.6,0.8-3.6,0.8-5.9v-23.4c0-2.6,0.8-4.7,2.5-6.1
		c1.6-1.4,3.6-2.2,5.8-2.2c2.2,0,4.2,0.7,5.8,2.2c1.6,1.4,2.5,3.5,2.5,6.1V420.7z"/>
	<path class="st0" d="M46.3,420.7c0-4.3,0.8-8.3,2.4-12c1.6-3.7,3.8-7,6.6-9.8c2.8-2.8,6.1-5,9.8-6.6c3.7-1.6,7.7-2.4,12-2.4
		c4.3,0,8.3,0.8,12.1,2.4c3.8,1.6,7,3.8,9.8,6.6c2.8,2.8,5,6.1,6.6,9.8c1.6,3.7,2.5,7.7,2.5,12c0,4.3-0.8,8.3-2.5,12
		c-1.6,3.7-3.8,7-6.6,9.8c-2.8,2.8-6.1,5-9.8,6.6c-3.8,1.6-7.8,2.4-12.1,2.4c-4.3,0-8.3-0.8-12-2.4c-3.7-1.6-7-3.8-9.8-6.6
		c-2.8-2.8-5-6.1-6.6-9.8C47.1,429,46.3,425,46.3,420.7z M63.2,420.9c0,2,0.4,3.8,1.1,5.5c0.7,1.7,1.7,3.2,3,4.4
		c1.3,1.3,2.7,2.3,4.4,3c1.7,0.7,3.5,1.1,5.5,1.1c1.9,0,3.8-0.4,5.5-1.1c1.7-0.7,3.2-1.7,4.5-3c1.3-1.3,2.3-2.7,3.1-4.4
		c0.7-1.7,1.1-3.5,1.1-5.5c0-1.9-0.4-3.8-1.1-5.5c-0.7-1.7-1.8-3.2-3.1-4.5c-1.3-1.3-2.8-2.3-4.5-3c-1.7-0.7-3.5-1.1-5.5-1.1
		c-2,0-3.8,0.4-5.5,1.1c-1.7,0.7-3.2,1.8-4.4,3c-1.3,1.3-2.3,2.8-3,4.5C63.6,417.1,63.2,419,63.2,420.9z"/>
	<path class="st0" d="M138.8,394.4c0.9-1.5,1.9-2.6,3.2-3.3c1.3-0.7,2.6-1,3.9-1c1.1,0,2.2,0.2,3.2,0.6c1,0.4,1.9,1,2.8,1.7
		c0.8,0.7,1.4,1.6,1.9,2.6c0.5,1,0.7,2.1,0.7,3.2c0,1.5-0.5,3.1-1.4,4.6l-13.4,21.9v18.2c0,2.8-0.8,4.8-2.5,6.2
		c-1.7,1.4-3.6,2.1-5.9,2.1c-2.3,0-4.3-0.7-5.9-2.1c-1.6-1.4-2.5-3.5-2.5-6.2v-18.2l-13.6-21.9c-0.9-1.4-1.4-2.8-1.4-4.2
		c0-1.1,0.2-2.2,0.7-3.3c0.5-1,1.1-1.9,1.9-2.7c0.8-0.8,1.7-1.4,2.8-1.8c1-0.4,2.1-0.6,3.3-0.6c1.2,0,2.5,0.3,3.8,1
		c1.3,0.7,2.4,1.7,3.3,3.2l7.5,13.1L138.8,394.4z"/>
	<path class="st0" d="M199.6,428.1c-0.3-0.5-0.6-1.1-0.8-1.9c-0.3-0.8-0.4-1.7-0.4-2.7c0-2.5,0.5-4.5,1.5-5.9c1-1.4,2.7-2.1,4.9-2.1
		h1.2c1.4,0,2.6-0.4,3.4-1.2c0.9-0.8,1.3-2.1,1.3-3.8c0-1.5-0.4-2.6-1.3-3.3c-0.9-0.6-2.2-0.9-4-0.9h-9v36c0,5.7-2.8,8.6-8.3,8.6
		c-5.6,0-8.4-2.8-8.4-8.4v-43.7c0-5.6,2.7-8.4,8.1-8.4h18.1c3.6,0,6.6,0.5,9.2,1.6c2.6,1.1,4.7,2.5,6.4,4.2c1.7,1.7,2.9,3.7,3.7,5.9
		c0.8,2.2,1.2,4.5,1.2,6.8c0,4.1-1,7.6-3,10.5c-2,2.9-4.4,4.9-7.2,6l8,12.6c1.1,2,1.6,3.7,1.6,5.2c0,1.2-0.3,2.3-0.8,3.4
		c-0.5,1-1.2,1.9-2.1,2.6c-0.9,0.7-1.8,1.3-2.9,1.7c-1.1,0.4-2.2,0.6-3.3,0.6c-1.3,0-2.6-0.3-3.9-1c-1.3-0.7-2.3-1.8-3.1-3.3
		L199.6,428.1z"/>
	<path class="st0" d="M267.2,439.2h-17.9l-2.7,6.6c-0.8,1.8-1.9,3.2-3.2,4.1c-1.3,0.9-2.7,1.3-4.1,1.3c-1.1,0-2.3-0.2-3.3-0.6
		c-1.1-0.4-2-0.9-2.9-1.6c-0.9-0.7-1.5-1.5-2.1-2.5c-0.5-1-0.8-2.1-0.8-3.3c0-1.5,0.2-2.6,0.6-3.4l20.5-44.9
		c0.7-1.5,1.6-2.7,2.7-3.6c1.1-0.9,2.8-1.4,5.1-1.4c2.2,0,3.8,0.5,4.9,1.4c1.1,0.9,2,2.2,2.6,3.7l18.7,44.8c0.4,0.8,0.6,1.9,0.6,3.4
		c0,1.1-0.3,2.2-0.8,3.2c-0.5,1-1.2,1.8-2,2.5c-0.8,0.7-1.8,1.2-2.9,1.6c-1.1,0.4-2.2,0.6-3.3,0.6c-3.7,0-6.1-1.8-7.4-5.4
		L267.2,439.2z M254.5,426.1h8.1l-3.7-10.9L254.5,426.1z"/>
	<path class="st0" d="M291.2,398.8c0-1.1,0.3-2.2,0.8-3.2c0.5-1,1.2-1.9,2-2.7c0.8-0.8,1.8-1.4,2.8-1.8c1-0.5,2.1-0.7,3.1-0.7h8.1
		c5.2,0,9.8,0.9,13.7,2.7c3.9,1.8,7.2,4.1,9.8,7c2.6,2.9,4.6,6.2,5.9,9.9c1.3,3.7,2,7.4,2,11.2c0,3.8-0.6,7.5-1.9,11
		c-1.3,3.6-3.2,6.7-5.7,9.6c-2.5,2.8-5.7,5.1-9.4,6.8c-3.7,1.7-8.1,2.5-13.1,2.5h-9.5c-2.6,0-4.7-0.7-6.3-2.2
		c-1.6-1.5-2.4-3.6-2.4-6.2V398.8z M309.4,434.2c2.2,0,4.1-0.4,5.8-1.2c1.7-0.8,3.1-1.8,4.2-3.1c1.1-1.3,2-2.8,2.5-4.5
		c0.6-1.7,0.9-3.4,0.9-5.1c0-1.6-0.3-3.2-0.8-4.7c-0.5-1.5-1.4-2.9-2.5-4.1c-1.1-1.2-2.5-2.2-4.2-2.9c-1.7-0.7-3.7-1.1-6-1.1h-1.5
		v26.8H309.4z"/>
	<path class="st0" d="M361.6,442.9c0,2.8-0.8,4.8-2.5,6.2c-1.7,1.4-3.6,2.1-5.9,2.1c-2.3,0-4.3-0.7-5.9-2.1
		c-1.6-1.4-2.5-3.5-2.5-6.2v-44.6c0-2.6,0.8-4.7,2.5-6.1c1.6-1.4,3.6-2.2,5.9-2.2c2.2,0,4.2,0.7,5.9,2.2c1.7,1.4,2.5,3.5,2.5,6.1
		V442.9z"/>
	<path class="st0" d="M367.5,420.7c0-4.3,0.8-8.3,2.4-12c1.6-3.7,3.8-7,6.6-9.8c2.8-2.8,6.1-5,9.8-6.6c3.7-1.6,7.7-2.4,12-2.4
		s8.3,0.8,12.1,2.4c3.8,1.6,7,3.8,9.8,6.6c2.8,2.8,5,6.1,6.6,9.8c1.6,3.7,2.5,7.7,2.5,12c0,4.3-0.8,8.3-2.5,12
		c-1.6,3.7-3.8,7-6.6,9.8c-2.8,2.8-6.1,5-9.8,6.6c-3.8,1.6-7.8,2.4-12.1,2.4s-8.3-0.8-12-2.4c-3.7-1.6-7-3.8-9.8-6.6
		c-2.8-2.8-5-6.1-6.6-9.8C368.3,429,367.5,425,367.5,420.7z M384.5,420.9c0,2,0.4,3.8,1.1,5.5c0.7,1.7,1.7,3.2,3,4.4
		c1.3,1.3,2.7,2.3,4.4,3c1.7,0.7,3.5,1.1,5.5,1.1c1.9,0,3.8-0.4,5.5-1.1c1.7-0.7,3.2-1.7,4.5-3c1.3-1.3,2.3-2.7,3.1-4.4
		c0.7-1.7,1.1-3.5,1.1-5.5c0-1.9-0.4-3.8-1.1-5.5c-0.7-1.7-1.8-3.2-3.1-4.5c-1.3-1.3-2.8-2.3-4.5-3c-1.7-0.7-3.5-1.1-5.5-1.1
		c-2,0-3.8,0.4-5.5,1.1c-1.7,0.7-3.2,1.8-4.4,3c-1.3,1.3-2.3,2.8-3,4.5C384.8,417.1,384.5,419,384.5,420.9z"/>
</g>
<g>
	<path class="st0" d="M75.9,266.9C16.6,197.9,16.6,95.1,75.9,26c5.3-6.1,4.8-15.3-0.9-21c-6.4-6.4-16.9-5.9-22.8,1
		C18.6,45.1,0.2,94.4,0.2,146.5S18.6,247.9,52.2,287c5.9,6.9,16.4,7.4,22.8,1C80.7,282.3,81.2,273.1,75.9,266.9z"/>
	<path class="st0" d="M380.8,5.9C374.9-1,364.4-1.5,358,5c-5.7,5.7-6.2,14.9-0.9,21c59.3,69.1,59.3,171.8,0,240.9
		c-5.3,6.1-4.8,15.3,0.9,21c6.4,6.4,16.9,5.9,22.8-1c33.6-39.2,51.9-88.5,51.9-140.5S414.4,45.1,380.8,5.9z"/>
	<path class="st0" d="M99.2,239c5.8,7.3,16.7,8.1,23.3,1.5v0c5.6-5.6,6.1-14.5,1.2-20.7c-16.5-20.8-25.5-46.4-25.5-73.3
		s9-52.5,25.5-73.3c4.9-6.2,4.4-15.1-1.2-20.7v0c-6.6-6.6-17.5-5.9-23.3,1.5c-20.8,26.3-32.1,58.5-32.1,92.5S78.4,212.7,99.2,239z"
		/>
	<path class="st0" d="M310.4,240.4L310.4,240.4c6.6,6.6,17.5,5.9,23.3-1.5c20.8-26.3,32.1-58.5,32.1-92.5S354.5,80.2,333.7,54
		c-5.8-7.3-16.7-8.1-23.3-1.5v0c-5.6,5.6-6.1,14.5-1.2,20.7c16.5,20.8,25.5,46.4,25.5,73.3s-9,52.5-25.5,73.3
		C304.4,226,304.8,234.8,310.4,240.4z"/>
	<path class="st0" d="M339,335.7c-36.3,0-44.4-19.2-44.9-50.4h27.4c7.5,0,13.6-6.1,13.6-13.6s-6.1-13.6-13.6-13.6h-88.5v-30.9
		c15.3-3.1,29.8-10.6,41.7-22.4c15.6-15.6,24.2-36.3,24.2-58.3c0-22-8.6-42.7-24.2-58.3c-10.1-10.1-22.3-17.1-35.2-20.8
		c-6-1.7-10.6-6.7-12-12.8L219.3,18c-0.7-3.3-5.4-3.3-6.1,0l-8.4,36.7c-1.4,6.1-5.9,11-11.9,12.8c-12.7,3.8-24.7,10.6-34.7,20.7
		c-15.6,15.6-24.2,36.3-24.2,58.3c0,22,8.6,42.7,24.2,58.3c11.4,11.4,25.3,18.7,39.9,22v31.3h-88.5c-7.5,0-13.6,6.1-13.6,13.6
		s6.1,13.6,13.6,13.6h29.1c-0.4,31.3-8.5,50.5-44.9,50.5c-9.7,0-17.5,7.8-17.5,17.5c0,9.7,7.8,17.5,17.5,17.5
		c42.1,0,61.4-20.4,70.1-37.4c9-17.5,9.7-36.5,9.7-48h24.4v65.4c0,9.7,7.8,17.5,17.5,17.5s17.5-7.8,17.5-17.5v-65.4h26.1
		c0.1,11.6,0.8,30.5,9.7,48c8.8,17.1,28,37.4,70.1,37.4c9.7,0,17.5-7.8,17.5-17.5S348.7,335.7,339,335.7z M211.4,178.1
		c-9.5,5.5-21.4-1.4-21.4-12.4v-38.5c0-11,11.9-17.8,21.4-12.4l33.3,19.2c9.5,5.5,9.5,19.2,0,24.7L211.4,178.1z"/>
</g>
</svg>
