<svg xmlns="http://www.w3.org/2000/svg" viewBox="0 0 313.92 53.88"><g id="Layer_2" data-name="Layer 2"><g id="Layer_1-2" data-name="Layer 1"><path d="M39.4,20.39l-4.86,12a109,109,0,0,1-5.61,12.28,20.4,20.4,0,0,1-5,5.74,16.06,16.06,0,0,1-10.2,3.46A13.32,13.32,0,0,1,3.81,50,13.71,13.71,0,0,1,0,40,20,20,0,0,1,6,25.52a24,24,0,0,1,8.14-5.38,25,25,0,0,1,9.7-2,6.08,6.08,0,0,1,3.72,1A3.22,3.22,0,0,1,29,21.88a3.36,3.36,0,0,1-1.52,2.88,7.28,7.28,0,0,1-3.37.87,22.5,22.5,0,0,0-9.4,2.67A13.37,13.37,0,0,0,10,33a11.69,11.69,0,0,0-1.73,6.08A7.52,7.52,0,0,0,10,44.22a5.71,5.71,0,0,0,4.52,1.92,7.9,7.9,0,0,0,6.18-3q2.61-3,5.75-10.73l10.16-25H33.37c-2.7,0-4-.94-4-2.81a3.67,3.67,0,0,1,1.42-3.09,6.41,6.41,0,0,1,4-1.1H45.91q5.63,0,8.3,2.12t2.68,6.55a10.88,10.88,0,0,1-4.16,8.82q-3,2.49-9.31,2.49Zm2.85-7h2.37c3.12,0,4.69-1.27,4.69-3.81,0-1.45-.89-2.17-2.67-2.17h-2Z"/><path d="M60.18,34h3.31q3.69,0,3.69,2.61a3.3,3.3,0,0,1-1.31,2.78,5.84,5.84,0,0,1-3.64,1H57.57a6.92,6.92,0,0,1-4.06-1A3.35,3.35,0,0,1,52,36.47,6.87,6.87,0,0,1,52.65,34l4.83-11.89.32-.82Q59.15,18,62.14,18a3,3,0,0,1,2.12.82,2.57,2.57,0,0,1,.9,2,8.78,8.78,0,0,1-.79,2.87ZM64,8.64a4.06,4.06,0,0,1,4.08,4.07,4.08,4.08,0,1,1-8.15,0A4.06,4.06,0,0,1,64,8.64Z"/><path d="M75.62,24.4l-1,2.47c-.9,2.18-2.07,3.28-3.52,3.28a3.16,3.16,0,0,1-2.19-.79,2.54,2.54,0,0,1-.88-2,7.25,7.25,0,0,1,.64-2.28L72,16.93c.8-2,1.94-3,3.4-3A2.48,2.48,0,0,1,78.05,16l.23.9c.12.47.29.77.53.88a4.88,4.88,0,0,0,1.73.18h6.85q3.84,0,3.84,2.69,0,3.72-4.86,3.72l-.33.3q-4.65,4.46-4.65,6.88c0,1.62.89,2.43,2.69,2.43h3.69q3.72,0,3.72,2.58a3.32,3.32,0,0,1-1.3,2.81,5.85,5.85,0,0,1-3.65,1H80.8a6.21,6.21,0,0,1-4.79-2,7.46,7.46,0,0,1-1.86-5.25,8.54,8.54,0,0,1,1-4,24.38,24.38,0,0,1,3.51-4.75Z"/><path d="M112.79,34H116q3.69,0,3.69,2.58a3.33,3.33,0,0,1-1.32,2.8,5.86,5.86,0,0,1-3.63,1H111a3.42,3.42,0,0,1-3.43-2,6.51,6.51,0,0,1-4.25,2H100a6.53,6.53,0,0,1-5.2-2.3,8.9,8.9,0,0,1-2-6A14.9,14.9,0,0,1,96.69,22q3.89-4.44,8.78-4.44A6.11,6.11,0,0,1,111,20.19a4.42,4.42,0,0,1,3.84-2.2,3,3,0,0,1,2.15.82,2.7,2.7,0,0,1,.86,2,5.16,5.16,0,0,1-.47,2l-.32.79Zm-10.63.15h.73a3.09,3.09,0,0,0,3.19-2l2-5.07a4.42,4.42,0,0,0,.41-1.67,1.69,1.69,0,0,0-.77-1.38,3,3,0,0,0-1.86-.58c-1.43,0-2.81.83-4.16,2.49a8.09,8.09,0,0,0-2,5.15C99.73,33.15,100.54,34.16,102.16,34.16Z"/><path d="M135.47,18h.91q3.72,0,3.72,2.61a3.28,3.28,0,0,1-1.32,2.78,5.93,5.93,0,0,1-3.63,1H133L129.08,34h3.28q3.72,0,3.72,2.61a3.29,3.29,0,0,1-1.3,2.78,5.85,5.85,0,0,1-3.65,1h-5.24a5.57,5.57,0,0,1-3.53-1,3.38,3.38,0,0,1-1.31-2.79,6.58,6.58,0,0,1,.53-2.4l.56-1.29,3.46-8.52h-.44c-2.19,0-3.28-.85-3.28-2.55a3.37,3.37,0,0,1,1.3-2.83,5.85,5.85,0,0,1,3.65-1h1.34l1.56-3.84.32-.79q1.38-3.25,4.33-3.25a3,3,0,0,1,2.07.8,2.56,2.56,0,0,1,.86,1.95,7.18,7.18,0,0,1-.76,2.81Z"/><path d="M145.9,31.82c0,1.46,1.1,2.19,3.31,2.19h8.7q3.69,0,3.69,2.61a3.29,3.29,0,0,1-1.3,2.78,5.87,5.87,0,0,1-3.65,1h-8.29q-4.63,0-7.05-2.28c-1.61-1.53-2.41-3.75-2.41-6.68a13.81,13.81,0,0,1,3.82-9.76,12,12,0,0,1,9.1-4.1,9.13,9.13,0,0,1,6.16,2,6.64,6.64,0,0,1,2.33,5.29,6.33,6.33,0,0,1-3.22,5.86,10.38,10.38,0,0,1-5.33,1.09Zm1.4-5.34h3.23c2.09,0,3.1-.45,3-1.37s-.73-1.56-2-1.56Q148.86,23.55,147.3,26.48Z"/><path d="M206.51,23.91l6.19,14.67c.8,1.9,1.84,2.85,3.13,2.85l1.17,0h12.25c2.69,0,4,.91,4,2.75a3.78,3.78,0,0,1-1.41,3.14,6.32,6.32,0,0,1-4,1.11h-13.5a7.78,7.78,0,0,1-7.74-5.27l-8.47-20.4-3.92,9.67q-2.82,6.95-4,9.39a27.69,27.69,0,0,1-2.74,4.53q-5.59,7.56-14.09,7.56a13.5,13.5,0,0,1-10-3.87,13.77,13.77,0,0,1-3.84-10.14,20,20,0,0,1,6-14.38,24.28,24.28,0,0,1,8.14-5.35,25,25,0,0,1,9.7-2,6.05,6.05,0,0,1,3.7,1,3.19,3.19,0,0,1,1.42,2.71,3.38,3.38,0,0,1-1.52,2.9,7.85,7.85,0,0,1-3.4.87,22.19,22.19,0,0,0-9.4,2.67A13.67,13.67,0,0,0,169.51,33a11.47,11.47,0,0,0-1.73,6,7.62,7.62,0,0,0,1.69,5.23,5.78,5.78,0,0,0,4.58,1.92,8,8,0,0,0,6.2-3q2.63-3,5.76-10.73l10.13-25h-3q-4,0-4-2.78a3.72,3.72,0,0,1,1.41-3.12,6.35,6.35,0,0,1,4-1.1h9.73a25.61,25.61,0,0,1,5.58.44,8.42,8.42,0,0,1,3.41,1.82,9.82,9.82,0,0,1,3.4,8,13.6,13.6,0,0,1-10.08,13.25Zm-6.59-5.51.85-.06a10.37,10.37,0,0,0,5-1.29,6.4,6.4,0,0,0,3.17-5.59q0-4.05-3.87-4.05h-.65Z"/><path d="M238,34h3.22q3.69,0,3.69,2.58a3.33,3.33,0,0,1-1.32,2.8,5.84,5.84,0,0,1-3.63,1h-3.75a3.42,3.42,0,0,1-3.43-2,6.49,6.49,0,0,1-4.24,2h-3.34a6.52,6.52,0,0,1-5.2-2.3,8.9,8.9,0,0,1-2-6A14.85,14.85,0,0,1,221.88,22q3.88-4.44,8.77-4.44a6.09,6.09,0,0,1,5.48,2.61A4.44,4.44,0,0,1,240,18a3,3,0,0,1,2.15.82,2.67,2.67,0,0,1,.87,2,5.35,5.35,0,0,1-.47,2l-.32.79Zm-10.64.15h.74a3.1,3.1,0,0,0,3.19-2l2-5.07a4.62,4.62,0,0,0,.41-1.67,1.7,1.7,0,0,0-.78-1.38,3,3,0,0,0-1.86-.58q-2.13,0-4.16,2.49a8.14,8.14,0,0,0-2,5.15C224.91,33.15,225.72,34.16,227.34,34.16Z"/><path d="M266.13,34h3.34q3.72,0,3.72,2.61a3.3,3.3,0,0,1-1.31,2.78,5.89,5.89,0,0,1-3.64,1h-3.95A3.54,3.54,0,0,1,261,38.53a5.63,5.63,0,0,1-4,1.87h-3.72a6.55,6.55,0,0,1-5.2-2.23,8.63,8.63,0,0,1-1.95-5.91,15.26,15.26,0,0,1,3.86-10.17q3.84-4.52,8.65-4.51a7,7,0,0,1,5.66,2.55l6.53-16Q272.44,0,275.42,0a3.05,3.05,0,0,1,2.14.81,2.58,2.58,0,0,1,.88,2A5.83,5.83,0,0,1,278,4.83l-.35.8Zm-10.72.15h1.11a2.58,2.58,0,0,0,2.67-1.61l2.2-5.42a4.48,4.48,0,0,0,.41-1.52,1.87,1.87,0,0,0-.75-1.5,2.83,2.83,0,0,0-1.86-.61q-2.28,0-4.26,2.54a8.81,8.81,0,0,0-2,5.51Q253,34.16,255.41,34.16Z"/><path d="M282.51,34h3.31q3.69,0,3.69,2.61a3.29,3.29,0,0,1-1.3,2.78,5.87,5.87,0,0,1-3.65,1H279.9a6.92,6.92,0,0,1-4.06-1,3.36,3.36,0,0,1-1.47-2.88A6.82,6.82,0,0,1,275,34l4.83-11.89.33-.82c.89-2.21,2.34-3.31,4.33-3.31a3,3,0,0,1,2.13.82,2.59,2.59,0,0,1,.89,2,8.53,8.53,0,0,1-.79,2.87Zm3.87-25.37a4.06,4.06,0,0,1,4.07,4.07,4.08,4.08,0,1,1-8.15,0,4.06,4.06,0,0,1,4.08-4.07Z"/><path d="M304.19,17.58a9.59,9.59,0,0,1,7,2.69,9.25,9.25,0,0,1,2.74,6.86,14.59,14.59,0,0,1-1.44,6.22,13.54,13.54,0,0,1-3.72,4.94A9.23,9.23,0,0,1,305.61,40a17.91,17.91,0,0,1-4.56.45q-4.77,0-6.44-1.14a9,9,0,0,1-3.93-8,13.27,13.27,0,0,1,4-9.64A12.89,12.89,0,0,1,304.19,17.58Zm-.7,6.24a5.12,5.12,0,0,0-4,2.14,7.19,7.19,0,0,0-1.79,4.71q0,3.4,3.81,3.4A4.32,4.32,0,0,0,305,32.7a7.58,7.58,0,0,0,2-5.16,3.81,3.81,0,0,0-1-2.7A3.33,3.33,0,0,0,303.49,23.82Z"/></g></g></svg>