<svg xmlns="http://www.w3.org/2000/svg" viewBox="0 0 248 62.26"><g id="Layer_2" data-name="Layer 2"><g id="Layer_1-2" data-name="Layer 1"><path d="M34.72,33.57h4.36q4.05,0,4.05,2.88a3.61,3.61,0,0,1-1.44,3,6.45,6.45,0,0,1-4,1.1H32L29.79,46q-3.54,8.93-7.41,12.61a13.45,13.45,0,0,1-9.64,3.68,12.37,12.37,0,0,1-9.09-3.64,12.27,12.27,0,0,1-3.65-9,13.92,13.92,0,0,1,2.14-7.51A16.28,16.28,0,0,1,8.2,36.42q5-2.79,13.74-2.79l4.63-.06,6.83-17q1.76-4.42,1.76-6a3,3,0,0,0-1.23-2.39,4.5,4.5,0,0,0-2.93-1,6.86,6.86,0,0,0-5.17,2.58,8.29,8.29,0,0,0-2.33,5.71,4.21,4.21,0,0,0,.8,2.71,6.56,6.56,0,0,0,2.8,1.77,2.85,2.85,0,0,1,2.11,2.7A3.56,3.56,0,0,1,28,25.4a4.58,4.58,0,0,1-3.14,1.11,8,8,0,0,1-6.34-3.09,11.16,11.16,0,0,1-2.62-7.48,15.25,15.25,0,0,1,4.8-11.18A15.55,15.55,0,0,1,31.93,0a11.4,11.4,0,0,1,7.93,2.86A9.21,9.21,0,0,1,43,10a18.28,18.28,0,0,1-1.53,6.56ZM24,40.58a29.42,29.42,0,0,0-9.43,1.17,11,11,0,0,0-4.8,3.12A6.68,6.68,0,0,0,8,49.37a5.43,5.43,0,0,0,1.49,3.86,4.8,4.8,0,0,0,3.64,1.58A6.51,6.51,0,0,0,18,52.43a25.75,25.75,0,0,0,4.29-7.66Z"/><path d="M59.79,17.75a9.52,9.52,0,0,1,7,2.7,9.19,9.19,0,0,1,2.74,6.85,14.74,14.74,0,0,1-1.43,6.23,13.62,13.62,0,0,1-3.72,4.94,9,9,0,0,1-3.15,1.65,17.49,17.49,0,0,1-4.56.46q-4.77,0-6.45-1.15a9,9,0,0,1-3.92-8,13.26,13.26,0,0,1,4-9.63A12.88,12.88,0,0,1,59.79,17.75ZM59.09,24a5.15,5.15,0,0,0-4,2.14,7.21,7.21,0,0,0-1.79,4.72q0,3.4,3.81,3.4a4.32,4.32,0,0,0,3.43-1.38,7.6,7.6,0,0,0,2-5.16,3.73,3.73,0,0,0-1-2.69A3.31,3.31,0,0,0,59.09,24Z"/><path d="M87.8,41.78h3.4q3.72,0,3.72,2.6a3.31,3.31,0,0,1-1.3,2.79,5.93,5.93,0,0,1-3.65,1H85.22a46.46,46.46,0,0,1-3.07,6.68q-3.87,7.33-11.25,7.33a10.7,10.7,0,0,1-7.53-2.81,9.13,9.13,0,0,1-3-7A9.57,9.57,0,0,1,62,47a10.38,10.38,0,0,1,4.35-3.77q3.11-1.43,9.17-1.43h4.77l.85-2.11a10.47,10.47,0,0,1-4,.91A7.76,7.76,0,0,1,72.06,39a5.11,5.11,0,0,1-2-4.15,14,14,0,0,1,1.26-4.65l3.19-7.89.32-.82c.94-2.2,2.39-3.31,4.37-3.31A3,3,0,0,1,81.4,19a2.75,2.75,0,0,1,.87,2.08,8.68,8.68,0,0,1-.77,2.76l-2.87,7a9.77,9.77,0,0,0-.7,2.2c-.06.95.55,1.43,1.82,1.43a5.59,5.59,0,0,0,2.75-.79,3.78,3.78,0,0,0,1.79-1.78l3.92-9.59.3-.82c.91-2.2,2.37-3.31,4.36-3.31A3,3,0,0,1,95,19a2.74,2.74,0,0,1,.87,2.06,5.53,5.53,0,0,1-.44,2l-.35.79Zm-9.58,6.38h-4.1q-6.74,0-6.74,4.22a3.22,3.22,0,0,0,.93,2.41,3.38,3.38,0,0,0,2.47.9A5.19,5.19,0,0,0,74.58,54,22.27,22.27,0,0,0,78.22,48.16Z"/><path d="M140.6,24.08l6.18,14.68c.8,1.89,1.84,2.84,3.13,2.84l1.17,0h12.25c2.7,0,4,.92,4,2.76a3.78,3.78,0,0,1-1.4,3.13,6.37,6.37,0,0,1-4,1.11h-13.5a7.77,7.77,0,0,1-7.74-5.27l-8.46-20.39-3.93,9.67q-2.8,6.95-4,9.39a27.18,27.18,0,0,1-2.74,4.52q-5.6,7.56-14.09,7.56a13.53,13.53,0,0,1-10-3.86,13.77,13.77,0,0,1-3.84-10.14,20,20,0,0,1,6-14.39,24.51,24.51,0,0,1,8.14-5.34,25.07,25.07,0,0,1,9.7-2,6.17,6.17,0,0,1,3.71,1A3.23,3.23,0,0,1,122.64,22a3.38,3.38,0,0,1-1.53,2.9,8,8,0,0,1-3.4.88,21.9,21.9,0,0,0-9.4,2.67,13.82,13.82,0,0,0-4.72,4.68,11.52,11.52,0,0,0-1.72,6,7.66,7.66,0,0,0,1.68,5.23,5.78,5.78,0,0,0,4.58,1.92,8,8,0,0,0,6.2-3q2.63-3,5.76-10.72l10.13-25h-3q-4,0-4-2.79a3.74,3.74,0,0,1,1.41-3.12,6.37,6.37,0,0,1,4-1.09h9.73a25,25,0,0,1,5.58.44,8.49,8.49,0,0,1,3.42,1.81,9.87,9.87,0,0,1,3.39,8A13.58,13.58,0,0,1,140.6,24.08ZM134,18.57l.85-.05a10.37,10.37,0,0,0,5-1.29,6.42,6.42,0,0,0,3.17-5.6q0-4-3.87-4h-.64Z"/><path d="M172.06,34.19h3.22q3.69,0,3.69,2.58a3.33,3.33,0,0,1-1.31,2.8,5.88,5.88,0,0,1-3.64,1h-3.75a3.41,3.41,0,0,1-3.42-2,6.55,6.55,0,0,1-4.25,2h-3.34a6.53,6.53,0,0,1-5.2-2.3,8.91,8.91,0,0,1-2-6A14.88,14.88,0,0,1,156,22.19q3.89-4.44,8.78-4.44a6.08,6.08,0,0,1,5.47,2.61,4.46,4.46,0,0,1,3.84-2.2,3.06,3.06,0,0,1,2.16.82,2.72,2.72,0,0,1,.86,2,5.4,5.4,0,0,1-.47,2l-.32.79Zm-10.63.15h.73a3.1,3.1,0,0,0,3.19-2l2.05-5.07a4.42,4.42,0,0,0,.41-1.67,1.71,1.71,0,0,0-.77-1.37,3,3,0,0,0-1.86-.59q-2.15,0-4.16,2.49a8.11,8.11,0,0,0-2,5.16C159,33.33,159.8,34.34,161.43,34.34Z"/><path d="M200.21,34.19h3.34c2.48,0,3.73.87,3.73,2.61A3.28,3.28,0,0,1,206,39.58a5.94,5.94,0,0,1-3.64,1h-3.95A3.56,3.56,0,0,1,195,38.7a5.64,5.64,0,0,1-4,1.88h-3.73a6.59,6.59,0,0,1-5.2-2.23,8.7,8.7,0,0,1-1.94-5.92A15.2,15.2,0,0,1,184,22.27q3.85-4.51,8.66-4.52a7,7,0,0,1,5.65,2.55l6.53-16C206,1.54,207.51.18,209.5.18a3,3,0,0,1,2.14.8,2.58,2.58,0,0,1,.88,2A5.87,5.87,0,0,1,212.08,5l-.35.79Zm-10.72.15h1.12a2.57,2.57,0,0,0,2.66-1.62l2.2-5.42a4.48,4.48,0,0,0,.41-1.52,1.87,1.87,0,0,0-.75-1.49,2.84,2.84,0,0,0-1.86-.62q-2.28,0-4.26,2.55a8.81,8.81,0,0,0-2,5.51Q187,34.34,189.49,34.34Z"/><path d="M216.59,34.19h3.31q3.69,0,3.69,2.61a3.29,3.29,0,0,1-1.3,2.78,5.91,5.91,0,0,1-3.65,1H214a6.88,6.88,0,0,1-4-1.06,3.33,3.33,0,0,1-1.48-2.87,6.82,6.82,0,0,1,.61-2.46l4.84-11.9.32-.82c.9-2.2,2.34-3.31,4.33-3.31a3.07,3.07,0,0,1,2.13.82,2.61,2.61,0,0,1,.89,2,8.58,8.58,0,0,1-.79,2.87Zm3.87-25.37a4,4,0,0,1,4.07,4.07,4.07,4.07,0,1,1-8.14,0,4,4,0,0,1,4.07-4.07Z"/><path d="M238.27,17.75a9.55,9.55,0,0,1,7,2.7A9.23,9.23,0,0,1,248,27.3a14.6,14.6,0,0,1-1.44,6.23,13.4,13.4,0,0,1-3.72,4.94,8.86,8.86,0,0,1-3.15,1.65,17.35,17.35,0,0,1-4.55.46q-4.78,0-6.45-1.15a9,9,0,0,1-3.92-8,13.22,13.22,0,0,1,4-9.63A12.88,12.88,0,0,1,238.27,17.75Zm-.7,6.24a5.15,5.15,0,0,0-4,2.14,7.2,7.2,0,0,0-1.78,4.72q0,3.4,3.8,3.4a4.3,4.3,0,0,0,3.43-1.38,7.55,7.55,0,0,0,2-5.16,3.77,3.77,0,0,0-1-2.69A3.34,3.34,0,0,0,237.57,24Z"/></g></g></svg>