<svg xmlns="http://www.w3.org/2000/svg" viewBox="0 0 2213.35 626.62"><defs><style>.cls-1{opacity:0.6;}.cls-2{fill:#e56414;}.cls-3{fill:#d96ca4;}.cls-4{fill:#ea6611;}.cls-5{fill:#eb6611;}.cls-6{fill:#4c4196;}.cls-7{fill:#4b4196;}.cls-8{fill:#4b4096;}.cls-9{fill:#0e9fab;}.cls-10{fill:#e7dc71;}.cls-11{fill:#0ea0ab;}.cls-12{fill:#e7dc70;}.cls-13{fill:#e06fa7;}.cls-14{fill:#ea6612;}.cls-15{fill:#0e9faa;}.cls-16{fill:#df6fa7;}.cls-17{fill:#e86512;}.cls-18{fill:#e6db70;}.cls-19{fill:#e96612;}.cls-20{fill:#e5db70;}.cls-21{fill:#e4d970;}.cls-22{fill:#e5da70;}.cls-23{fill:#e5da71;}.cls-24{fill:#df6fa6;}.cls-25{fill:#dd6ea6;}.cls-26{fill:#de6ea6;}.cls-27{fill:#e86612;}</style></defs><title>Asset 12</title><g id="Layer_2" data-name="Layer 2"><g id="圖層_5" data-name="圖層 5"><g class="cls-1"><path class="cls-2" d="M63.37,0C63.22,3.86,61,4.81,57.61,4.07,54.56,3.4,51.5,2.7,49.45,0Z"/><path class="cls-3" d="M153.89,626.62c.26-1.63,1-3.46,2.6-3.42s2.43,1.73,2.62,3.42Z"/><path class="cls-4" d="M223.1,162.4c4.31,8.15,10.45,13.28,19.08,15.48-1.81,3.07-4.24,5.34-6.38,7.84-1.16,1.36-2.32,1.23-3.85.77a27.53,27.53,0,0,1-15.73-12.17c-1.32-2.07-1.22-3.53.6-5.23C218.93,167.13,220.78,164.9,223.1,162.4Z"/><path class="cls-4" d="M1024.82,534.51c3.52,7,8.73,12.23,16.31,14.73,1.71.56,2.09,1.34.81,2.73a7.57,7.57,0,0,0-.71,1.09c-5.22,8-6.62,8.23-14.44,2.75-.48-.33-.94-.69-1.39-1C1016.1,547.37,1015.94,542.77,1024.82,534.51Z"/><path class="cls-4" d="M66,256.85c-.58.83-1,1.41-1.38,2-6.54,8.26-9.1,8.58-17.55,2.17-.69-.52-1.36-1.08-2-1.66-7.36-6.71-7.27-9.88.42-16.16.95-.76,1.64-1.7,2.59,0C52,250.3,58.14,254.53,66,256.85Z"/><path class="cls-4" d="M616.27,101.12c1.22,1.44,2.07,2.41,2.89,3.41,5.37,6.55,5.31,8-.58,14.4-.3.32-.6.63-.91.94C608.46,129,604.55,128.49,598,117A28.53,28.53,0,0,0,616.27,101.12Z"/><path class="cls-5" d="M243.74,577.57c3.83,7.56,9.14,12.76,16.82,15.24,1.24.4,1.57,1.12.78,2.27-1.57,2.25-3.13,4.5-4.64,6.79-1,1.53-2.31,1.45-3.79.93a27.12,27.12,0,0,1-15.63-13.55c-.65-1.27-.87-2.34.12-3.56C239.46,583.14,241.45,580.52,243.74,577.57Z"/><path class="cls-5" d="M472.5,608.31c-1.05,1.32-1.75,2.22-2.48,3.1-5.77,7-6.92,7.2-14.56,2.39a29.75,29.75,0,0,1-5-4c-6.47-6.46-5.9-10.59,1.83-15.55,1.29-.83,1.71-.4,2.28.63C458.41,601.73,464.36,606,472.5,608.31Z"/><path class="cls-5" d="M1039.39,264.52c3.49,7.16,8.66,12.17,16,14.73,1.89.66,2.4,1.39,1.07,3-.09.11-.16.24-.24.36-5.11,8.49-7.09,8.88-15.25,3C1030.69,278.19,1030.29,273.91,1039.39,264.52Z"/><path class="cls-5" d="M741.92,268.25c4.08,7.41,9.55,12.47,17.34,14.73,1.91.55,1.18,1.56.35,2.52-1.71,1.95-3.48,3.85-5.15,5.84-1.14,1.36-2.46,1.22-3.92.75a27.39,27.39,0,0,1-15.86-12.64c-.91-1.56-1.07-2.79.39-4.17C737.35,273.12,739.47,270.79,741.92,268.25Z"/><path class="cls-6" d="M276.17,26.5c.43,4.31,1.11,7.8,3.19,10.85.84,1.24-.05,2.22-.95,3-3.41,2.91-6.85,5.78-10.28,8.67-.87.73-1.59,1-2.6.06-3.64-3.41-3.65-10.19.09-13.45C269,32.7,272.31,29.83,276.17,26.5Z"/><path class="cls-7" d="M773.27,20.15c0,3.69.66,6.93,2.69,9.73,1,1.38.37,2.34-.78,3.31-3.32,2.79-6.6,5.64-9.87,8.5-1.08,1-2,1.56-3.27.17A10,10,0,0,1,762.88,28c3-2.49,6-5,9-7.5C772.08,20.31,772.42,20.34,773.27,20.15Z"/><path class="cls-6" d="M959.25,371.11c1.09,4,1.55,7.42,3.67,10.28,1.09,1.46,0,2.42-1,3.26-3.29,2.79-6.63,5.54-9.94,8.31-1,.82-1.84,1.19-3,.13-3.48-3.23-3.36-10.25.28-13.37Z"/><path class="cls-7" d="M638.8,278.77c-1-.82-1.94-1.66-2.93-2.47s-1.82-1.41-2.71-2.15c-7.23-6-7.74-8.31-3.82-16.62.71-1.49,1.48-1,2.32-.34,3.42,2.87,7,5.61,10.16,8.72,2.49,2.44,1.18,10.47-1.71,12.31A8.21,8.21,0,0,1,638.8,278.77Z"/><path class="cls-7" d="M893.12,136.42c3.62,3.08,7.32,6.08,10.83,9.28,2.58,2.36,1.47,10.77-1.47,12.57a1.58,1.58,0,0,1-2,0c-.69-.53-1.35-1.09-2-1.66-3.16-2.74-7.56-4.92-9.11-8.38s3.22-7.28,2.54-11.74Z"/><path class="cls-6" d="M1080.33,64.75c.93,4,1.29,7.16,3.16,9.85,1.19,1.72.31,3-1,4.11q-4.63,3.9-9.32,7.76c-.76.63-1.47,1.39-2.67.78-2.77-1.42-4.33-9.91-2-12.16C1072.16,71.64,1076.05,68.47,1080.33,64.75Z"/><path class="cls-8" d="M868.14,433.76c-3.82-.45-7.7-.91-11.59-1.35-2.42-.28-3.18-1.55-2.62-3.92a9.08,9.08,0,0,1,9.38-7.25c3.46.22,6.92.7,10.36,1.16,2,.28,3.62.84,1.36,3.13a14.5,14.5,0,0,0-3.26,6.08C871.2,433.41,870.16,434.33,868.14,433.76Z"/><path class="cls-9" d="M1067.84,394.17c1.23-3.54,2.26-6.7,1.88-10.11-.1-.87-.09-1.92,1-2.15,4.09-.87,8.21-1.66,12.33-2.41a1.68,1.68,0,0,1,1.76,1c1.53,2.62-.68,11-3.48,11.71A48.71,48.71,0,0,1,1067.84,394.17Z"/><path class="cls-10" d="M35.14,586.28c1-3,2.57-5,2.18-7.37-.77-4.68,1.33-6.43,5.69-6.5,1.28,0,2.55-.68,3.83-.67,2,0,4.56-2.74,5.81,1S51.33,583.36,48.47,584C44.27,584.9,40,585.46,35.14,586.28Z"/><path class="cls-9" d="M1075,613.26c1-3.24,2.15-6.38,1.67-9.76-.28-2.07,1.21-2.39,2.63-2.68,2.55-.54,5.12-1,7.68-1.46,4.76-.9,5.39-.36,5.09,4.34-.38,5.84-2.21,8-7.93,8.82C1081.17,612.93,1078.26,614.24,1075,613.26Z"/><path class="cls-11" d="M344.41,417.9c-4.25,2.53-7.83,4.91-11.64,6.87-2.87,1.48-10.52-3.51-10.81-6.75a2.1,2.1,0,0,1,1.27-2.06c1.1-.68,2.22-1.33,3.35-2,2.26-1.27,4.41-3.13,6.84-3.63,3-.62,3.46,3.3,5.73,4.43C340.69,415.55,342.11,416.53,344.41,417.9Z"/><path class="cls-12" d="M17.05,136.61c-.15,6.64-2.12,9-7.94,10.14a8,8,0,0,1-.85.17c-2.55.34-5.81,1.78-7.5.72-2.3-1.43,1.4-4.08.83-6.44-1.29-5.37,2-6.55,6.24-7a28.5,28.5,0,0,0,4.65-.9C15.88,132.41,17.44,133.57,17.05,136.61Z"/><path class="cls-11" d="M181.6,255.27c-4.37,2.61-7.85,4.88-11.51,6.82-3,1.6-11.86-3.62-10.89-6.65,1.38-4.34,6.75-4.69,10.11-7.18,1-.75,2.26-1.53,3.3.14C174.49,251.44,177.44,253.22,181.6,255.27Z"/><path class="cls-11" d="M423.31,280.06c-3.92,2.34-7.3,4.51-10.82,6.43-3.32,1.81-11.19-2.6-11.64-6.35-.14-1.11.55-1.57,1.26-2,1.47-.91,3.09-1.61,4.47-2.62,4-3,7.66-4.49,11.15.93C418.71,278,421,278.63,423.31,280.06Z"/><path class="cls-13" d="M348.75,228.24c4.75-1.56,8.69-3,12.7-4.12,3.27-1,10.69,5.47,9.36,8.71-1.73,4.19-7.16,3.08-10.82,4.66-1.17.5-3,1.95-3.92-.62C354.85,233.3,352.35,230.77,348.75,228.24Z"/><path class="cls-14" d="M886.06,348.3a55.4,55.4,0,0,1-13.8-2.18c-2.65-.71-4.58-9.38-3.15-11.88.57-1,1.36-.95,2.2-.83,1.57.23,3.13.53,4.69.86,2.4.5,5.1.53,7.12,1.72,2.25,1.33.32,4.26,1,6.38C884.73,344,885.22,345.66,886.06,348.3Z"/><path class="cls-13" d="M521.7,350c4.87-1.6,8.79-3,12.78-4.16,3.42-1,11.24,6.38,9.38,9.05-2.6,3.75-8,3.05-12,4.7-1.24.51-2.21.53-2.72-1C527.94,355.1,525.53,352.5,521.7,350Z"/><path class="cls-13" d="M122.7,204.85c-8.46-8.93-8.77-12.32-2.11-20.14,2.77,2.77,6.46,5.73,6.74,9.19S123.64,200.43,122.7,204.85Z"/><path class="cls-9" d="M584.51,211.22c-2.42-3.27-4.42-5.72-6.12-8.37-1.45-2.24,1.12-9.81,3.55-11.32a1.22,1.22,0,0,1,1.84.28c1.87,2.39,3.7,4.8,5.54,7.21a2.06,2.06,0,0,1-.21,2.76C587.13,204.28,586,207.26,584.51,211.22Z"/><path class="cls-15" d="M791.7,621.84c1.47-1.62,2.64-3.06,4-4.35,1.51-1.45,1.6-4.67,4.07-4.59,3.1.09,6.2,1.09,9.26,1.84,1.68.42,1.17,1.56.64,2.71-2.56,5.6-6.26,7.49-12.32,6.1C795.52,623.14,793.57,623.2,791.7,621.84Z"/><path class="cls-9" d="M924.52,563.32c-2.13-2.9-4.12-5.36-5.83-8-1.5-2.32,1.37-10.69,3.8-11.59.13-.05.24-.18.37-.19,1.61-.14,7.7,8.82,6.71,10.15C927.5,556.48,926.5,559.81,924.52,563.32Z"/><path class="cls-9" d="M300.78,124.13c-2.37-3.19-4.36-5.64-6.07-8.28-1.45-2.23,1.56-10.79,3.89-11.54a1.17,1.17,0,0,1,.39-.12c1.89-.09,7.36,8.83,6.42,10.56-.75,1.39-1.71,2.67-2.42,4.08S301.78,121.71,300.78,124.13Z"/><path class="cls-9" d="M797.38,116.87c-2.22-3-4.13-5.32-5.81-7.82s.9-10.3,3.52-11.65c.32-.16,1-.31,1.1-.15,1.7,2,3.17,4.15,5,6,2.39,2.38,1.2,4.18-.27,6.38C799.57,111.62,798.75,114,797.38,116.87Z"/><path class="cls-9" d="M531,554.47c-2.44-3.28-4.63-5.92-6.47-8.79-1.21-1.88,1.88-9.74,4-10.79a1.79,1.79,0,0,1,.79-.3c2.17,0,7.21,9.1,6,10.89C533.5,548,532.47,550.81,531,554.47Z"/><path class="cls-8" d="M710.7,424.63c-.9-.27-2.44-.65-3.93-1.2-2.38-.88-2.74-2.35-1.08-4.3.38-.44.73-.9,1.07-1.37,4.11-5.53,6.68-6.18,12.73-3.31.58.28.93.52.92,1.23C720.39,418.07,713.72,424.72,710.7,424.63Z"/><path class="cls-16" d="M864.45,78c-2.14-2.87-4.23-5.42-6-8.16-1.68-2.53,1.18-9,4.09-9.71,1.1-.27,1.6.41,2.09,1.1,1.6,2.22,3.14,4.48,4.73,6.7.65.9,1,1.65,0,2.6a18.15,18.15,0,0,0-2.79,3.27A40.35,40.35,0,0,0,864.45,78Z"/><path class="cls-13" d="M991.61,524.45c-2.23-3-4.32-5.56-6.08-8.32-1.55-2.42,1.25-8.51,4.05-9.44,1.08-.36,1.64.21,2.15.91,1.68,2.34,3.32,4.71,5,7,.58.81.72,1.61-.12,2.26C994.24,518.73,993.12,521.4,991.61,524.45Z"/><path class="cls-16" d="M517.93,233.57c-2.41-3.23-4.61-5.88-6.46-8.75-1.44-2.22,1.85-8.66,4.48-9.32,1.16-.3,1.53.55,2,1.18,1.63,2.2,3.19,4.46,4.77,6.7.59.84,1.2,1.66,0,2.56C520.36,227.69,519.15,230.27,517.93,233.57Z"/><path class="cls-7" d="M621,55.76a8.59,8.59,0,0,1-4.57-1.2c-.6-.35-1.54-1-1.5-1.4.32-3.57,3.35-5.54,5.13-8.26,1.09-1.65,2.46-1.07,3.79-.29.25.14.59.19.77.39,1.43,1.55,5.39-.57,5.1,2.94S623.83,55.85,621,55.76Z"/><path class="cls-17" d="M634.47,536.19c-1.57,2.65-1,6.06-4.52,6.75-3.1.62-10.62-2.33-11.69-4.67s.9-4,1.88-5.81c1.21-2.19,2.12.12,2.92.64A19.37,19.37,0,0,0,634.47,536.19Z"/><path class="cls-18" d="M144.08,2.39c.8,3.1,4,4.83,2.14,8-1.67,2.82-8.59,6.65-11.1,5.87-2.94-.93-2.41-4.18-3.92-6.46A18.57,18.57,0,0,0,144.08,2.39Z"/><path class="cls-19" d="M694.06,482.38c-1.81-.44-3.12-2.14-4.22-3.71-1.4-2,1.2-2.11,2-2.94a23.46,23.46,0,0,0,4.51-5.78c.56-1.05.41-3.38,1.87-2.92a7,7,0,0,1,4.65,4.22C703.8,474.14,697.4,482.28,694.06,482.38Z"/><path class="cls-20" d="M719.92,69c-1.73,2.25-1,6.19-4.21,6.24a12.72,12.72,0,0,1-10.94-6c-1.85-2.84,1.41-4.74,2.19-7.77C710.31,66.05,714.64,68.09,719.92,69Z"/><path class="cls-18" d="M713.79,541.32c.9,2.89,3.94,4.77,2.22,7.45a13.32,13.32,0,0,1-10.94,6.15c-3,.12-2.78-3.29-3.56-5.22-.92-2.26,1.58-1.49,2.46-1.74C707.71,546.89,710.7,544.76,713.79,541.32Z"/><path class="cls-19" d="M509.45,411.78a16.88,16.88,0,0,1-8.49-3.35c-2.19-1.53-2.3-3-1-5.37,1.46-2.68,2.59-3.25,4.95-1,1.79,1.69,4.19,2.36,6.61,2.95,1.15.28,3.66-.52,3.21,1.6s-.83,4.71-3.76,5.17A8.63,8.63,0,0,1,509.45,411.78Z"/><path class="cls-19" d="M510,41.93a15.15,15.15,0,0,1-10-4.25c-2.89-2.66.28-4.39,1.21-6.26,1.2-2.42,2.33-.06,3.27.58a22.23,22.23,0,0,0,7,3.15c1.12.29,4-.81,3.12,2C514,39.2,513.6,42.22,510,41.93Z"/><path class="cls-19" d="M287.36,285.21c2.06,2.21,5.93,2.71,4.88,6.59-1.14,4.23-3.67,7.78-7.87,9.24-2.3.8-3.67-2-4.95-3.54s.95-2,1.78-2.64C284.25,292.41,286.06,289.19,287.36,285.21Z"/><path class="cls-19" d="M156.2,435.66c3.77-2.61,6.8-5.45,8.14-9.65.29-.9.84-1.87,1.78-1.07,1.66,1.4,4.67,2.19,4,5a13.18,13.18,0,0,1-7.42,9.66C159.29,441.14,158.64,437,156.2,435.66Z"/><path class="cls-21" d="M429,518.89c7.74,8.74,8.45,11.53,4.65,18.11C427.73,532.22,424.9,526.49,429,518.89Z"/><path class="cls-22" d="M433.83,167.28c-6.05-5-8.83-10.76-4.95-18.06C436.38,155.87,437.42,159.49,433.83,167.28Z"/><path class="cls-21" d="M686.2,200.86c-6.12-5-8.85-10.68-5-17.83C689,190.64,689.88,192.6,686.2,200.86Z"/><path class="cls-22" d="M965.05,15.51c-10.64-1.07-10.64-1.07-16.15-10C959.24,5.5,963.09,7.83,965.05,15.51Z"/><path class="cls-23" d="M955.56,199c10.92-.1,13.69,1.56,16.52,9.82-3.71-.57-7.27-.7-10.54-1.73C957.91,205.91,958.82,200.93,955.56,199Z"/><path class="cls-22" d="M203.58,106.88c-5.58-5.2-9.35-10.62-4.7-17.78C205.83,95.76,207.44,98.62,203.58,106.88Z"/><path class="cls-24" d="M410,44.42c-7.47-6.86-8.33-9.9-5-17C412.36,34.46,412.68,35.5,410,44.42Z"/><path class="cls-25" d="M409.84,414.05c-7.17-6.27-8.11-9.53-4.79-17.09C409.3,402,414.56,406.4,409.84,414.05Z"/><path class="cls-25" d="M98.9,360.76c-2.38-.43-2.54-2.76-3.47-4.35-1.15-2,.76-2,1.83-2.44,1.72-.7,3.47-1.34,5.23-2,3.67-1.34,5.39-.33,6.36,3.5.21.84.22,1.44-.54,1.73C105.24,358.42,102.15,359.55,98.9,360.76Z"/><path class="cls-26" d="M317.2,177.78c-.09-1.11.79-1.19,1.39-1.43,2.56-1,5.11-2,7.73-2.87,3.59-1.13,3.42,2.34,4.42,4.05,1.37,2.33-1.27,2-2.26,2.51a44.69,44.69,0,0,1-5.7,2.12C320.29,183,317,180.32,317.2,177.78Z"/><path class="cls-26" d="M643.16,607.31c.28-4.5.78-4.82,5.21-3.47a27.13,27.13,0,0,0,4.15,1.19c4.13.55,3.06,3.35,2.6,5.81-.66,3.5-2.85,1.25-4.34,1-2-.38-3.85-1.19-5.79-1.73C643.5,609.65,642.75,608.84,643.16,607.31Z"/><path class="cls-26" d="M561.16,608.11c.09,1.41-.79,1.66-1.6,2-2.43.9-4.91,1.71-7.3,2.7-1.74.72-2.52.06-3.39-1.43-1.52-2.61-2.35-4.65,1.74-5.47a41.28,41.28,0,0,0,4.88-1.75A4.43,4.43,0,0,1,561.16,608.11Z"/><path class="cls-27" d="M831.17,538.5c-2-2.46-4-5-6-7.36-1.3-1.5-1.09-2.53.16-4.08,2.22-2.73,3.94-2.91,5.77.23A15.49,15.49,0,0,0,832.4,529C836.42,534,836.42,534,831.17,538.5Z"/><path class="cls-26" d="M641.71,398.39c.16.74-.36,1-.9,1.18-3,1.1-5.84,2.55-8.89,3.2s-2.87-2.63-3.85-4.28c-1.21-2,1.1-1.87,2-2.3a55.1,55.1,0,0,1,5.64-2.08A4.66,4.66,0,0,1,641.71,398.39Z"/><path class="cls-26" d="M252.2,481.86a4.42,4.42,0,0,1-5.78,4.1,22.85,22.85,0,0,1-4.43-1.67c-1.27-.76-4.5,0-3.14-3.19,1-2.4,1.85-5.49,5.78-3.28a44.29,44.29,0,0,0,6,2.34C251.44,480.46,252.41,480.64,252.2,481.86Z"/><path class="cls-16" d="M73.75,68.06c-.18-3.38,1-4.73,4.57-3.12a31.32,31.32,0,0,0,5.33,1.64c1.82.47,2.58,1.38,2.29,3.38-.44,3-1.08,5-4.76,3.21a26,26,0,0,0-5.32-1.7C74,71,73,70.18,73.75,68.06Z"/><path class="cls-26" d="M1029.11,443.22l-9-3.35c-1.49-.57-1-1.63-.37-2.4,1.13-1.37.79-4.51,3.83-3.66,2.49.69,4.9,1.73,7.32,2.67,1.16.44,2.91.74,1.84,2.56C1031.85,440.6,1031.87,443.17,1029.11,443.22Z"/><path class="cls-17" d="M41,428.49c-.89-1.6-1.18-2.28-1.61-2.86-1.46-2-2.91-4-4.48-5.87-1.23-1.49-1.21-2.54.18-4.06,2.21-2.42,3.87-3.12,5.78.24a46.87,46.87,0,0,0,3.62,4.87c.63.83,1.22,1.64.37,2.7C43.8,424.86,42.75,426.24,41,428.49Z"/><path class="cls-26" d="M1033.88,168.57a4.51,4.51,0,0,1,6.07-4.06,31.79,31.79,0,0,1,4.42,1.7c1.34.72,4.42.23,2.84,3.39-1.06,2.12-1.71,4.87-5.24,3.13-2.06-1-4.33-1.57-6.47-2.42C1034.78,170,1033.73,169.88,1033.88,168.57Z"/><path class="cls-19" d="M900.13,50.36c-.65-.82-1.64-2.22-2.78-3.48a1.72,1.72,0,0,1,0-2.61c1.46-1.78,2.82-3.64,4.35-5.35.79-.87,1.32-2.9,2.77-2.06a14.38,14.38,0,0,1,3.77,4C908.72,41.47,902,50.2,900.13,50.36Z"/><path class="cls-27" d="M908.29,244.29c-2-2.13-3.35-3.41-4.51-4.86-.88-1.09.3-1.83.85-2.56a28.14,28.14,0,0,1,3.55-4.33c1.1-1,1.47-4.22,4.05-1.92,2,1.77,4.51,3.53,1.22,6.51a35.56,35.56,0,0,0-4.1,5A12.79,12.79,0,0,0,908.29,244.29Z"/><path class="cls-26" d="M144.18,522.46c3.35,1.23,6.51,2.31,9.59,3.56,1.42.58.76,1.79.14,2.52-1.06,1.27-.71,4.25-3.5,3.5s-5.74-2-8.6-3a1.41,1.41,0,0,1-.8-2.38C142,525.19,142.12,523,144.18,522.46Z"/><path class="cls-27" d="M785.84,376.69c-2.26,2.83-4.33,6.05-7.08,8.52-1.08,1-2.3-1.65-3.53-2.54a1.92,1.92,0,0,1-.49-3c1.76-2.3,3.5-4.61,5.25-6.92.56-.74,1.23-1.42,2.1-.55C783.39,373.51,785.08,374.49,785.84,376.69Z"/></g><g class="cls-1"><path class="cls-2" d="M1200.13,9.45c-.16,3.8-2.36,4.74-5.68,4-3-.66-6-1.35-8-4Z"/><path class="cls-3" d="M1289.27,626.62c.27-1.6,1-3.4,2.57-3.37s2.39,1.71,2.58,3.37Z"/><path class="cls-4" d="M1357.44,169.4c4.25,8,10.29,13.08,18.8,15.25-1.79,3-4.18,5.25-6.29,7.71-1.14,1.34-2.28,1.22-3.79.77a27.13,27.13,0,0,1-15.49-12c-1.3-2-1.2-3.48.59-5.15C1353.33,174.06,1355.16,171.86,1357.44,169.4Z"/><path class="cls-4" d="M2147.08,535.89c3.46,7,8.59,12.06,16.06,14.51,1.69.56,2.06,1.33.8,2.69a7.13,7.13,0,0,0-.7,1.08c-5.14,7.84-6.53,8.1-14.23,2.71-.46-.33-.92-.68-1.36-1C2138.49,548.57,2138.33,544,2147.08,535.89Z"/><path class="cls-4" d="M1202.71,262.42c-.57.82-.94,1.4-1.36,1.93-6.44,8.14-9,8.46-17.29,2.14-.68-.51-1.33-1.06-2-1.63-7.25-6.62-7.16-9.73.42-15.91.92-.76,1.61-1.68,2.55,0C1188.89,256,1195,260.14,1202.71,262.42Z"/><path class="cls-4" d="M1744.69,109c1.2,1.42,2,2.38,2.84,3.36,5.29,6.46,5.23,7.93-.57,14.19-.29.31-.59.62-.89.92-9.08,9-12.93,8.49-19.38-2.87A28.1,28.1,0,0,0,1744.69,109Z"/><path class="cls-5" d="M1377.77,578.31c3.78,7.45,9,12.57,16.57,15,1.22.4,1.55,1.11.76,2.23-1.54,2.22-3.08,4.44-4.56,6.7-1,1.5-2.28,1.42-3.74.9a26.65,26.65,0,0,1-15.39-13.33c-.64-1.25-.86-2.31.11-3.51C1373.56,583.79,1375.51,581.21,1377.77,578.31Z"/><path class="cls-5" d="M1577,608.58c1,1.3,1.72,2.19,2.44,3.06,5.68,6.87,6.82,7.09,14.34,2.35a29.26,29.26,0,0,0,5-4c6.37-6.37,5.82-10.44-1.8-15.32-1.27-.82-1.68-.39-2.25.62C1590.82,602.1,1585,606.29,1577,608.58Z"/><path class="cls-5" d="M2161.43,270c3.44,7,8.53,12,15.73,14.51,1.85.65,2.36,1.37,1.05,2.95a2.21,2.21,0,0,0-.23.36c-5,8.36-7,8.74-15,2.94C2152.86,283.44,2152.46,279.23,2161.43,270Z"/><path class="cls-5" d="M1901,273.66c4,7.29,9.4,12.28,17.07,14.5,1.88.55,1.17,1.54.35,2.48-1.69,1.92-3.43,3.8-5.07,5.76-1.13,1.34-2.43,1.2-3.86.74a27,27,0,0,1-15.63-12.46c-.89-1.53-1.06-2.74.39-4.1C1896.45,278.45,1898.53,276.15,1901,273.66Z"/><path class="cls-6" d="M1409.71,35.55c.42,4.25,1.1,7.68,3.14,10.69.83,1.22,0,2.18-.93,2.93-3.36,2.87-6.75,5.69-10.12,8.54-.86.72-1.57,1-2.57,0-3.58-3.35-3.6-10,.09-13.24C1402.6,41.66,1405.91,38.83,1409.71,35.55Z"/><path class="cls-7" d="M1899.32,29.29c0,3.64.64,6.82,2.64,9.59,1,1.36.38,2.3-.76,3.25-3.27,2.75-6.5,5.56-9.72,8.38-1.06.93-1.93,1.53-3.22.16a9.81,9.81,0,0,1,.83-13.67c3-2.45,5.9-4.94,8.87-7.39C1898.14,29.46,1898.48,29.48,1899.32,29.29Z"/><path class="cls-6" d="M2082.5,375c1.07,3.9,1.52,7.31,3.61,10.12,1.07,1.45,0,2.39-1,3.22-3.25,2.75-6.53,5.45-9.79,8.18-1,.81-1.82,1.18-3,.13-3.42-3.18-3.3-10.1.29-13.17Z"/><path class="cls-7" d="M1766.88,284c-1-.81-1.91-1.64-2.89-2.44s-1.79-1.39-2.66-2.11c-7.13-5.92-7.63-8.19-3.77-16.37.69-1.48,1.46-1,2.29-.34,3.36,2.83,6.86,5.52,10,8.59,2.46,2.4,1.16,10.31-1.68,12.13A11,11,0,0,1,1766.88,284Z"/><path class="cls-7" d="M1970.09,178.28c3.56,3,7.2,6,10.66,9.15,2.54,2.32,1.45,10.6-1.44,12.38a1.59,1.59,0,0,1-2,0c-.67-.52-1.32-1.08-2-1.64-3.1-2.7-7.44-4.84-9-8.25s3.17-7.18,2.51-11.57Z"/><path class="cls-6" d="M2201.75,73.22c.91,3.91,1.27,7,3.11,9.71,1.18,1.69.31,2.95-1,4-3,2.57-6.1,5.11-9.17,7.65-.75.61-1.46,1.36-2.63.76-2.73-1.4-4.27-9.76-1.94-12C2193.7,80,2197.53,76.89,2201.75,73.22Z"/><path class="cls-8" d="M1992.76,436.67c-3.76-.44-7.59-.9-11.42-1.33-2.38-.28-3.13-1.53-2.57-3.86a8.93,8.93,0,0,1,9.23-7.15c3.41.22,6.81.69,10.2,1.15,2,.27,3.57.82,1.35,3.08a14.38,14.38,0,0,0-3.22,6C1995.78,436.32,1994.75,437.23,1992.76,436.67Z"/><path class="cls-9" d="M2189.45,397.67c1.21-3.48,2.22-6.6,1.85-9.95-.1-.85-.09-1.9,1-2.12,4-.86,8.09-1.63,12.15-2.38a1.66,1.66,0,0,1,1.73,1c1.51,2.58-.66,10.85-3.43,11.54C2198.49,396.79,2194.19,397.82,2189.45,397.67Z"/><path class="cls-10" d="M1172.32,586.89c1-2.95,2.52-5,2.15-7.26-.77-4.61,1.3-6.33,5.6-6.4,1.26,0,2.51-.67,3.77-.67,1.94,0,4.49-2.69,5.72.94s-1.3,10.51-4.11,11.13C1181.31,585.53,1177.1,586.08,1172.32,586.89Z"/><path class="cls-9" d="M2196.48,613.46c1-3.19,2.11-6.29,1.65-9.61-.28-2,1.18-2.35,2.59-2.65,2.51-.52,5-1,7.56-1.43,4.68-.89,5.31-.35,5,4.28-.37,5.75-2.17,7.9-7.81,8.68C2202.58,613.14,2199.71,614.43,2196.48,613.46Z"/><path class="cls-11" d="M1476.92,421.05c-4.18,2.49-7.71,4.83-11.46,6.76-2.82,1.46-10.36-3.45-10.65-6.64a2.09,2.09,0,0,1,1.25-2c1.09-.68,2.19-1.32,3.31-1.94,2.22-1.26,4.34-3.08,6.73-3.58,2.93-.61,3.41,3.25,5.64,4.36C1473.26,418.73,1474.66,419.69,1476.92,421.05Z"/><path class="cls-12" d="M1154.51,144c-.16,6.54-2.1,8.89-7.83,10-.28,0-.55.13-.83.17-2.52.33-5.73,1.75-7.4.71-2.25-1.42,1.39-4,.83-6.35-1.28-5.29,1.93-6.45,6.14-6.86a26.66,26.66,0,0,0,4.58-.89C1153.35,139.86,1154.88,141,1154.51,144Z"/><path class="cls-11" d="M1316.57,260.86c-4.3,2.58-7.73,4.82-11.34,6.73-3,1.57-11.68-3.57-10.73-6.55,1.37-4.28,6.65-4.62,10-7.08,1-.73,2.23-1.5,3.25.14C1309.57,257.1,1312.47,258.85,1316.57,260.86Z"/><path class="cls-11" d="M1554.63,285.29c-3.85,2.3-7.19,4.44-10.66,6.33-3.27,1.78-11-2.57-11.46-6.25-.13-1.1.54-1.55,1.25-2,1.45-.89,3-1.58,4.39-2.58,4-2.93,7.56-4.42,11,.92C1550.11,283.22,1552.38,283.88,1554.63,285.29Z"/><path class="cls-13" d="M1481.2,234.24c4.67-1.53,8.55-2.91,12.5-4.05,3.22-.93,10.54,5.39,9.23,8.58-1.7,4.13-7,3-10.66,4.58-1.16.5-3,1.93-3.86-.6C1487.21,239.23,1484.74,236.73,1481.2,234.24Z"/><path class="cls-14" d="M2010.41,352.49a54.34,54.34,0,0,1-13.6-2.14c-2.6-.7-4.51-9.24-3.1-11.7a1.8,1.8,0,0,1,2.17-.82c1.55.23,3.09.52,4.62.85,2.37.49,5,.52,7,1.69,2.22,1.32.32,4.2,1,6.28C2009.1,348.26,2009.58,349.9,2010.41,352.49Z"/><path class="cls-13" d="M1651.55,354.2c4.79-1.58,8.65-3,12.58-4.1,3.37-1,11.07,6.29,9.24,8.91-2.57,3.7-7.86,3-11.82,4.64-1.22.5-2.18.51-2.68-1C1657.69,359.19,1655.31,356.63,1651.55,354.2Z"/><path class="cls-13" d="M1258.56,211.21c-8.34-8.79-8.64-12.13-2.08-19.84,2.73,2.74,6.36,5.65,6.64,9.06S1259.49,206.85,1258.56,211.21Z"/><path class="cls-9" d="M1713.4,217.49c-2.38-3.23-4.35-5.64-6-8.25-1.42-2.2,1.11-9.66,3.51-11.15a1.19,1.19,0,0,1,1.81.28c1.83,2.35,3.64,4.72,5.46,7.1a2,2,0,0,1-.22,2.71C1716,210.65,1714.91,213.58,1713.4,217.49Z"/><path class="cls-15" d="M1917.47,621.91c1.44-1.59,2.61-3,3.92-4.28,1.48-1.43,1.56-4.6,4-4.53,3,.1,6.1,1.08,9.12,1.82,1.65.41,1.15,1.53.63,2.67-2.52,5.51-6.16,7.37-12.14,6C1921.23,623.19,1919.31,623.25,1917.47,621.91Z"/><path class="cls-9" d="M2048.29,564.28c-2.1-2.86-4.06-5.28-5.74-7.88-1.48-2.29,1.35-10.54,3.73-11.42.13-.05.24-.18.37-.19,1.59-.14,7.59,8.69,6.62,10C2051.23,557.54,2050.24,560.82,2048.29,564.28Z"/><path class="cls-9" d="M1434,131.71c-2.33-3.15-4.29-5.56-6-8.16-1.43-2.2,1.54-10.62,3.83-11.37a1.94,1.94,0,0,1,.39-.12c1.87-.08,7.24,8.7,6.32,10.4-.74,1.38-1.68,2.64-2.38,4S1434.93,129.32,1434,131.71Z"/><path class="cls-9" d="M1923.06,124.55c-2.18-2.92-4.06-5.23-5.72-7.7-1.55-2.32.89-10.14,3.47-11.47.32-.16,1-.31,1.09-.15,1.66,1.94,3.11,4.09,4.92,5.89,2.35,2.35,1.18,4.12-.27,6.29C1925.23,119.39,1924.42,121.71,1923.06,124.55Z"/><path class="cls-9" d="M1660.72,555.56c-2.41-3.23-4.57-5.83-6.38-8.66-1.2-1.85,1.85-9.59,3.91-10.63a2.05,2.05,0,0,1,.77-.3c2.14,0,7.1,9,5.87,10.73C1663.16,549.17,1662.15,552,1660.72,555.56Z"/><path class="cls-8" d="M1837.69,427.68c-.88-.27-2.4-.65-3.87-1.19-2.34-.86-2.7-2.31-1.06-4.23.37-.43.71-.89,1-1.35,4-5.44,6.58-6.09,12.54-3.26.57.28.91.51.91,1.21C1847.24,421.21,1840.67,427.76,1837.69,427.68Z"/><path class="cls-16" d="M1528.74,594c-2.11,2.82-4,5.51-6,8-1.93,2.29-8.83,1.38-10.31-1.17-.56-1-.06-1.63.45-2.28,1.66-2.13,3.37-4.21,5-6.34.68-.86,1.29-1.38,2.47-.69a17.78,17.78,0,0,0,3.86,1.72A38.17,38.17,0,0,0,1528.74,594Z"/><path class="cls-13" d="M2114.36,526c-2.19-3-4.25-5.47-6-8.19-1.53-2.39,1.23-8.39,4-9.3,1.06-.35,1.61.2,2.11.89,1.66,2.31,3.27,4.64,4.92,7,.57.8.71,1.58-.12,2.23C2117,520.35,2115.85,523,2114.36,526Z"/><path class="cls-16" d="M1647.83,239.49c-2.37-3.17-4.54-5.78-6.37-8.61-1.41-2.19,1.83-8.53,4.41-9.19,1.15-.29,1.52.55,2,1.17,1.61,2.17,3.14,4.39,4.7,6.6.58.83,1.18,1.63,0,2.52C1650.23,233.71,1649,236.25,1647.83,239.49Z"/><path class="cls-7" d="M1749.33,64.37a8.55,8.55,0,0,1-4.51-1.18c-.58-.35-1.52-1-1.48-1.39.32-3.51,3.3-5.45,5.06-8.13,1.07-1.63,2.42-1.05,3.73-.29.25.14.59.19.76.39,1.41,1.53,5.31-.56,5,2.89S1752.14,64.46,1749.33,64.37Z"/><path class="cls-17" d="M1762.61,537.56c-1.54,2.6-1,6-4.45,6.65-3.06.61-10.46-2.3-11.51-4.6s.88-4,1.85-5.73c1.19-2.16,2.09.11,2.87.63A19.14,19.14,0,0,0,1762.61,537.56Z"/><path class="cls-18" d="M1279.62,11.81c.78,3,3.94,4.75,2.11,7.85-1.65,2.78-8.46,6.55-10.94,5.78-2.9-.91-2.37-4.12-3.86-6.36A18.32,18.32,0,0,0,1279.62,11.81Z"/><path class="cls-19" d="M1821.3,484.56c-1.78-.44-3.07-2.12-4.15-3.66-1.38-2,1.18-2.08,2-2.89a23.21,23.21,0,0,0,4.44-5.7c.55-1,.41-3.33,1.84-2.88a6.88,6.88,0,0,1,4.58,4.17C1830.9,476.44,1824.59,484.46,1821.3,484.56Z"/><path class="cls-20" d="M1846.77,77.41c-1.7,2.22-1,6.11-4.14,6.16a12.52,12.52,0,0,1-10.77-5.89C1830,74.88,1833.24,73,1834,70,1837.31,74.5,1841.57,76.51,1846.77,77.41Z"/><path class="cls-18" d="M1840.74,542.6c.88,2.86,3.88,4.71,2.18,7.35a13.11,13.11,0,0,1-10.77,6c-3,.12-2.74-3.24-3.51-5.14-.91-2.22,1.55-1.47,2.42-1.72C1834.75,548.09,1837.69,546,1840.74,542.6Z"/><path class="cls-19" d="M1639.48,415a16.68,16.68,0,0,1-8.37-3.3c-2.15-1.51-2.26-3-1-5.29,1.44-2.63,2.55-3.2,4.88-1,1.76,1.66,4.13,2.32,6.51,2.9,1.13.28,3.6-.51,3.16,1.57s-.82,4.65-3.7,5.1A8.4,8.4,0,0,1,1639.48,415Z"/><path class="cls-19" d="M1640.06,50.74a14.87,14.87,0,0,1-9.89-4.18c-2.85-2.62.28-4.33,1.19-6.17,1.19-2.38,2.29,0,3.22.58a22,22,0,0,0,6.92,3.1c1.1.28,3.89-.8,3.06,1.93C1643.94,48.06,1643.56,51,1640.06,50.74Z"/><path class="cls-19" d="M1420.74,290.36c2,2.17,5.84,2.66,4.8,6.49-1.12,4.16-3.61,7.66-7.75,9.1-2.27.79-3.62-1.95-4.87-3.48s.93-2,1.75-2.61C1417.67,297.45,1419.45,294.27,1420.74,290.36Z"/><path class="cls-19" d="M1291.55,438.54c3.71-2.57,6.7-5.37,8-9.5.28-.89.82-1.85,1.75-1.06,1.63,1.38,4.6,2.16,4,4.94a13,13,0,0,1-7.31,9.52C1294.6,443.93,1294,439.86,1291.55,438.54Z"/><path class="cls-21" d="M1560.27,520.51c7.64,8.61,8.33,11.36,4.59,17.84C1559,533.64,1556.2,528,1560.27,520.51Z"/><path class="cls-22" d="M1565,174.21c-6-5-8.7-10.6-4.87-17.79C1567.51,163,1568.53,166.54,1565,174.21Z"/><path class="cls-21" d="M1813.57,207.28c-6-4.94-8.72-10.52-4.89-17.56C1816.33,197.21,1817.19,199.14,1813.57,207.28Z"/><path class="cls-22" d="M1436.76,534.25c1.94,10.35,1.94,10.35-5,18C1428.91,542.52,1430,538.23,1436.76,534.25Z"/><path class="cls-23" d="M2078.86,205.42c10.75-.1,13.49,1.54,16.27,9.67-3.65-.56-7.16-.69-10.38-1.71C2081.18,212.25,2082.07,207.35,2078.86,205.42Z"/><path class="cls-22" d="M1338.22,114.71c-5.5-5.11-9.21-10.45-4.63-17.5C1340.44,103.77,1342,106.58,1338.22,114.71Z"/><path class="cls-24" d="M1541.55,53.2c-7.37-6.76-8.21-9.75-5-16.8C1543.85,43.39,1544.17,44.42,1541.55,53.2Z"/><path class="cls-25" d="M1541.37,417.26c-7.06-6.18-8-9.39-4.72-16.83C1540.83,405.35,1546,409.72,1541.37,417.26Z"/><path class="cls-25" d="M1235.12,364.77c-2.34-.42-2.5-2.72-3.42-4.28-1.13-1.95.74-2,1.8-2.41,1.7-.69,3.42-1.32,5.15-1.95,3.62-1.32,5.31-.33,6.27,3.45.21.82.22,1.41-.53,1.71C1241.36,362.47,1238.31,363.58,1235.12,364.77Z"/><path class="cls-26" d="M1450.12,184.55c-.09-1.1.78-1.18,1.37-1.41,2.53-1,5-2,7.62-2.83,3.54-1.11,3.37,2.31,4.35,4,1.35,2.29-1.25,2-2.23,2.47a43.73,43.73,0,0,1-5.6,2.09C1453.17,189.69,1449.91,187,1450.12,184.55Z"/><path class="cls-26" d="M1771.17,607.6c.28-4.43.76-4.75,5.14-3.41a25.87,25.87,0,0,0,4.08,1.16c4.07.54,3,3.3,2.56,5.73-.65,3.45-2.81,1.23-4.27.94-1.94-.38-3.79-1.17-5.7-1.7C1771.5,609.9,1770.77,609.1,1771.17,607.6Z"/><path class="cls-26" d="M1690.41,608.39c.08,1.38-.78,1.64-1.58,1.93-2.4.89-4.83,1.69-7.19,2.66-1.71.71-2.48.06-3.34-1.41-1.5-2.57-2.31-4.58,1.71-5.39a37.92,37.92,0,0,0,4.81-1.73A4.38,4.38,0,0,1,1690.41,608.39Z"/><path class="cls-27" d="M1956.34,539.83c-2-2.42-3.9-4.89-5.94-7.25-1.28-1.48-1.08-2.5.16-4,2.18-2.69,3.88-2.88,5.68.22a13.17,13.17,0,0,0,1.32,1.68C1961.52,535.36,1961.52,535.36,1956.34,539.83Z"/><path class="cls-26" d="M1769.74,401.83c.16.73-.35,1-.89,1.17-2.91,1.08-5.74,2.51-8.75,3.14s-2.83-2.59-3.79-4.21c-1.19-2,1.08-1.84,2-2.26a54.29,54.29,0,0,1,5.55-2.06A4.59,4.59,0,0,1,1769.74,401.83Z"/><path class="cls-26" d="M1386.1,484a4.35,4.35,0,0,1-5.69,4,22.4,22.4,0,0,1-4.36-1.65c-1.26-.74-4.43,0-3.1-3.13,1-2.37,1.83-5.42,5.7-3.23a43.75,43.75,0,0,0,5.94,2.3C1385.36,482.67,1386.31,482.84,1386.1,484Z"/><path class="cls-16" d="M1210.35,76.48c-.18-3.33,1-4.66,4.49-3.07A32.37,32.37,0,0,0,1220.1,75c1.79.45,2.54,1.36,2.25,3.32-.43,2.91-1.06,5-4.69,3.16a25.73,25.73,0,0,0-5.23-1.67C1210.6,79.4,1209.61,78.57,1210.35,76.48Z"/><path class="cls-26" d="M2151.3,446c-3-1.1-5.9-2.19-8.82-3.3-1.47-.55-1-1.6-.37-2.36,1.12-1.35.78-4.44,3.77-3.6,2.46.68,4.83,1.7,7.21,2.62,1.14.44,2.87.74,1.82,2.53C2154,443.41,2154,445.94,2151.3,446Z"/><path class="cls-17" d="M1178.11,431.47c-.87-1.56-1.16-2.24-1.58-2.81-1.44-2-2.87-3.92-4.42-5.79-1.21-1.46-1.19-2.49.18-4,2.17-2.38,3.81-3.07,5.69.23a46.73,46.73,0,0,0,3.57,4.81c.62.81,1.2,1.61.36,2.65C1180.84,427.9,1179.82,429.26,1178.11,431.47Z"/><path class="cls-26" d="M2156,175.48a4.45,4.45,0,0,1,6-4,30.9,30.9,0,0,1,4.36,1.67c1.32.71,4.35.22,2.79,3.34-1,2.09-1.68,4.79-5.16,3.08-2-1-4.26-1.54-6.36-2.38C2156.89,176.91,2155.85,176.77,2156,175.48Z"/><path class="cls-19" d="M1492.7,567.94c-.6.84-1.65,2.16-2.52,3.59a1.69,1.69,0,0,1-2.48.68c-2.09-.88-4.22-1.66-6.26-2.63-1-.5-3.11-.44-2.71-2.05a14,14,0,0,1,2.75-4.67C1481.92,562.28,1492,566.27,1492.7,567.94Z"/><path class="cls-27" d="M2032.3,250.06c-2-2.1-3.3-3.37-4.44-4.79-.87-1.08.29-1.8.83-2.53a28.31,28.31,0,0,1,3.51-4.26c1.08-1,1.44-4.16,4-1.89,2,1.74,4.43,3.48,1.2,6.41a35.62,35.62,0,0,0-4,4.92A12.55,12.55,0,0,0,2032.3,250.06Z"/><path class="cls-26" d="M1279.71,524c3.3,1.22,6.41,2.27,9.45,3.51,1.4.57.74,1.76.14,2.47-1,1.26-.71,4.2-3.45,3.46s-5.65-2-8.47-3a1.39,1.39,0,0,1-.79-2.34C1277.57,526.72,1277.69,524.56,1279.71,524Z"/><path class="cls-27" d="M1911.7,380.46c-2.23,2.79-4.27,6-7,8.39-1,.95-2.26-1.62-3.47-2.51a1.87,1.87,0,0,1-.48-2.94c1.73-2.27,3.45-4.55,5.17-6.82.55-.73,1.21-1.4,2.06-.54C1909.28,377.32,1911,378.3,1911.7,380.46Z"/></g></g></g></svg>