<svg xmlns="http://www.w3.org/2000/svg" viewBox="0 0 1075.64 617.17"><defs><style>.cls-1{opacity:0.6;}.cls-2{fill:#e56414;}.cls-3{fill:#d96ca4;}.cls-4{fill:#ea6611;}.cls-5{fill:#eb6611;}.cls-6{fill:#4c4196;}.cls-7{fill:#4b4196;}.cls-8{fill:#4b4096;}.cls-9{fill:#0e9fab;}.cls-10{fill:#e7dc71;}.cls-11{fill:#0ea0ab;}.cls-12{fill:#e7dc70;}.cls-13{fill:#e06fa7;}.cls-14{fill:#ea6612;}.cls-15{fill:#0e9faa;}.cls-16{fill:#df6fa7;}.cls-17{fill:#e86512;}.cls-18{fill:#e6db70;}.cls-19{fill:#e96612;}.cls-20{fill:#e5db70;}.cls-21{fill:#e4d970;}.cls-22{fill:#e5da70;}.cls-23{fill:#e5da71;}.cls-24{fill:#df6fa6;}.cls-25{fill:#dd6ea6;}.cls-26{fill:#de6ea6;}.cls-27{fill:#e86612;}</style></defs><title>Asset 11</title><g id="Layer_2" data-name="Layer 2"><g id="圖層_5" data-name="圖層 5"><g class="cls-1"><path class="cls-2" d="M62.42,0c-.15,3.8-2.36,4.74-5.68,4-3-.66-6-1.35-8-4Z"/><path class="cls-3" d="M151.57,617.17c.26-1.6,1-3.4,2.56-3.37s2.39,1.71,2.58,3.37Z"/><path class="cls-4" d="M219.74,160C224,168,230,173,238.53,175.2c-1.79,3-4.18,5.25-6.29,7.72-1.14,1.33-2.28,1.22-3.78.76a27.12,27.12,0,0,1-15.5-12c-1.3-2-1.2-3.48.59-5.15C215.63,164.61,217.45,162.41,219.74,160Z"/><path class="cls-4" d="M1009.37,526.45c3.46,6.94,8.6,12,16.06,14.51,1.69.55,2.06,1.32.8,2.69a7.31,7.31,0,0,0-.7,1.07c-5.14,7.84-6.52,8.11-14.23,2.71-.46-.33-.91-.68-1.36-1C1000.78,539.12,1000.62,534.59,1009.37,526.45Z"/><path class="cls-4" d="M65,253c-.57.81-.93,1.39-1.36,1.92-6.43,8.15-9,8.46-17.28,2.15-.68-.52-1.34-1.07-2-1.64-7.25-6.61-7.16-9.73.42-15.91.93-.76,1.61-1.68,2.55,0C51.18,246.53,57.26,250.69,65,253Z"/><path class="cls-4" d="M607,99.59c1.2,1.42,2,2.38,2.85,3.36,5.28,6.46,5.22,7.93-.58,14.19-.29.31-.59.62-.89.92-9.08,9-12.92,8.49-19.38-2.86A28.09,28.09,0,0,0,607,99.59Z"/><path class="cls-5" d="M240.07,568.86c3.77,7.45,9,12.57,16.56,15,1.22.39,1.55,1.1.77,2.23-1.55,2.21-3.08,4.43-4.57,6.69-1,1.5-2.28,1.43-3.74.91a26.69,26.69,0,0,1-15.38-13.34c-.65-1.25-.87-2.31.11-3.51C235.85,574.34,237.81,571.76,240.07,568.86Z"/><path class="cls-5" d="M439.24,599.13c1,1.3,1.72,2.2,2.44,3.06,5.68,6.87,6.82,7.09,14.34,2.35a29.33,29.33,0,0,0,5-4c6.36-6.37,5.81-10.44-1.81-15.32-1.27-.81-1.68-.39-2.25.62C453.11,592.65,447.25,596.84,439.24,599.13Z"/><path class="cls-5" d="M1023.72,260.53c3.44,7.05,8.53,12,15.73,14.51,1.85.65,2.37,1.37,1,2.95a2.74,2.74,0,0,0-.23.36c-5,8.36-7,8.74-15,2.94C1015.15,274,1014.75,269.78,1023.72,260.53Z"/><path class="cls-5" d="M763.24,264.21c4,7.29,9.41,12.28,17.07,14.5,1.89.55,1.17,1.54.35,2.48-1.68,1.93-3.43,3.8-5.07,5.76-1.13,1.34-2.42,1.2-3.86.74a27,27,0,0,1-15.62-12.46c-.9-1.53-1.06-2.74.38-4.1C758.74,269,760.82,266.71,763.24,264.21Z"/><path class="cls-6" d="M272,26.11c.43,4.24,1.1,7.67,3.15,10.68.83,1.22,0,2.18-.93,2.94-3.36,2.86-6.76,5.68-10.13,8.53-.85.72-1.56,1-2.57.06-3.58-3.36-3.59-10,.09-13.25C264.9,32.21,268.21,29.38,272,26.11Z"/><path class="cls-7" d="M761.61,19.85c0,3.63.65,6.82,2.65,9.58,1,1.36.37,2.3-.77,3.26-3.27,2.74-6.5,5.55-9.71,8.37-1.07.94-1.94,1.53-3.23.17-3.47-3.69-3.11-10.43.83-13.68,3-2.45,5.9-4.94,8.87-7.39C760.44,20,760.77,20,761.61,19.85Z"/><path class="cls-6" d="M944.79,365.51c1.07,3.91,1.52,7.31,3.61,10.13,1.07,1.44,0,2.38-1,3.21-3.24,2.75-6.53,5.45-9.79,8.19-1,.8-1.82,1.17-3,.12-3.42-3.18-3.31-10.09.28-13.17C938,371.33,941.15,368.65,944.79,365.51Z"/><path class="cls-7" d="M629.17,274.57c-1-.81-1.91-1.63-2.88-2.43s-1.8-1.4-2.67-2.12c-7.13-5.91-7.63-8.18-3.77-16.37.7-1.47,1.46-1,2.29-.34,3.36,2.83,6.87,5.53,10,8.59,2.46,2.4,1.16,10.31-1.68,12.13A9.5,9.5,0,0,1,629.17,274.57Z"/><path class="cls-7" d="M832.38,168.84c3.56,3,7.2,6,10.66,9.14,2.54,2.32,1.46,10.6-1.44,12.38a1.58,1.58,0,0,1-2,0c-.67-.52-1.32-1.08-2-1.64-3.11-2.69-7.45-4.84-9-8.25s3.17-7.17,2.5-11.57Z"/><path class="cls-6" d="M1064,63.77c.92,3.91,1.28,7.06,3.12,9.71,1.17,1.69.3,3-1,4q-4.58,3.86-9.18,7.65c-.74.61-1.45,1.37-2.63.76-2.73-1.4-4.27-9.76-1.94-12C1056,70.56,1059.83,67.44,1064,63.77Z"/><path class="cls-8" d="M855.05,427.22l-11.41-1.33c-2.39-.27-3.14-1.53-2.58-3.86a8.93,8.93,0,0,1,9.23-7.15c3.41.23,6.81.7,10.21,1.16,2,.26,3.56.82,1.34,3.08a14.34,14.34,0,0,0-3.22,6C858.07,426.87,857,427.78,855.05,427.22Z"/><path class="cls-9" d="M1051.74,388.22c1.21-3.48,2.23-6.6,1.85-10-.09-.85-.08-1.9,1-2.12,4-.86,8.09-1.63,12.15-2.37a1.65,1.65,0,0,1,1.73,1c1.51,2.58-.66,10.86-3.43,11.54C1060.79,387.35,1056.48,388.37,1051.74,388.22Z"/><path class="cls-10" d="M34.61,577.44c1-3,2.53-5,2.15-7.26-.76-4.61,1.31-6.33,5.6-6.4,1.26,0,2.52-.67,3.77-.66,1.94,0,4.49-2.7,5.72.93s-1.29,10.51-4.11,11.13C43.6,576.08,39.39,576.64,34.61,577.44Z"/><path class="cls-9" d="M1058.77,604c1-3.19,2.12-6.28,1.65-9.61-.28-2,1.18-2.35,2.59-2.64,2.51-.53,5-1,7.56-1.44,4.68-.88,5.31-.35,5,4.28-.37,5.75-2.17,7.9-7.81,8.69C1064.87,603.69,1062,605,1058.77,604Z"/><path class="cls-11" d="M339.22,411.6c-4.18,2.49-7.72,4.83-11.47,6.76-2.82,1.46-10.36-3.45-10.65-6.64a2.09,2.09,0,0,1,1.25-2c1.09-.67,2.19-1.32,3.31-1.94,2.23-1.26,4.34-3.08,6.73-3.58,2.93-.61,3.41,3.26,5.65,4.36C335.55,409.28,337,410.25,339.22,411.6Z"/><path class="cls-12" d="M16.8,134.55c-.16,6.54-2.1,8.89-7.83,10-.27.05-.55.13-.83.17-2.52.33-5.73,1.75-7.39.71-2.26-1.42,1.38-4,.82-6.35-1.28-5.29,1.94-6.45,6.14-6.85a27.65,27.65,0,0,0,4.58-.89C15.64,130.41,17.18,131.55,16.8,134.55Z"/><path class="cls-11" d="M178.86,251.42c-4.3,2.57-7.73,4.81-11.34,6.72-3,1.57-11.68-3.57-10.72-6.55,1.36-4.28,6.64-4.62,9.95-7.08,1-.73,2.23-1.5,3.25.15C171.86,247.65,174.76,249.41,178.86,251.42Z"/><path class="cls-11" d="M416.93,275.84c-3.86,2.3-7.2,4.44-10.66,6.33-3.27,1.79-11-2.56-11.47-6.25-.13-1.09.54-1.55,1.25-2,1.45-.9,3-1.58,4.4-2.59,4-2.93,7.55-4.42,11,.92C412.4,273.77,414.67,274.43,416.93,275.84Z"/><path class="cls-13" d="M343.49,224.8c4.68-1.54,8.56-2.92,12.51-4.06,3.22-.93,10.53,5.39,9.22,8.58-1.7,4.13-7.05,3-10.66,4.58-1.15.5-3,1.93-3.85-.6C349.5,229.78,347,227.29,343.49,224.8Z"/><path class="cls-14" d="M872.7,343.05a54.71,54.71,0,0,1-13.59-2.15c-2.61-.69-4.52-9.24-3.11-11.7a1.8,1.8,0,0,1,2.17-.82c1.55.23,3.09.53,4.62.85,2.37.49,5,.52,7,1.69,2.22,1.32.32,4.2,1,6.29C871.39,338.82,871.88,340.45,872.7,343.05Z"/><path class="cls-13" d="M513.84,344.76c4.79-1.58,8.65-3,12.58-4.11,3.37-1,11.07,6.29,9.24,8.92-2.56,3.69-7.86,3-11.82,4.63-1.22.5-2.18.52-2.68-1C520,349.75,517.6,347.18,513.84,344.76Z"/><path class="cls-13" d="M120.85,201.76c-8.34-8.79-8.64-12.13-2.07-19.84,2.72,2.74,6.35,5.65,6.63,9.06S121.78,197.41,120.85,201.76Z"/><path class="cls-9" d="M575.69,208c-2.38-3.23-4.35-5.64-6-8.24-1.42-2.21,1.12-9.67,3.51-11.16a1.19,1.19,0,0,1,1.81.28c1.84,2.35,3.65,4.73,5.46,7.1a2,2,0,0,1-.21,2.71C578.28,201.2,577.2,204.14,575.69,208Z"/><path class="cls-15" d="M779.76,612.47c1.45-1.6,2.61-3,3.92-4.29,1.48-1.43,1.57-4.6,4-4.52,3.06.09,6.1,1.07,9.12,1.81,1.65.41,1.16,1.53.64,2.67-2.53,5.51-6.17,7.38-12.15,6C783.53,613.75,781.61,613.8,779.76,612.47Z"/><path class="cls-9" d="M910.58,554.83c-2.1-2.86-4.06-5.28-5.74-7.88-1.48-2.28,1.35-10.54,3.74-11.42.12,0,.24-.18.36-.19,1.59-.13,7.59,8.69,6.62,10C913.52,548.09,912.53,551.37,910.58,554.83Z"/><path class="cls-9" d="M296.25,122.26c-2.34-3.15-4.3-5.56-6-8.15-1.42-2.21,1.55-10.63,3.84-11.38a1.27,1.27,0,0,1,.38-.11c1.87-.09,7.25,8.7,6.33,10.4-.75,1.37-1.69,2.63-2.39,4S297.23,119.87,296.25,122.26Z"/><path class="cls-9" d="M785.35,115.1c-2.18-2.92-4.06-5.23-5.71-7.7s.88-10.14,3.46-11.47c.32-.16,1-.3,1.09-.15,1.67,1.94,3.12,4.1,4.92,5.9,2.35,2.34,1.18,4.11-.27,6.28C787.52,109.94,786.71,112.26,785.35,115.1Z"/><path class="cls-9" d="M523,546.11c-2.41-3.23-4.57-5.83-6.38-8.65-1.19-1.86,1.85-9.6,3.91-10.64a1.86,1.86,0,0,1,.78-.29c2.14,0,7.1,9,5.87,10.72C525.46,539.72,524.44,542.51,523,546.11Z"/><path class="cls-8" d="M700,418.23c-.88-.27-2.4-.65-3.86-1.19-2.35-.86-2.71-2.31-1.07-4.23.37-.43.71-.89,1.06-1.35,4-5.44,6.57-6.09,12.53-3.25.57.27.91.5.91,1.21C709.53,411.77,703,418.31,700,418.23Z"/><path class="cls-16" d="M391,584.53c-2.12,2.82-4,5.51-6,8-1.92,2.29-8.82,1.38-10.31-1.17-.56-1-.05-1.63.46-2.28,1.65-2.13,3.36-4.21,5-6.34.67-.86,1.28-1.38,2.47-.69a17.7,17.7,0,0,0,3.85,1.72A36.75,36.75,0,0,0,391,584.53Z"/><path class="cls-13" d="M976.66,516.55c-2.19-3-4.25-5.48-6-8.2-1.53-2.38,1.23-8.39,4-9.3,1.07-.35,1.61.2,2.11.9,1.66,2.3,3.27,4.63,4.92,6.94.57.8.71,1.59-.12,2.23C979.25,510.91,978.14,513.53,976.66,516.55Z"/><path class="cls-16" d="M510.13,230c-2.38-3.17-4.55-5.78-6.38-8.61-1.41-2.19,1.83-8.53,4.42-9.18,1.14-.29,1.51.55,2,1.16,1.61,2.17,3.15,4.4,4.7,6.61.58.82,1.18,1.62,0,2.51C512.52,224.26,511.33,226.8,510.13,230Z"/><path class="cls-7" d="M611.62,54.92a8.57,8.57,0,0,1-4.51-1.18c-.58-.35-1.51-1-1.47-1.38.31-3.52,3.29-5.46,5.05-8.13,1.08-1.64,2.42-1.06,3.74-.3.24.15.58.19.76.39,1.4,1.53,5.3-.56,5,2.89S614.43,55,611.62,54.92Z"/><path class="cls-17" d="M624.9,528.11c-1.54,2.61-1,6-4.44,6.65-3.07.61-10.47-2.3-11.52-4.6s.88-4,1.85-5.73c1.19-2.16,2.09.12,2.87.63A19.08,19.08,0,0,0,624.9,528.11Z"/><path class="cls-18" d="M141.91,2.36c.79,3,4,4.75,2.11,7.85-1.65,2.78-8.46,6.56-10.94,5.78-2.89-.91-2.37-4.11-3.85-6.36A18.32,18.32,0,0,0,141.91,2.36Z"/><path class="cls-19" d="M683.59,475.11c-1.78-.44-3.07-2.11-4.15-3.65-1.38-2,1.18-2.08,2-2.9a23.21,23.21,0,0,0,4.44-5.7c.55-1,.41-3.32,1.84-2.87a6.84,6.84,0,0,1,4.58,4.16C693.19,467,686.88,475,683.59,475.11Z"/><path class="cls-20" d="M709.07,68c-1.71,2.22-1,6.1-4.15,6.15a12.53,12.53,0,0,1-10.77-5.89c-1.83-2.8,1.38-4.66,2.15-7.64C699.6,65.06,703.87,67.07,709.07,68Z"/><path class="cls-18" d="M703,533.15c.89,2.86,3.88,4.71,2.19,7.35a13.18,13.18,0,0,1-10.78,6.06c-3,.11-2.74-3.25-3.51-5.15-.91-2.22,1.56-1.47,2.42-1.72C697,538.64,700,536.55,703,533.15Z"/><path class="cls-19" d="M501.77,405.57a16.62,16.62,0,0,1-8.37-3.3c-2.15-1.51-2.26-3-1-5.29,1.44-2.63,2.55-3.2,4.88-1,1.76,1.67,4.13,2.33,6.51,2.9,1.13.28,3.61-.51,3.16,1.58s-.82,4.64-3.7,5.1A9.33,9.33,0,0,1,501.77,405.57Z"/><path class="cls-19" d="M502.35,41.29a14.86,14.86,0,0,1-9.88-4.17c-2.86-2.63.27-4.34,1.18-6.18,1.19-2.38,2.29-.05,3.22.58a22.14,22.14,0,0,0,6.92,3.1c1.11.28,3.9-.79,3.07,1.94C506.23,38.61,505.85,41.58,502.35,41.29Z"/><path class="cls-19" d="M283,280.91c2,2.17,5.84,2.67,4.81,6.49-1.13,4.17-3.62,7.66-7.75,9.1-2.28.79-3.63-1.95-4.88-3.48s.93-2,1.75-2.61C280,288,281.74,284.83,283,280.91Z"/><path class="cls-19" d="M153.84,429.09c3.72-2.57,6.7-5.37,8-9.5.29-.89.83-1.85,1.75-1.06,1.64,1.38,4.6,2.16,4,5a13,13,0,0,1-7.31,9.51C156.89,434.49,156.25,430.41,153.84,429.09Z"/><path class="cls-21" d="M422.57,511.06c7.63,8.62,8.32,11.36,4.58,17.84C421.28,524.19,418.49,518.55,422.57,511.06Z"/><path class="cls-22" d="M427.29,164.76c-6-5-8.7-10.6-4.87-17.79C429.8,153.52,430.83,157.09,427.29,164.76Z"/><path class="cls-21" d="M675.86,197.83c-6-4.94-8.72-10.52-4.89-17.56C678.62,187.76,679.48,189.69,675.86,197.83Z"/><path class="cls-22" d="M299.06,524.8c1.93,10.35,1.93,10.35-5,18C291.2,533.07,292.34,528.79,299.06,524.8Z"/><path class="cls-23" d="M941.16,196c10.74-.1,13.48,1.54,16.27,9.67-3.66-.56-7.17-.69-10.39-1.71C943.47,202.8,944.36,197.9,941.16,196Z"/><path class="cls-22" d="M200.51,105.27c-5.5-5.12-9.21-10.46-4.63-17.51C202.73,94.32,204.31,97.13,200.51,105.27Z"/><path class="cls-24" d="M403.84,43.75c-7.36-6.76-8.21-9.75-5-16.79C406.14,33.94,406.46,35,403.84,43.75Z"/><path class="cls-25" d="M403.66,407.81c-7.06-6.18-8-9.39-4.72-16.83C403.13,395.9,408.31,400.27,403.66,407.81Z"/><path class="cls-25" d="M97.41,355.32c-2.34-.42-2.5-2.72-3.41-4.28-1.14-1.94.74-2,1.79-2.41,1.7-.69,3.43-1.32,5.15-1.95,3.62-1.32,5.31-.33,6.27,3.45.21.82.22,1.41-.53,1.71C103.66,353,100.61,354.13,97.41,355.32Z"/><path class="cls-26" d="M312.42,175.1c-.09-1.1.77-1.17,1.37-1.41,2.52-1,5-2,7.61-2.83,3.54-1.11,3.37,2.31,4.35,4,1.35,2.29-1.24,2-2.23,2.48a46.94,46.94,0,0,1-5.6,2.09C315.46,180.24,312.2,177.6,312.42,175.1Z"/><path class="cls-26" d="M633.46,598.16c.28-4.44.77-4.75,5.14-3.42a26,26,0,0,0,4.09,1.16c4.06.55,3,3.3,2.55,5.73-.65,3.45-2.81,1.23-4.27,1-1.94-.38-3.79-1.18-5.7-1.71C633.79,600.45,633.06,599.66,633.46,598.16Z"/><path class="cls-26" d="M552.7,598.94c.09,1.39-.78,1.64-1.57,1.93-2.4.89-4.84,1.69-7.2,2.67-1.71.7-2.48.05-3.34-1.42-1.5-2.57-2.31-4.58,1.71-5.39a39.61,39.61,0,0,0,4.82-1.72A4.36,4.36,0,0,1,552.7,598.94Z"/><path class="cls-27" d="M818.63,530.39c-2-2.43-3.9-4.9-5.94-7.26-1.28-1.48-1.08-2.49.16-4,2.19-2.69,3.88-2.87,5.68.22a14.13,14.13,0,0,0,1.32,1.68C823.81,525.91,823.81,525.91,818.63,530.39Z"/><path class="cls-26" d="M632,392.38c.16.73-.35,1-.88,1.17-2.91,1.08-5.75,2.51-8.76,3.15s-2.82-2.59-3.79-4.22c-1.19-2,1.08-1.84,2-2.26a56,56,0,0,1,5.56-2.06A4.59,4.59,0,0,1,632,392.38Z"/><path class="cls-26" d="M248.39,474.59a4.35,4.35,0,0,1-5.68,4.05,22.55,22.55,0,0,1-4.36-1.65c-1.26-.75-4.44,0-3.1-3.14,1-2.36,1.82-5.41,5.69-3.23a44.26,44.26,0,0,0,5.94,2.3C247.65,473.22,248.6,473.39,248.39,474.59Z"/><path class="cls-16" d="M72.64,67c-.18-3.32,1-4.65,4.5-3.07a31.3,31.3,0,0,0,5.25,1.62c1.8.46,2.54,1.36,2.25,3.33-.43,2.9-1.06,5-4.68,3.15a25.38,25.38,0,0,0-5.24-1.66C72.9,70,71.9,69.12,72.64,67Z"/><path class="cls-26" d="M1013.59,436.54l-8.82-3.3c-1.47-.56-1-1.61-.36-2.37,1.11-1.35.77-4.43,3.77-3.6,2.45.68,4.82,1.71,7.21,2.63,1.13.43,2.86.73,1.81,2.52C1016.3,434,1016.31,436.49,1013.59,436.54Z"/><path class="cls-17" d="M40.4,422c-.87-1.56-1.16-2.24-1.58-2.81-1.44-1.95-2.87-3.92-4.42-5.78-1.21-1.47-1.18-2.5.18-4,2.17-2.38,3.81-3.07,5.69.23a44.66,44.66,0,0,0,3.57,4.81c.62.82,1.2,1.61.37,2.65C43.14,418.45,42.11,419.82,40.4,422Z"/><path class="cls-26" d="M1018.29,166a4.44,4.44,0,0,1,6-4,30.82,30.82,0,0,1,4.35,1.68c1.32.7,4.36.22,2.8,3.33-1.05,2.09-1.68,4.8-5.16,3.09-2-1-4.26-1.55-6.37-2.39C1019.18,167.46,1018.15,167.32,1018.29,166Z"/><path class="cls-19" d="M355,558.49c-.6.84-1.65,2.17-2.53,3.59-.67,1.11-1.45,1.11-2.48.68-2.08-.88-4.22-1.65-6.26-2.63-1-.5-3.11-.44-2.71-2a14,14,0,0,1,2.76-4.67C344.21,552.83,354.33,556.82,355,558.49Z"/><path class="cls-27" d="M894.6,240.61c-2-2.1-3.31-3.37-4.45-4.79-.86-1.08.3-1.8.84-2.53a28.86,28.86,0,0,1,3.5-4.26c1.08-1,1.45-4.15,4-1.89,2,1.75,4.43,3.48,1.2,6.41a35.13,35.13,0,0,0-4,4.93A12.85,12.85,0,0,0,894.6,240.61Z"/><path class="cls-26" d="M142,514.58c3.31,1.22,6.41,2.27,9.45,3.51,1.4.57.75,1.76.14,2.48-1.05,1.25-.7,4.19-3.45,3.45s-5.65-2-8.47-3a1.38,1.38,0,0,1-.78-2.34C139.86,517.27,140,515.11,142,514.58Z"/><path class="cls-27" d="M774,371c-2.24,2.79-4.28,6-7,8.39-1.06,1-2.27-1.62-3.47-2.5a1.88,1.88,0,0,1-.49-2.95c1.73-2.27,3.45-4.55,5.17-6.82.55-.73,1.21-1.4,2.07-.54C771.58,367.87,773.24,368.85,774,371Z"/></g></g></g></svg>